<svg width="24" height="24" viewBox="0 0 24 24" fill="none" xmlns="http://www.w3.org/2000/svg">
<path d="M20.328 9.04492C20.9125 9.04492 21.4838 9.21823 21.9698 9.54293C22.4557 9.86763 22.8345 10.3291 23.0581 10.8691C23.2818 11.409 23.3403 12.0032 23.2263 12.5764C23.1122 13.1496 22.8308 13.6762 22.4175 14.0894C22.0043 14.5027 21.4778 14.7841 20.9045 14.8981C20.3313 15.0122 19.7372 14.9536 19.1972 14.73C18.6573 14.5063 18.1958 14.1276 17.8711 13.6416C17.5464 13.1557 17.373 12.5844 17.373 11.9999C17.373 11.6119 17.4495 11.2276 17.598 10.8691C17.7465 10.5106 17.9641 10.1848 18.2385 9.91041C18.5129 9.63601 18.8387 9.41835 19.1972 9.26984C19.5557 9.12134 19.94 9.04492 20.328 9.04492Z" fill="#00ACEA"/>
<path d="M18.3666 1.75879C18.9511 1.75874 19.5224 1.932 20.0083 2.25666C20.4943 2.58132 20.873 3.04278 21.0967 3.58271C21.3203 4.12263 21.3789 4.71675 21.2649 5.28994C21.1509 5.86313 20.8695 6.38964 20.4562 6.80289C20.043 7.21614 19.5165 7.49755 18.9433 7.61156C18.3701 7.72556 17.7759 7.66703 17.236 7.44336C16.6961 7.21969 16.2346 6.84093 15.91 6.35499C15.5853 5.86904 15.4121 5.29774 15.4121 4.71332C15.4121 3.92974 15.7234 3.17827 16.2775 2.62419C16.8316 2.07012 17.5831 1.75883 18.3666 1.75879Z" fill="#00ACEA"/>
<path d="M18.3666 16.3318C18.951 16.3317 19.5223 16.505 20.0083 16.8296C20.4942 17.1543 20.873 17.6157 21.0966 18.1556C21.3203 18.6955 21.3789 19.2896 21.2649 19.8628C21.1509 20.4359 20.8696 20.9625 20.4564 21.3757C20.0432 21.789 19.5167 22.0704 18.9436 22.1845C18.3704 22.2986 17.7763 22.2401 17.2364 22.0165C16.6964 21.7929 16.2349 21.4142 15.9102 20.9283C15.5855 20.4424 15.4122 19.8712 15.4121 19.2868C15.4121 18.8988 15.4885 18.5145 15.6369 18.156C15.7854 17.7975 16.003 17.4718 16.2774 17.1974C16.5517 16.923 16.8774 16.7053 17.2359 16.5568C17.5944 16.4083 17.9786 16.3318 18.3666 16.3318Z" fill="#00ACEA"/>
<path d="M5.91992 15.3207L4.70117 15.092V8.9082L12.2012 7.50195V16.4982L5.91992 15.3207Z" fill="#00ACEA"/>
<path d="M5.91992 15.3205V20.2968H3.69336V15.1171V15.0918H4.70117L5.91992 15.3205Z" fill="#FEDB41"/>
<path d="M4.70117 8.9082V15.092H3.5293C3.24336 15.092 2.96914 14.9784 2.76695 14.7762C2.56476 14.574 2.45117 14.2998 2.45117 14.0138V9.98633C2.45117 9.70039 2.56476 9.42617 2.76695 9.22398C2.96914 9.02179 3.24336 8.9082 3.5293 8.9082H4.70117Z" fill="#00ACEA"/>
<path d="M2.45117 10.1016V13.8984H1.6543C1.53117 13.8985 1.40925 13.8743 1.29549 13.8271C1.18173 13.78 1.07836 13.711 0.991302 13.6239C0.90424 13.5369 0.835185 13.4335 0.788085 13.3197C0.740984 13.206 0.71676 13.0841 0.716797 12.9609V11.0391C0.71676 10.9159 0.740984 10.794 0.788085 10.6803C0.835185 10.5665 0.90424 10.4631 0.991302 10.3761C1.07836 10.289 1.18173 10.22 1.29549 10.1728C1.40925 10.1257 1.53117 10.1015 1.6543 10.1016H2.45117Z" fill="#00ACEA"/>
<path d="M20.3285 8.76367C19.6884 8.76358 19.0627 8.9533 18.5304 9.30885C17.9982 9.6644 17.5833 10.1698 17.3383 10.7611C17.0933 11.3525 17.0291 12.0032 17.1539 12.631C17.2787 13.2588 17.5869 13.8355 18.0395 14.2881C18.4921 14.7408 19.0687 15.049 19.6965 15.174C20.3243 15.2989 20.975 15.2348 21.5664 14.9899C22.1578 14.7449 22.6632 14.3301 23.0189 13.7979C23.3745 13.2657 23.5643 12.64 23.5643 11.9999C23.5633 11.142 23.2221 10.3195 22.6155 9.71278C22.0089 9.10609 21.1864 8.76476 20.3285 8.76367ZM20.3285 14.6737C19.7997 14.6738 19.2827 14.517 18.8429 14.2233C18.4032 13.9296 18.0604 13.512 17.858 13.0234C17.6555 12.5349 17.6025 11.9973 17.7056 11.4786C17.8087 10.9599 18.0633 10.4834 18.4373 10.1095C18.8112 9.73548 19.2876 9.48079 19.8063 9.37758C20.3249 9.27438 20.8625 9.3273 21.3511 9.52965C21.8397 9.73201 22.2573 10.0747 22.5512 10.5144C22.845 10.9541 23.0018 11.4711 23.0018 11.9999C23.0011 12.7087 22.7192 13.3883 22.218 13.8896C21.7169 14.3908 21.0373 14.6728 20.3285 14.6737Z" fill="#083863"/>
<path d="M20.328 10.8488C20.4562 10.8489 20.5792 10.8999 20.6699 10.9906C20.7606 11.0813 20.8116 11.2042 20.8117 11.3325C20.8117 11.4071 20.8414 11.4786 20.8941 11.5314C20.9469 11.5841 21.0184 11.6137 21.093 11.6137C21.1676 11.6137 21.2391 11.5841 21.2919 11.5314C21.3446 11.4786 21.3742 11.4071 21.3742 11.3325C21.3739 11.0986 21.2953 10.8715 21.151 10.6874C21.0067 10.5033 20.8049 10.3728 20.5778 10.3166V10.125C20.5778 10.0504 20.5482 9.97887 20.4955 9.92613C20.4427 9.87338 20.3712 9.84375 20.2966 9.84375C20.222 9.84375 20.1505 9.87338 20.0977 9.92613C20.045 9.97887 20.0153 10.0504 20.0153 10.125V10.334C19.7766 10.4087 19.5724 10.5664 19.44 10.7787C19.3075 10.9909 19.2555 11.2436 19.2933 11.4909C19.3311 11.7382 19.4562 11.9638 19.6461 12.1267C19.8359 12.2897 20.0778 12.3793 20.328 12.3792C20.4237 12.3793 20.5173 12.4077 20.5968 12.4609C20.6764 12.5141 20.7384 12.5898 20.775 12.6782C20.8116 12.7667 20.8211 12.864 20.8024 12.9579C20.7837 13.0517 20.7375 13.1379 20.6698 13.2056C20.6021 13.2733 20.5158 13.3193 20.4219 13.3379C20.3281 13.3566 20.2307 13.3469 20.1423 13.3103C20.0539 13.2736 19.9783 13.2115 19.9252 13.1319C19.8721 13.0523 19.8437 12.9587 19.8438 12.863C19.8438 12.7884 19.8141 12.7168 19.7614 12.6641C19.7086 12.6114 19.6371 12.5817 19.5625 12.5817C19.4879 12.5817 19.4164 12.6114 19.3636 12.6641C19.3109 12.7168 19.2813 12.7884 19.2813 12.863C19.2815 13.0859 19.3529 13.3029 19.4849 13.4826C19.6169 13.6622 19.8027 13.7951 20.0153 13.862V14.0625C20.0153 14.1371 20.045 14.2086 20.0977 14.2614C20.1505 14.3141 20.222 14.3438 20.2966 14.3438C20.3712 14.3438 20.4427 14.3141 20.4955 14.2614C20.5482 14.2086 20.5778 14.1371 20.5778 14.0625V13.8793C20.8261 13.8182 21.0433 13.6682 21.1886 13.4579C21.3339 13.2475 21.3971 12.9912 21.3664 12.7374C21.3356 12.4836 21.213 12.2498 21.0217 12.0802C20.8304 11.9106 20.5837 11.8169 20.328 11.8168C20.1996 11.8168 20.0765 11.7658 19.9858 11.6751C19.895 11.5843 19.844 11.4612 19.844 11.3328C19.844 11.2045 19.895 11.0814 19.9858 10.9906C20.0765 10.8998 20.1996 10.8488 20.328 10.8488V10.8488Z" fill="#083863"/>
<path d="M18.3666 7.94957C19.0067 7.94962 19.6323 7.75987 20.1645 7.40434C20.6967 7.0488 21.1115 6.54343 21.3565 5.95214C21.6014 5.36086 21.6656 4.71021 21.5408 4.08247C21.4159 3.45474 21.1078 2.87811 20.6552 2.42551C20.2027 1.97292 19.6261 1.66467 18.9984 1.53977C18.3707 1.41486 17.72 1.47889 17.1287 1.72378C16.5374 1.96866 16.032 2.38339 15.6764 2.91553C15.3207 3.44766 15.1309 4.0733 15.1309 4.71332C15.1318 5.57125 15.473 6.39377 16.0796 7.00046C16.6862 7.60715 17.5087 7.94848 18.3666 7.94957ZM18.3666 2.04004C18.8954 2.03999 19.4124 2.19676 19.8521 2.49051C20.2917 2.78426 20.6345 3.20181 20.8368 3.69034C21.0392 4.17887 21.0922 4.71644 20.989 5.23508C20.8859 5.75371 20.6312 6.23011 20.2573 6.60402C19.8834 6.97793 19.407 7.23256 18.8884 7.33571C18.3698 7.43886 17.8322 7.3859 17.3437 7.18352C16.8551 6.98114 16.4376 6.63843 16.1438 6.19874C15.8501 5.75904 15.6933 5.24211 15.6934 4.71332C15.6942 4.00459 15.9762 3.32513 16.4773 2.82399C16.9785 2.32284 17.6579 2.04091 18.3666 2.04004Z" fill="#083863"/>
<path d="M18.3666 6.06047C18.2384 6.06032 18.1154 6.00931 18.0247 5.91862C17.9341 5.82793 17.883 5.70497 17.8829 5.57672C17.8829 5.50213 17.8533 5.43059 17.8005 5.37784C17.7478 5.3251 17.6762 5.29547 17.6016 5.29547C17.5271 5.29547 17.4555 5.3251 17.4028 5.37784C17.35 5.43059 17.3204 5.50213 17.3204 5.57672C17.3207 5.79823 17.3912 6.01395 17.5217 6.19291C17.6522 6.37188 17.8361 6.50487 18.047 6.57281V6.79688C18.047 6.87147 18.0766 6.943 18.1293 6.99575C18.1821 7.04849 18.2536 7.07812 18.3282 7.07812C18.4028 7.07812 18.4743 7.04849 18.5271 6.99575C18.5798 6.943 18.6095 6.87147 18.6095 6.79688V6.59423C18.8589 6.53484 19.0779 6.38592 19.2248 6.17575C19.3716 5.96557 19.4362 5.70877 19.4063 5.45411C19.3763 5.19944 19.2539 4.96464 19.0623 4.79429C18.8706 4.62394 18.6231 4.52989 18.3666 4.53C18.2709 4.52995 18.1774 4.50152 18.0978 4.4483C18.0182 4.39508 17.9562 4.31947 17.9196 4.23101C17.8831 4.14256 17.8735 4.04524 17.8922 3.95137C17.911 3.85749 17.9571 3.77128 18.0248 3.70362C18.0925 3.63597 18.1788 3.58991 18.2727 3.57129C18.3666 3.55266 18.4639 3.56229 18.5523 3.59896C18.6407 3.63564 18.7163 3.69771 18.7694 3.77732C18.8226 3.85694 18.8509 3.95053 18.8509 4.04625C18.8509 4.12084 18.8805 4.19238 18.9332 4.24512C18.986 4.29787 19.0575 4.3275 19.1321 4.3275C19.2067 4.3275 19.2782 4.29787 19.331 4.24512C19.3837 4.19238 19.4134 4.12084 19.4134 4.04625C19.4131 3.81095 19.3336 3.58259 19.1878 3.39791C19.042 3.21324 18.8383 3.08299 18.6095 3.02812V2.85938C18.6095 2.78478 18.5798 2.71325 18.5271 2.6605C18.4743 2.60776 18.4028 2.57813 18.3282 2.57812C18.2536 2.57813 18.1821 2.60776 18.1293 2.6605C18.0766 2.71325 18.047 2.78478 18.047 2.85938V3.04969C17.8094 3.12593 17.6069 3.28452 17.476 3.49688C17.3451 3.70924 17.2943 3.96138 17.3329 4.20785C17.3715 4.45433 17.4968 4.67891 17.6864 4.84112C17.8759 5.00332 18.1172 5.09247 18.3666 5.0925C18.495 5.0925 18.6181 5.14349 18.7089 5.23426C18.7996 5.32502 18.8506 5.44812 18.8506 5.57648C18.8506 5.70484 18.7996 5.82795 18.7089 5.91871C18.6181 6.00948 18.495 6.06047 18.3666 6.06047Z" fill="#083863"/>
<path d="M15.1309 19.2868C15.1309 19.9268 15.3207 20.5524 15.6764 21.0846C16.032 21.6167 16.5374 22.0314 17.1287 22.2763C17.72 22.5212 18.3707 22.5853 18.9984 22.4603C19.6261 22.3354 20.2027 22.0272 20.6552 21.5746C21.1078 21.122 21.4159 20.5454 21.5408 19.9176C21.6656 19.2899 21.6014 18.6393 21.3565 18.048C21.1115 17.4567 20.6967 16.9513 20.1645 16.5958C19.6323 16.2402 19.0067 16.0505 18.3666 16.0505C17.5087 16.0515 16.6861 16.3928 16.0795 16.9995C15.4729 17.6062 15.1317 18.4288 15.1309 19.2868ZM18.3666 16.613C18.8954 16.613 19.4123 16.7697 19.852 17.0635C20.2917 17.3572 20.6344 17.7747 20.8368 18.2632C21.0392 18.7517 21.0922 19.2893 20.9891 19.8079C20.886 20.3265 20.6314 20.8029 20.2575 21.1768C19.8836 21.5508 19.4073 21.8054 18.8887 21.9087C18.3701 22.0119 17.8325 21.959 17.344 21.7566C16.8554 21.5543 16.4379 21.2117 16.1441 20.7721C15.8502 20.3324 15.6934 19.8156 15.6934 19.2868C15.6941 18.578 15.976 17.8984 16.4771 17.3971C16.9783 16.8959 17.6578 16.6139 18.3666 16.613Z" fill="#083863"/>
<path d="M18.3908 20.6322C18.3584 20.6245 18.3249 20.6229 18.2919 20.6275C18.1778 20.6098 18.0739 20.5519 17.9989 20.4642C17.9239 20.3765 17.8827 20.2648 17.8829 20.1494C17.8829 20.0748 17.8533 20.0033 17.8005 19.9505C17.7478 19.8978 17.6762 19.8682 17.6016 19.8682C17.5271 19.8682 17.4555 19.8978 17.4028 19.9505C17.35 20.0033 17.3204 20.0748 17.3204 20.1494C17.3203 20.3709 17.3906 20.5867 17.5212 20.7656C17.6518 20.9445 17.836 21.0772 18.047 21.1446V21.375C18.047 21.4496 18.0766 21.5211 18.1293 21.5739C18.1821 21.6266 18.2536 21.6562 18.3282 21.6562C18.4028 21.6562 18.4743 21.6266 18.5271 21.5739C18.5798 21.5211 18.6095 21.4496 18.6095 21.375V21.1672C18.8589 21.1078 19.0779 20.9589 19.2248 20.7487C19.3716 20.5385 19.4362 20.2817 19.4063 20.0271C19.3763 19.7724 19.2539 19.5376 19.0623 19.3673C18.8706 19.1969 18.6231 19.1029 18.3666 19.103C18.2709 19.1029 18.1774 19.0745 18.0978 19.0213C18.0182 18.9681 17.9562 18.8924 17.9196 18.804C17.8831 18.7155 17.8735 18.6182 17.8922 18.5243C17.911 18.4305 17.9571 18.3442 18.0248 18.2766C18.0925 18.2089 18.1788 18.1629 18.2727 18.1443C18.3666 18.1256 18.4639 18.1353 18.5523 18.1719C18.6407 18.2086 18.7163 18.2707 18.7694 18.3503C18.8226 18.4299 18.8509 18.5235 18.8509 18.6192C18.8509 18.6938 18.8805 18.7653 18.9332 18.8181C18.986 18.8708 19.0575 18.9005 19.1321 18.9005C19.2067 18.9005 19.2782 18.8708 19.331 18.8181C19.3837 18.7653 19.4134 18.6938 19.4134 18.6192C19.413 18.3839 19.3336 18.1556 19.1878 17.971C19.0419 17.7863 18.8383 17.6561 18.6095 17.6012V17.3906C18.6095 17.316 18.5798 17.2445 18.5271 17.1918C18.4743 17.139 18.4028 17.1094 18.3282 17.1094C18.2536 17.1094 18.1821 17.139 18.1293 17.1918C18.0766 17.2445 18.047 17.316 18.047 17.3906V17.6227C17.8094 17.6989 17.6069 17.8575 17.476 18.0698C17.3451 18.2822 17.2943 18.5343 17.3329 18.7808C17.3715 19.0273 17.4968 19.2519 17.6864 19.4141C17.8759 19.5763 18.1172 19.6654 18.3666 19.6655C18.493 19.6653 18.6144 19.7145 18.7049 19.8026C18.7954 19.8907 18.8478 20.0108 18.851 20.1371C18.8541 20.2633 18.8078 20.3858 18.7218 20.4784C18.6358 20.5709 18.517 20.6261 18.3908 20.6322Z" fill="#083863"/>
<path d="M1.65469 14.2031H2.18081C2.22365 14.5098 2.37013 14.7925 2.5959 15.0044C2.82167 15.2162 3.11314 15.3445 3.42188 15.3677V20.2969C3.42083 20.3333 3.42708 20.3696 3.44026 20.4036C3.45343 20.4375 3.47327 20.4685 3.4986 20.4948C3.52393 20.521 3.55424 20.5418 3.58775 20.5562C3.62127 20.5705 3.65731 20.5779 3.69375 20.5781H5.92031C5.95652 20.5779 5.99229 20.5703 6.0255 20.5559C6.05871 20.5414 6.08868 20.5205 6.11362 20.4942C6.13856 20.468 6.15795 20.437 6.17064 20.4031C6.18334 20.3692 6.18907 20.3331 6.1875 20.2969V15.6593L12.1427 16.7746C12.161 16.7777 12.1795 16.7793 12.198 16.7792C12.262 16.7792 12.3239 16.7562 12.3724 16.7144C12.4034 16.6878 12.4282 16.6545 12.4449 16.6171C12.4615 16.5797 12.4697 16.5391 12.4688 16.4981V7.50189C12.4703 7.46103 12.4626 7.42036 12.4463 7.38289C12.4299 7.34542 12.4053 7.31211 12.3743 7.28546C12.3433 7.25881 12.3067 7.23948 12.2672 7.22893C12.2277 7.21839 12.1864 7.21688 12.1462 7.22453L4.67541 8.62501H3.52969C3.19392 8.62532 2.87019 8.75009 2.62106 8.97519C2.37192 9.20029 2.21507 9.50975 2.18081 9.84376H1.65469C0.982687 9.84376 0.421875 10.3671 0.421875 11.0391V12.9609C0.421875 13.6329 0.982687 14.2031 1.65469 14.2031ZM5.625 20.0156H3.98438V15.375H4.67541L5.625 15.5538V20.0156ZM11.9062 16.1592L6.05208 15.0603C6.01108 15.0362 5.96437 15.0234 5.9168 15.0234C5.90152 15.0236 5.88627 15.0246 5.87114 15.0267L4.96875 14.8584V9.14157L11.9062 7.84079V16.1592ZM2.71875 9.98626C2.7221 9.77335 2.80899 9.57029 2.96069 9.42087C3.1124 9.27144 3.31675 9.18763 3.52969 9.18751H4.40625V14.8125H3.52969C3.31675 14.8124 3.1124 14.7286 2.96069 14.5792C2.80899 14.4297 2.7221 14.2267 2.71875 14.0138V9.98626ZM0.984375 11.0391C0.984375 10.6772 1.29281 10.4063 1.65469 10.4063H2.15625V13.6406H1.65469C1.29281 13.6406 0.984375 13.3228 0.984375 12.9609V11.0391Z" fill="#083863"/>
<path d="M16.1719 11.7188H13.875C13.8004 11.7188 13.7289 11.7484 13.6761 11.8011C13.6234 11.8539 13.5938 11.9254 13.5938 12C13.5938 12.0746 13.6234 12.1461 13.6761 12.1989C13.7289 12.2516 13.8004 12.2812 13.875 12.2812H16.1719C16.2465 12.2812 16.318 12.2516 16.3707 12.1989C16.4235 12.1461 16.4531 12.0746 16.4531 12C16.4531 11.9254 16.4235 11.8539 16.3707 11.8011C16.318 11.7484 16.2465 11.7188 16.1719 11.7188Z" fill="#083863"/>
<path d="M13.3264 9.93755C13.3673 9.93754 13.4077 9.92857 13.4448 9.91125L15.4604 8.97375C15.4944 8.95847 15.525 8.9366 15.5504 8.90942C15.5758 8.88223 15.5956 8.85027 15.6086 8.81538C15.6216 8.78049 15.6275 8.74337 15.626 8.70617C15.6246 8.66897 15.6157 8.63244 15.6 8.59868C15.5843 8.56493 15.5621 8.53463 15.5346 8.50953C15.5071 8.48444 15.4749 8.46505 15.4398 8.4525C15.4048 8.43995 15.3676 8.43448 15.3304 8.43641C15.2932 8.43834 15.2568 8.44764 15.2233 8.46375L13.2076 9.40125C13.1495 9.42825 13.1024 9.47428 13.074 9.53172C13.0456 9.58916 13.0377 9.65457 13.0516 9.71712C13.0654 9.77967 13.1002 9.83561 13.1502 9.8757C13.2002 9.91578 13.2623 9.9376 13.3264 9.93755Z" fill="#083863"/>
<path d="M13.2088 14.5988L15.2244 15.5363C15.258 15.5524 15.2944 15.5617 15.3316 15.5636C15.3687 15.5655 15.4059 15.5601 15.441 15.5475C15.476 15.5349 15.5082 15.5156 15.5357 15.4905C15.5632 15.4654 15.5855 15.4351 15.6012 15.4013C15.6169 15.3676 15.6257 15.331 15.6272 15.2938C15.6286 15.2566 15.6227 15.2195 15.6097 15.1846C15.5968 15.1497 15.577 15.1178 15.5515 15.0906C15.5261 15.0634 15.4955 15.0415 15.4616 15.0263L13.446 14.0888C13.4124 14.0726 13.376 14.0633 13.3388 14.0614C13.3016 14.0595 13.2644 14.065 13.2294 14.0775C13.1943 14.0901 13.1621 14.1094 13.1346 14.1345C13.1071 14.1596 13.0849 14.1899 13.0692 14.2237C13.0535 14.2574 13.0447 14.294 13.0432 14.3312C13.0417 14.3684 13.0476 14.4055 13.0606 14.4404C13.0736 14.4753 13.0934 14.5072 13.1188 14.5344C13.1443 14.5616 13.1748 14.5835 13.2088 14.5988Z" fill="#083863"/>
</svg>
