<svg width="33" height="33" viewBox="0 0 33 33" fill="none" xmlns="http://www.w3.org/2000/svg">
<path d="M28.7774 22.9764H4.16211C5.29004 22.9764 5.92777 22.3862 6.28981 21.4081C8.04087 16.6847 3.37659 2.91968 16.4701 2.91968C29.5634 2.91968 24.8984 16.6847 26.6497 21.4081C27.0122 22.3862 27.6502 22.9764 28.7774 22.9764Z" fill="#F7D360"/>
<path d="M31.161 25.3596C31.161 26.6758 30.0938 27.7428 28.7778 27.7428H4.16255C3.50442 27.7428 2.90848 27.4762 2.4772 27.0449C2.04592 26.6136 1.7793 26.0177 1.7793 25.3596C1.7793 24.0436 2.8463 22.9766 4.16255 22.9766H28.7778C29.4359 22.9766 30.0319 23.2432 30.4631 23.6745C30.8944 24.1057 31.161 24.7017 31.161 25.3596Z" fill="#E58E13"/>
<path d="M26.6494 21.4081H13.8555C12.4763 21.4081 11.3733 20.2663 11.4161 18.8876C11.5964 13.0546 10.6661 3.03044 16.3739 2.92017C0.705818 3.00124 10.7215 22.9764 4.16211 22.9764H28.7771C27.6499 22.9764 27.012 22.3862 26.6494 21.4081Z" fill="#E58E13"/>
<path d="M31.1609 25.3596C31.1609 26.6758 30.0936 27.7428 28.7776 27.7428H11.049C10.3911 27.7428 9.7952 27.4762 9.36392 27.0449C8.93264 26.6136 8.66602 26.0177 8.66602 25.3596C8.66602 24.0436 9.73301 22.9766 11.049 22.9766H28.7776C29.4357 22.9766 30.0317 23.2432 30.463 23.6745C30.8942 24.1057 31.1609 24.7017 31.1609 25.3596Z" fill="#F7D360"/>
<path d="M21.2364 27.7427C21.2364 29.9343 19.7575 31.7798 17.7443 32.3372C17.3385 32.4495 16.9112 32.5097 16.4701 32.5097C13.8371 32.5097 11.7031 30.3754 11.7031 27.7427H21.2364Z" fill="#E58E13"/>
<path d="M21.0067 29.2131C20.516 30.7278 19.2874 31.9106 17.7453 32.3373C16.7757 32.0692 15.9303 31.5025 15.314 30.7424C14.8172 30.1296 15.2654 29.2131 16.0542 29.2131H21.0067Z" fill="#F7D360"/>
<path d="M18.8929 3.10209C18.8982 3.04192 18.9002 2.98124 18.9002 2.91981C18.9002 1.57813 17.812 0.490234 16.4706 0.490234C15.1282 0.490234 14.041 1.57813 14.041 2.91981C14.041 2.98124 14.0428 3.04192 14.0481 3.10209" fill="#E58E13"/>
<path d="M24.3406 3.07575C24.3494 3.08053 25.222 3.57853 26.0805 4.73542C27.2306 6.28481 27.8135 8.22041 27.8135 10.4886C27.8135 10.7593 28.033 10.9788 28.3037 10.9788C28.5743 10.9788 28.7939 10.7593 28.7939 10.4886C28.7939 7.36616 27.7276 5.29359 26.8331 4.10498C25.8502 2.7988 24.8579 2.24164 24.8161 2.21848C24.5797 2.08806 24.2831 2.17366 24.1517 2.40932C24.0203 2.64523 24.1051 2.94332 24.3406 3.07575Z" fill="#C4C4C4"/>
<path d="M28.0378 3.25552C28.1166 3.30713 29.9693 4.55062 29.9693 7.67911C29.9693 7.94976 30.1889 8.16905 30.4595 8.16905C30.7302 8.16905 30.9495 7.94976 30.9495 7.67911C30.9495 3.98917 28.6637 2.4919 28.5662 2.42996C28.3389 2.2852 28.0383 2.35217 27.8922 2.57901C27.7462 2.8056 27.8119 3.10823 28.0378 3.25552Z" fill="#C4C4C4"/>
<path d="M4.63643 10.9789C4.90708 10.9789 5.12662 10.7593 5.12662 10.4887C5.12662 8.22048 5.70972 6.28488 6.85955 4.73549C7.7128 3.58591 8.58014 3.0869 8.59928 3.07582C8.83519 2.94465 8.92079 2.64706 8.79012 2.41065C8.65895 2.17373 8.36085 2.08788 8.12394 2.21855C8.08214 2.24171 7.08992 2.79888 6.10701 4.10506C5.21273 5.29366 4.14648 7.36623 4.14648 10.4887C4.14648 10.7593 4.36578 10.9789 4.63643 10.9789Z" fill="#C4C4C4"/>
<path d="M2.48043 8.16927C2.75108 8.16927 2.97037 7.94998 2.97037 7.67933C2.97037 4.55336 4.82038 3.30911 4.90195 3.25599C5.12854 3.11021 5.19501 2.80834 5.05024 2.58074C4.90497 2.35239 4.60209 2.28516 4.37348 2.43044C4.2763 2.49237 1.99023 3.98939 1.99023 7.67933C1.99023 7.94998 2.20978 8.16927 2.48043 8.16927Z" fill="#C4C4C4"/>
</svg>
