<svg width="375" height="233" viewBox="0 0 375 233" fill="none" xmlns="http://www.w3.org/2000/svg">
<g clip-path="url(#clip0_235_2949)">
<path d="M99.2159 43.3061C97.5413 43.353 95.9481 44.0392 94.7636 45.2238C93.579 46.4084 92.8928 48.0015 92.8459 49.6761C92.8096 51.0982 93.2417 52.4927 94.0758 53.6451L94.1346 53.7333L98.7602 60.02C98.8524 60.1508 98.9752 60.257 99.1179 60.3294C99.2606 60.4018 99.4189 60.4381 99.5789 60.4352C99.7389 60.4323 99.8958 60.3903 100.036 60.3128C100.176 60.2353 100.295 60.1246 100.382 59.9906L104.562 53.7774C105.393 52.6231 105.858 51.2452 105.895 49.8231C105.893 48.9541 105.718 48.0941 105.379 47.2936C105.041 46.4931 104.547 45.7682 103.925 45.1613C103.303 44.5544 102.566 44.0777 101.757 43.7591C100.949 43.4405 100.085 43.2865 99.2159 43.3061ZM99.3678 53.699C98.6322 53.699 97.9131 53.4809 97.3015 53.0722C96.6899 52.6636 96.2133 52.0827 95.9318 51.4031C95.6503 50.7236 95.5766 49.9758 95.7201 49.2543C95.8636 48.5329 96.2178 47.8702 96.738 47.3501C97.2581 46.83 97.9208 46.4758 98.6422 46.3323C99.3636 46.1888 100.111 46.2624 100.791 46.5439C101.471 46.8254 102.051 47.3021 102.46 47.9137C102.869 48.5253 103.087 49.2443 103.087 49.9799C103.088 50.4685 102.992 50.9524 102.805 51.4039C102.618 51.8554 102.344 52.2657 101.999 52.6111C101.654 52.9566 101.243 53.2305 100.792 53.4172C100.34 53.6039 99.8563 53.6996 99.3678 53.699Z" fill="#E0E0E0"/>
<path d="M198.185 30.0712C198.567 27.3125 194.672 25.0438 191.746 24.8086C190.35 24.6959 188.9 24.9066 187.577 24.446C184.715 23.466 183.568 19.7469 180.775 18.566C178.683 17.684 176.277 18.468 174.253 19.4872C172.23 20.5064 170.226 21.7902 167.962 21.9372C166.002 22.0597 163.856 21.3296 162.136 22.2949C160.852 23.0103 160.176 24.4901 158.995 25.3623C157.814 26.2345 156.329 26.3962 154.894 26.4746C153.458 26.553 151.954 26.5677 150.66 27.1655C149.366 27.7633 148.274 29.1255 148.543 30.5563L198.185 30.0712Z" fill="#EBEBEB"/>
<path d="M112.582 15.3908C112.783 13.9208 110.71 12.7154 109.152 12.588C108.407 12.5292 107.638 12.6419 106.932 12.3969C105.408 11.8628 104.801 9.89789 103.311 9.26579C102.199 8.80029 100.92 9.21679 99.8421 9.75579C98.7641 10.2948 97.6959 10.9808 96.4905 11.0592C95.4468 11.1229 94.3051 10.7358 93.3888 11.2454C92.7077 11.6276 92.35 12.4165 91.7179 12.882C91.0632 13.2847 90.3058 13.489 89.5374 13.47C88.7695 13.454 88.0053 13.5802 87.2834 13.8424C86.9264 13.9815 86.6238 14.2321 86.4208 14.557C86.2177 14.8819 86.125 15.2637 86.1564 15.6456L112.582 15.3908Z" fill="#F5F5F5"/>
<path d="M351.223 15.3908C351.424 13.9208 349.351 12.7154 347.793 12.588C347.048 12.5292 346.279 12.6419 345.573 12.3969C344.049 11.8628 343.442 9.89789 341.952 9.26579C340.84 8.80029 339.561 9.21679 338.483 9.75579C337.405 10.2948 336.337 10.9808 335.131 11.0592C334.087 11.1229 332.946 10.7358 332.029 11.2454C331.348 11.6276 330.991 12.4165 330.359 12.882C329.704 13.2847 328.946 13.489 328.178 13.47C327.41 13.454 326.646 13.5802 325.924 13.8424C325.567 13.9815 325.264 14.2321 325.061 14.557C324.858 14.8819 324.766 15.2637 324.797 15.6456L351.223 15.3908Z" fill="#F5F5F5"/>
<path d="M66.4154 41.5813C66.7143 39.4106 63.6518 37.627 61.3537 37.4408C60.2561 37.3526 59.1144 37.5192 58.0756 37.1566C55.8265 36.3726 54.9249 33.462 52.7297 32.5359C51.0882 31.8499 49.1968 32.4624 47.6043 33.2611C46.0118 34.0598 44.434 35.0741 42.6553 35.1868C41.1069 35.2848 39.4311 34.6968 38.0738 35.4661C37.0644 36.0296 36.5352 37.1958 35.6238 37.8769C34.7124 38.558 33.5119 38.7099 32.38 38.754C31.2481 38.7981 30.0868 38.8275 29.0578 39.2979C28.0288 39.7683 27.1811 40.8561 27.3918 41.9635L66.4154 41.5813Z" fill="#F5F5F5"/>
<path d="M305.056 41.5813C305.355 39.4106 302.292 37.627 299.994 37.4408C298.897 37.3526 297.755 37.5192 296.716 37.1566C294.467 36.3726 293.565 33.462 291.37 32.5359C289.729 31.8499 287.837 32.4624 286.245 33.2611C284.652 34.0598 283.075 35.0741 281.296 35.1868C279.747 35.2848 278.072 34.6968 276.714 35.4661C275.705 36.0296 275.176 37.1958 274.264 37.8769C273.353 38.558 272.152 38.7099 271.021 38.754C269.889 38.7981 268.727 38.8275 267.698 39.2979C266.669 39.7683 265.822 40.8561 266.032 41.9635L305.056 41.5813Z" fill="#F5F5F5"/>
<path d="M239.586 36.9606C239.586 36.9606 239.301 36.8871 238.797 36.7842C238.083 36.642 237.351 36.6221 236.631 36.7254C235.566 36.8767 234.564 37.3155 233.73 37.9945C232.714 38.8283 231.996 39.9704 231.687 41.2481V41.2873L231.564 41.7773L231.378 41.3216C230.88 40.1072 230.026 39.0721 228.928 38.3522C228.032 37.7653 227.002 37.4162 225.934 37.3379C224.94 37.2854 223.944 37.4115 222.994 37.7103C223.224 37.5638 223.475 37.4546 223.739 37.3869C224.451 37.1629 225.198 37.0683 225.944 37.1076C227.06 37.1566 228.144 37.4943 229.09 38.0876C230.251 38.8284 231.154 39.9101 231.677 41.1844H231.368V41.1452C231.687 39.791 232.451 38.583 233.539 37.7152C234.418 37.0125 235.478 36.574 236.597 36.451C237.342 36.3617 238.097 36.4166 238.821 36.6127C239.094 36.6838 239.353 36.8015 239.586 36.9606Z" fill="#E0E0E0"/>
<path d="M25.2949 79.1054L42.8369 174.337L79.3272 180.952L112.02 159.916L146.986 168.359L183.246 145.094L165.494 54.7524L129.391 72.7501L98.2461 65.9881L64.3381 83.9417L25.2949 79.1054Z" fill="white"/>
<path d="M79.3802 181.212L42.6302 174.548L42.6008 174.381L25 78.8311L64.2931 83.7017L98.2158 65.7432L129.36 72.5199L165.674 54.3899L165.733 54.7035L183.52 145.211L183.378 145.3L147.03 168.619L146.932 168.594L112.063 160.176L79.3802 181.212ZM43.0467 174.126L79.2773 180.697L111.975 159.652L112.073 159.676L146.941 168.094L182.971 144.976L165.331 55.1151L129.424 73.0099H129.341L98.2795 66.2626L64.3813 84.2113H64.3176L25.6076 79.3799L43.0467 174.126Z" fill="#E0E0E0"/>
<path d="M29.0625 82.1434L45.6294 172.46L79.0817 177.522L111.681 155.879L145.913 164.027L179.831 143.531L163.857 58.5303L129.968 75.842L98.2162 70.3442L63.5438 87.2639L48.0353 84.9609L29.0625 82.1434Z" fill="#EBEBEB"/>
<path d="M54.1063 85.4411L54.2043 119.403L171.099 149.411L165.278 153.252L54.9638 124.582L54.0083 173.729L46.8984 172.651L48.0352 84.9609L54.1063 85.4411Z" fill="#FAFAFA"/>
<path d="M30.8906 90.2236L48.4473 94.1681L47.8397 99.7492L31.5178 95.5205L30.8906 90.2236Z" fill="#FAFAFA"/>
<path d="M35.0996 115.057L47.6779 112.283L47.5946 118.673L36.011 121.27L35.0996 115.057Z" fill="#FAFAFA"/>
<path d="M39.7344 140.311L47.3049 140.973L47.2608 144.628L40.3322 144.403L39.7344 140.311Z" fill="#FAFAFA"/>
<path d="M54.0078 173.73L63.7 175.195L65.9393 155.644L81.1587 157.192L82.614 175.175L89.0526 170.902L88.9203 133.407L54.9633 124.583L54.0078 173.73Z" fill="#E0E0E0"/>
<path d="M92.8054 134.417L92.6192 154.561L92.4869 168.619L89.052 170.902L88.6992 131.913L92.8054 134.417Z" fill="#FAFAFA"/>
<path d="M108.545 157.956L92.6203 154.561L92.5762 159.279L103.537 161.283L108.545 157.956Z" fill="#FAFAFA"/>
<path d="M72.0344 83.1185L69.4668 123.323L75.239 124.803L78.4926 79.9678L72.0344 83.1185Z" fill="#FAFAFA"/>
<path d="M89.3672 128.429L90.3472 78.2332L93.8213 79.62L93.5518 97.0835L129.66 107.54L138.24 72.853L144.845 69.1584L134.276 108.618L126.093 139.395C126.093 139.395 121.325 138.288 121.492 137.504C121.658 136.72 128.018 113.871 128.018 113.871L92.9932 102.513L92.3611 131.374L89.3672 128.429Z" fill="#FAFAFA"/>
<path d="M130.928 113.445L155.193 120.54L166.467 72.4268L164.336 61.8232L151.807 114.141L131.859 108.016L130.928 113.445Z" fill="#FAFAFA"/>
<path d="M117.443 157.613L121.486 137.504L126.288 138.65L122.02 158.995L117.443 157.613Z" fill="#FAFAFA"/>
<path d="M167.427 108.094L157.51 157.02L166.286 151.488L174.924 119.065L173.68 110.588L167.427 108.094Z" fill="#E0E0E0"/>
<path opacity="0.1" d="M63.5438 87.2641L79.0817 177.522L45.6294 172.46L29.0625 82.1436L63.5438 87.2641Z" fill="black"/>
<path d="M85.7852 76.4104L89.2103 77.7775L173.828 111.583L171.349 98.4065L98.2165 70.3442L85.7852 76.4104Z" fill="#E0E0E0"/>
<path opacity="0.1" d="M98.2148 70.3442L111.68 155.879L145.911 164.027L129.967 75.842L98.2148 70.3442Z" fill="black"/>
<path d="M275.795 210.274H229L231.636 207.672H277.338L275.795 210.274Z" fill="#E0E0E0"/>
<path d="M290.573 201H217L221.145 198H293L290.573 201Z" fill="#E0E0E0"/>
<path d="M291.194 228.908C291.194 228.977 243.664 229.036 185.055 229.036C126.446 229.036 78.9062 228.977 78.9062 228.908C78.9062 228.84 126.436 228.781 185.055 228.781C243.674 228.781 291.194 228.83 291.194 228.908Z" fill="#263238"/>
<path d="M146.991 73.5548C146.991 73.5891 146.433 73.3637 145.394 73.1334C143.926 72.8116 142.413 72.7518 140.925 72.957C138.715 73.2489 136.63 74.1498 134.903 75.5589C132.785 77.2818 131.291 79.6521 130.65 82.3062C130.65 82.3307 130.65 82.3552 130.65 82.3797L130.527 82.8697L130.341 82.4091C129.297 79.8971 127.515 77.7613 125.23 76.2841C123.37 75.0738 121.231 74.3603 119.017 74.2114C117.525 74.1053 116.026 74.2426 114.578 74.6181C113.554 74.8876 113.01 75.1081 113 75.1081C113.121 75.0336 113.249 74.9713 113.382 74.9219C113.763 74.745 114.156 74.5944 114.558 74.4711C116.015 74.0524 117.533 73.8866 119.047 73.9811C121.312 74.1025 123.507 74.8099 125.417 76.0342C127.76 77.5406 129.585 79.7298 130.645 82.3062L130.336 82.3356V82.2572C130.992 79.5342 132.53 77.1048 134.712 75.3482C136.489 73.9211 138.632 73.0229 140.896 72.7561C142.409 72.5681 143.944 72.6612 145.423 73.0305C145.824 73.1288 146.217 73.2549 146.599 73.4078C146.735 73.4431 146.866 73.4924 146.991 73.5548Z" fill="#263238"/>
<path d="M195.202 56.1648C195.202 56.1648 194.889 56.0766 194.315 55.9541C193.508 55.792 192.68 55.7688 191.865 55.8855C190.663 56.0508 189.53 56.546 188.592 57.3163C187.441 58.2566 186.629 59.547 186.279 60.9913V61.0305L186.157 61.5205L185.971 61.0599C185.408 59.6896 184.443 58.5225 183.202 57.7132C182.189 57.0496 181.024 56.655 179.816 56.5666C178.994 56.4999 178.167 56.5677 177.366 56.7675C176.803 56.9047 176.499 57.0272 176.489 57.0027C176.479 56.9782 176.558 56.9537 176.7 56.8851C176.904 56.7898 177.116 56.7095 177.332 56.645C178.333 56.3387 179.389 56.2528 180.427 56.3932C181.465 56.5336 182.46 56.897 183.344 57.4584C184.649 58.2936 185.665 59.5099 186.255 60.9423H185.946V60.8982C186.314 59.3828 187.176 58.0331 188.396 57.0615C189.384 56.2751 190.572 55.7811 191.826 55.6356C192.664 55.5391 193.513 55.5989 194.33 55.812C194.551 55.8691 194.767 55.9428 194.977 56.0325C195.134 56.1158 195.207 56.1501 195.202 56.1648Z" fill="#263238"/>
<path d="M162.46 39C162.46 39 162.157 39.3528 161.603 39.98C160.826 40.8638 160.125 41.8112 159.506 42.8122C157.448 46.1179 156.37 49.9388 156.394 53.8323C156.392 53.878 156.392 53.9238 156.394 53.9695H156.071C155.754 51.879 155.073 49.8605 154.057 48.0062C152.668 45.4589 150.707 43.2683 148.329 41.6068C147.965 41.3798 147.614 41.1345 147.275 40.8718C147.38 40.9093 147.481 40.9586 147.574 41.0188C147.765 41.1266 148.064 41.2687 148.402 41.5088C149.394 42.143 150.315 42.8805 151.151 43.7089C153.96 46.4602 155.8 50.0487 156.394 53.9352H156.071V53.798C156.042 49.8454 157.17 45.9707 159.315 42.6505C159.955 41.6499 160.692 40.7144 161.515 39.8575C161.799 39.5439 162.049 39.3332 162.206 39.1813C162.286 39.1147 162.371 39.0541 162.46 39Z" fill="#263238"/>
<path d="M333.604 184.024H202V187.072H333.604V184.024Z" fill="#E0E0E0"/>
<path d="M203.328 187.131C203.328 187.131 203.328 187.077 203.328 186.96C203.328 186.842 203.328 186.656 203.328 186.421C203.328 185.931 203.328 185.201 203.328 184.211V184.167H203.367C211.129 184.108 236.722 184.069 267.067 184.069L314.166 184.108L328.435 184.152L332.316 184.181H333.325C333.555 184.181 333.668 184.181 333.668 184.181C333.668 184.181 333.555 184.181 333.325 184.181H332.316L328.435 184.211L314.166 184.255L267.067 184.299C236.746 184.299 211.153 184.255 203.392 184.196L203.431 184.157C203.431 185.137 203.431 185.877 203.431 186.367C203.431 186.602 203.431 186.778 203.431 186.906C203.431 187.033 203.328 187.131 203.328 187.131Z" fill="#263238"/>
<path d="M218.998 184.24C219.187 185.194 219.187 186.177 218.998 187.131C218.808 186.177 218.808 185.194 218.998 184.24Z" fill="#263238"/>
<path d="M236.255 184.24C236.445 185.194 236.445 186.177 236.255 187.131C236.066 186.177 236.066 185.194 236.255 184.24Z" fill="#263238"/>
<path d="M253.513 184.24C253.703 185.194 253.703 186.177 253.513 187.131C253.324 186.177 253.324 185.194 253.513 184.24Z" fill="#263238"/>
<path d="M270.771 184.24C270.96 185.194 270.96 186.177 270.771 187.131C270.582 186.177 270.582 185.194 270.771 184.24Z" fill="#263238"/>
<path d="M288.029 184.24C288.218 185.194 288.218 186.177 288.029 187.131C287.839 186.177 287.839 185.194 288.029 184.24Z" fill="#263238"/>
<path d="M305.287 184.24C305.476 185.194 305.476 186.177 305.287 187.131C305.097 186.177 305.097 185.194 305.287 184.24Z" fill="#263238"/>
<path d="M322.525 184.24C322.714 185.194 322.714 186.177 322.525 187.131C322.335 186.177 322.335 185.194 322.525 184.24Z" fill="#263238"/>
<path d="M260.065 36.4021H225.191V183.877H260.065V36.4021Z" fill="#455A64"/>
<path d="M242.249 43.762H231.65V64.1852H242.249V43.762Z" fill="white"/>
<path d="M237.265 64.1901C237.187 64.1901 237.123 59.6135 237.123 53.9736C237.123 48.3337 237.187 43.762 237.265 43.762C237.344 43.762 237.402 48.3337 237.402 53.9736C237.402 59.6135 237.329 64.1901 237.265 64.1901Z" fill="#263238"/>
<path d="M242.249 50.8571C240.487 50.999 238.719 51.0464 236.952 50.9992C235.184 51.0465 233.414 50.999 231.65 50.8571C233.414 50.7151 235.184 50.6677 236.952 50.715C238.719 50.6677 240.487 50.7151 242.249 50.8571Z" fill="#263238"/>
<path d="M242.308 58.1629C240.53 58.3047 238.745 58.3522 236.962 58.305C235.18 58.3523 233.398 58.3048 231.621 58.1629C233.398 58.0211 235.18 57.9736 236.962 58.0208C238.745 57.9737 240.53 58.0211 242.308 58.1629Z" fill="#263238"/>
<path d="M242.292 70.7119H231.693V91.1351H242.292V70.7119Z" fill="white"/>
<path d="M237.291 91.14C237.212 91.14 237.148 86.5683 237.148 80.9284C237.148 75.2885 237.212 70.7168 237.291 70.7168C237.369 70.7168 237.433 75.2885 237.433 80.9284C237.433 86.5683 237.369 91.14 237.291 91.14Z" fill="#263238"/>
<path d="M242.292 77.807C240.529 77.9488 238.759 77.9962 236.99 77.9491C235.223 77.9964 233.455 77.9489 231.693 77.807C233.455 77.6651 235.223 77.6177 236.99 77.6649C238.759 77.6178 240.529 77.6652 242.292 77.807Z" fill="#263238"/>
<path d="M242.347 85.1129C240.57 85.2548 238.788 85.3023 237.006 85.255C235.223 85.3023 233.438 85.2549 231.66 85.1129C233.438 84.971 235.223 84.9235 237.006 84.9708C238.788 84.9236 240.57 84.971 242.347 85.1129Z" fill="#263238"/>
<path d="M242.292 97.4268H231.693V117.85H242.292V97.4268Z" fill="white"/>
<path d="M237.291 117.85C237.212 117.85 237.148 113.278 237.148 107.638C237.148 101.998 237.212 97.4268 237.291 97.4268C237.369 97.4268 237.433 101.998 237.433 107.638C237.433 113.278 237.369 117.85 237.291 117.85Z" fill="#263238"/>
<path d="M242.292 104.522C240.529 104.664 238.759 104.711 236.99 104.664C235.223 104.711 233.455 104.664 231.693 104.522C233.455 104.38 235.223 104.332 236.99 104.38C238.759 104.333 240.529 104.38 242.292 104.522Z" fill="#263238"/>
<path d="M242.347 111.828C240.57 111.97 238.788 112.017 237.006 111.97C235.223 112.017 233.438 111.97 231.66 111.828C233.438 111.686 235.223 111.638 237.006 111.686C238.788 111.638 240.57 111.686 242.347 111.828Z" fill="#263238"/>
<path d="M242.292 124.911H231.693V145.334H242.292V124.911Z" fill="white"/>
<path d="M237.291 145.339C237.212 145.339 237.148 140.767 237.148 135.127C237.148 129.487 237.212 124.911 237.291 124.911C237.369 124.911 237.433 129.483 237.433 135.127C237.433 140.772 237.369 145.339 237.291 145.339Z" fill="#263238"/>
<path d="M242.292 132.006C240.529 132.148 238.759 132.195 236.99 132.148C235.223 132.195 233.455 132.148 231.693 132.006C233.456 131.87 235.223 131.825 236.99 131.869C238.759 131.825 240.528 131.87 242.292 132.006Z" fill="#263238"/>
<path d="M242.347 139.312C240.57 139.454 238.788 139.501 237.006 139.454C235.223 139.501 233.438 139.454 231.66 139.312C233.438 139.17 235.223 139.123 237.006 139.17C238.788 139.123 240.57 139.17 242.347 139.312Z" fill="#263238"/>
<path d="M274.898 36.4021H249.486V183.877H274.898V36.4021Z" fill="#455A64"/>
<g opacity="0.3">
<path d="M274.898 36.4021H249.486V183.877H274.898V36.4021Z" fill="black"/>
</g>
<path d="M267.298 43.762H256.699V64.1852H267.298V43.762Z" fill="white"/>
<path d="M262.3 64.1901C262.222 64.1901 262.158 59.6135 262.158 53.9736C262.158 48.3337 262.222 43.762 262.3 43.762C262.379 43.762 262.442 48.3337 262.442 53.9736C262.442 59.6135 262.379 64.1901 262.3 64.1901Z" fill="#263238"/>
<path d="M267.298 50.8571C265.536 50.999 263.768 51.0464 262.001 50.9992C260.232 51.0465 258.463 50.999 256.699 50.8571C258.463 50.7151 260.232 50.6677 262.001 50.715C263.768 50.6677 265.536 50.7151 267.298 50.8571Z" fill="#263238"/>
<path d="M267.357 58.1629C265.579 58.3047 263.794 58.3522 262.011 58.305C260.229 58.3523 258.446 58.3048 256.67 58.1629C258.446 58.0211 260.229 57.9736 262.011 58.0208C263.794 57.9737 265.579 58.0211 267.357 58.1629Z" fill="#263238"/>
<path d="M267.341 71.4812H256.742V91.9044H267.341V71.4812Z" fill="white"/>
<path d="M262.339 91.9093C262.261 91.9093 262.197 87.3327 262.197 81.6928C262.197 76.0529 262.261 71.4812 262.339 71.4812C262.418 71.4812 262.481 76.0529 262.481 81.6928C262.481 87.3327 262.418 91.9093 262.339 91.9093Z" fill="#263238"/>
<path d="M267.341 78.5763C265.577 78.7181 263.808 78.7655 262.039 78.7184C260.272 78.7656 258.504 78.7182 256.742 78.5763C258.504 78.4344 260.272 78.3869 262.039 78.4342C263.808 78.3871 265.577 78.4345 267.341 78.5763Z" fill="#263238"/>
<path d="M267.396 85.8822C265.619 86.0241 263.836 86.0715 262.055 86.0243C260.272 86.0716 258.487 86.0242 256.709 85.8822C258.487 85.7403 260.272 85.6928 262.055 85.7401C263.836 85.6929 265.619 85.7403 267.396 85.8822Z" fill="#263238"/>
<path d="M267.341 97.4268H256.742V117.85H267.341V97.4268Z" fill="white"/>
<path d="M262.339 117.85C262.261 117.85 262.197 113.278 262.197 107.638C262.197 101.998 262.261 97.4268 262.339 97.4268C262.418 97.4268 262.481 101.998 262.481 107.638C262.481 113.278 262.418 117.85 262.339 117.85Z" fill="#263238"/>
<path d="M267.341 104.522C265.577 104.664 263.808 104.711 262.039 104.664C260.272 104.711 258.504 104.664 256.742 104.522C258.504 104.38 260.272 104.332 262.039 104.38C263.808 104.333 265.577 104.38 267.341 104.522Z" fill="#263238"/>
<path d="M267.396 111.828C265.619 111.97 263.836 112.017 262.055 111.97C260.272 112.017 258.487 111.97 256.709 111.828C258.487 111.686 260.272 111.638 262.055 111.686C263.836 111.638 265.619 111.686 267.396 111.828Z" fill="#263238"/>
<path d="M267.773 125.357H257.174V145.78H267.773V125.357Z" fill="white"/>
<path d="M262.77 145.78C262.692 145.78 262.633 141.208 262.633 135.568C262.633 129.928 262.692 125.357 262.77 125.357C262.848 125.357 262.912 129.928 262.912 135.568C262.912 141.208 262.848 145.78 262.77 145.78Z" fill="#263238"/>
<path d="M267.773 132.452C266.011 132.594 264.243 132.641 262.476 132.594C260.707 132.641 258.937 132.594 257.174 132.452C258.937 132.31 260.707 132.262 262.476 132.31C264.243 132.262 266.011 132.31 267.773 132.452Z" fill="#263238"/>
<path d="M267.827 139.758C266.05 139.9 264.267 139.947 262.486 139.9C260.704 139.947 258.921 139.9 257.145 139.758C258.921 139.616 260.704 139.568 262.486 139.616C264.267 139.568 266.05 139.616 267.827 139.758Z" fill="#263238"/>
<path d="M242.292 153.047H231.693V173.47H242.292V153.047Z" fill="white"/>
<path d="M237.291 173.46C237.212 173.46 237.148 168.883 237.148 163.244C237.148 157.604 237.212 153.032 237.291 153.032C237.369 153.032 237.433 157.604 237.433 163.244C237.433 168.883 237.369 173.46 237.291 173.46Z" fill="#263238"/>
<path d="M242.292 160.142C240.529 160.284 238.759 160.331 236.99 160.284C235.223 160.331 233.455 160.284 231.693 160.142C233.455 160 235.223 159.952 236.99 160C238.759 159.952 240.529 160 242.292 160.142Z" fill="#263238"/>
<path d="M242.347 167.448C240.57 167.59 238.788 167.637 237.006 167.59C235.223 167.637 233.438 167.59 231.66 167.448C233.438 167.306 235.223 167.258 237.006 167.306C238.788 167.258 240.57 167.306 242.347 167.448Z" fill="#263238"/>
<path d="M267.341 153.924H256.742V174.347H267.341V153.924Z" fill="white"/>
<path d="M262.339 174.347C262.261 174.347 262.197 169.775 262.197 164.135C262.197 158.495 262.261 153.924 262.339 153.924C262.418 153.924 262.481 158.495 262.481 164.135C262.481 169.775 262.418 174.347 262.339 174.347Z" fill="#263238"/>
<path d="M267.341 161.019C265.577 161.161 263.808 161.208 262.039 161.161C260.272 161.208 258.504 161.161 256.742 161.019C258.504 160.877 260.272 160.83 262.039 160.877C263.808 160.83 265.577 160.877 267.341 161.019Z" fill="#263238"/>
<path d="M267.396 168.325C265.619 168.467 263.836 168.514 262.055 168.467C260.272 168.514 258.487 168.467 256.709 168.325C258.487 168.183 260.272 168.135 262.055 168.183C263.836 168.136 265.619 168.183 267.396 168.325Z" fill="#263238"/>
<path d="M292.254 118.227H304.611V100.367H292.254V118.227Z" fill="#6691FF"/>
<g opacity="0.3">
<path d="M292.254 118.227H304.611V100.367H292.254V118.227Z" fill="black"/>
</g>
<path d="M281.134 118.227H293.492V100.367H281.134V118.227Z" fill="#6691FF"/>
<path d="M284.085 114.621C284.085 114.621 284.085 114.562 284.085 114.44C284.085 114.317 284.085 114.116 284.085 113.891C284.085 113.401 284.085 112.681 284.085 111.794C284.085 109.976 284.061 107.423 284.041 104.444V104.37H289.696L289.784 104.463V107.31C289.784 108.236 289.784 109.128 289.784 109.99C289.784 111.705 289.784 113.273 289.784 114.631V114.699H289.696L285.575 114.665H284.462H284.178C284.115 114.665 284.085 114.665 284.085 114.665H284.193H284.492H285.619L289.696 114.631L289.627 114.694C289.627 113.337 289.627 111.754 289.627 110.054C289.627 109.192 289.627 108.3 289.627 107.374V104.527C289.549 104.444 289.735 104.63 289.715 104.61H284.085L284.168 104.527C284.168 107.467 284.139 110.015 284.129 111.823C284.129 112.715 284.129 113.43 284.105 113.935C284.105 114.17 284.105 114.361 284.105 114.503C284.101 114.543 284.094 114.582 284.085 114.621Z" fill="#263238"/>
<path d="M285.207 110.083C285.207 110.083 285.344 110.083 285.412 110.226C285.432 110.274 285.44 110.327 285.435 110.379C285.43 110.431 285.412 110.481 285.383 110.524C285.339 110.576 285.281 110.613 285.216 110.631C285.151 110.649 285.082 110.647 285.018 110.624C284.954 110.602 284.899 110.561 284.859 110.506C284.819 110.452 284.797 110.386 284.795 110.319C284.8 110.266 284.818 110.215 284.847 110.171C284.876 110.127 284.916 110.09 284.962 110.064C285.118 109.981 285.226 110.064 285.207 110.064C285.187 110.064 285.113 110.064 285.03 110.147C285.005 110.165 284.985 110.189 284.973 110.217C284.961 110.246 284.957 110.277 284.962 110.307C284.968 110.338 284.981 110.366 285.002 110.389C285.023 110.412 285.049 110.428 285.079 110.436C285.231 110.495 285.314 110.358 285.29 110.24C285.265 110.123 285.202 110.108 285.207 110.083Z" fill="#263238"/>
<path d="M268.542 183.99H319.791V114.915H268.542V183.99Z" fill="#6691FF"/>
<path d="M299.27 183.99L326.759 184.024V114.92H299.27V183.99Z" fill="#6691FF"/>
<g opacity="0.3">
<path d="M299.27 183.99L326.759 184.024V114.92H299.27V183.99Z" fill="black"/>
</g>
<path d="M272.306 161.769H281.68V152.395H272.306V161.769Z" fill="#EBEBEB"/>
<path d="M276.631 162.709C276.582 162.709 276.543 160.284 276.543 157.319C276.543 154.355 276.582 151.929 276.631 151.929C276.68 151.929 276.719 154.35 276.719 157.319C276.719 160.289 276.68 162.709 276.631 162.709Z" fill="#455A64"/>
<path d="M270.547 155.536C270.547 155.487 273.271 155.448 276.633 155.448C279.994 155.448 282.723 155.487 282.723 155.536C282.723 155.585 279.999 155.624 276.633 155.624C273.266 155.624 270.547 155.585 270.547 155.536Z" fill="#455A64"/>
<path d="M285.677 161.769H295.051V152.395H285.677V161.769Z" fill="#EBEBEB"/>
<path d="M290.003 162.709C289.954 162.709 289.91 160.284 289.91 157.319C289.91 154.355 289.954 151.929 290.003 151.929C290.052 151.929 290.091 154.35 290.091 157.319C290.091 160.289 290.052 162.709 290.003 162.709Z" fill="#455A64"/>
<path d="M283.914 155.536C283.914 155.487 286.638 155.448 290 155.448C293.361 155.448 296.091 155.487 296.091 155.536C296.091 155.585 293.366 155.624 290 155.624C286.634 155.624 283.914 155.585 283.914 155.536Z" fill="#455A64"/>
<path d="M272.306 146.961H281.68V137.587H272.306V146.961Z" fill="#EBEBEB"/>
<path d="M276.631 147.902C276.582 147.902 276.543 145.476 276.543 142.512C276.543 139.547 276.582 137.122 276.631 137.122C276.68 137.122 276.719 139.542 276.719 142.512C276.719 145.481 276.68 147.902 276.631 147.902Z" fill="#455A64"/>
<path d="M270.547 140.728C270.547 140.679 273.271 140.64 276.633 140.64C279.994 140.64 282.723 140.679 282.723 140.728C282.723 140.777 279.999 140.816 276.633 140.816C273.266 140.816 270.547 140.777 270.547 140.728Z" fill="#455A64"/>
<path d="M285.677 146.961H295.051V137.587H285.677V146.961Z" fill="#EBEBEB"/>
<path d="M290.003 147.902C289.954 147.902 289.91 145.476 289.91 142.512C289.91 139.547 289.954 137.122 290.003 137.122C290.052 137.122 290.091 139.542 290.091 142.512C290.091 145.481 290.052 147.902 290.003 147.902Z" fill="#455A64"/>
<path d="M283.914 140.728C283.914 140.679 286.638 140.64 290 140.64C293.361 140.64 296.091 140.679 296.091 140.728C296.091 140.777 293.366 140.816 290 140.816C286.634 140.816 283.914 140.777 283.914 140.728Z" fill="#455A64"/>
<path d="M272.306 132.114H281.68V122.74H272.306V132.114Z" fill="#EBEBEB"/>
<path d="M276.631 133.06C276.582 133.06 276.543 130.634 276.543 127.67C276.543 124.705 276.582 122.28 276.631 122.28C276.68 122.28 276.719 124.7 276.719 127.67C276.719 130.639 276.68 133.06 276.631 133.06Z" fill="#455A64"/>
<path d="M270.547 125.886C270.547 125.837 273.271 125.798 276.633 125.798C279.994 125.798 282.723 125.837 282.723 125.886C282.723 125.935 279.999 125.974 276.633 125.974C273.266 125.974 270.547 125.93 270.547 125.886Z" fill="#455A64"/>
<path d="M285.677 132.114H295.051V122.74H285.677V132.114Z" fill="#EBEBEB"/>
<path d="M290.003 133.06C289.954 133.06 289.91 130.634 289.91 127.67C289.91 124.705 289.954 122.28 290.003 122.28C290.052 122.28 290.091 124.7 290.091 127.67C290.091 130.639 290.052 133.06 290.003 133.06Z" fill="#455A64"/>
<path d="M283.914 125.886C283.914 125.837 286.638 125.798 290 125.798C293.361 125.798 296.091 125.837 296.091 125.886C296.091 125.935 293.366 125.974 290 125.974C286.634 125.974 283.914 125.93 283.914 125.886Z" fill="#455A64"/>
<g opacity="0.7">
<path d="M308.683 132.114H318.057V122.74H308.683V132.114Z" fill="white"/>
</g>
<path d="M313.371 133.06C313.322 133.06 313.283 130.634 313.283 127.67C313.283 124.705 313.322 122.28 313.371 122.28C313.42 122.28 313.46 124.7 313.46 127.67C313.46 130.639 313.42 133.06 313.371 133.06Z" fill="#263238"/>
<path d="M306.924 125.886C306.924 125.837 309.653 125.798 313.015 125.798C316.376 125.798 319.1 125.837 319.1 125.886C319.1 125.935 316.376 125.974 313.015 125.974C309.653 125.974 306.924 125.93 306.924 125.886Z" fill="#263238"/>
<g opacity="0.7">
<path d="M308.683 147.103H318.057V137.729H308.683V147.103Z" fill="white"/>
</g>
<path d="M313.371 148.049C313.322 148.049 313.283 145.623 313.283 142.659C313.283 139.694 313.322 137.269 313.371 137.269C313.42 137.269 313.46 139.689 313.46 142.659C313.46 145.628 313.42 148.049 313.371 148.049Z" fill="#263238"/>
<path d="M306.924 140.875C306.924 140.826 309.653 140.787 313.015 140.787C316.376 140.787 319.1 140.826 319.1 140.875C319.1 140.924 316.376 140.963 313.015 140.963C309.653 140.963 306.924 140.924 306.924 140.875Z" fill="#263238"/>
<g opacity="0.7">
<path d="M308.683 162.097H318.057V152.723H308.683V162.097Z" fill="white"/>
</g>
<path d="M313.371 163.033C313.322 163.033 313.283 160.612 313.283 157.643C313.283 154.673 313.322 152.253 313.371 152.253C313.42 152.253 313.46 154.678 313.46 157.643C313.46 160.607 313.42 163.033 313.371 163.033Z" fill="#263238"/>
<path d="M306.924 155.864C306.924 155.815 309.653 155.776 313.015 155.776C316.376 155.776 319.1 155.815 319.1 155.864C319.1 155.913 316.376 155.952 313.015 155.952C309.653 155.952 306.924 155.913 306.924 155.864Z" fill="#263238"/>
<path d="M279.155 183.681C279.155 183.681 279.155 183.652 279.155 183.598C279.155 183.544 279.155 183.451 279.155 183.348C279.155 183.116 279.155 182.798 279.155 182.393C279.155 181.545 279.155 180.335 279.13 178.825C279.13 175.773 279.13 171.52 279.096 166.644V166.561H288.896V166.644C288.896 171.544 288.896 175.851 288.866 178.933C288.866 180.457 288.866 181.682 288.866 182.535C288.866 182.951 288.866 183.27 288.866 183.515C288.866 183.618 288.866 183.701 288.866 183.765C288.866 183.828 288.866 183.848 288.866 183.848C288.864 183.82 288.864 183.792 288.866 183.765C288.866 183.701 288.866 183.618 288.866 183.515C288.866 183.28 288.866 182.961 288.866 182.535C288.866 181.682 288.866 180.457 288.866 178.933C288.866 175.851 288.866 171.559 288.837 166.644L288.92 166.732H279.316L279.404 166.644C279.404 171.544 279.38 175.773 279.37 178.825C279.37 180.335 279.37 181.545 279.346 182.393C279.346 182.801 279.346 183.12 279.346 183.348C279.346 183.451 279.346 183.534 279.346 183.598C279.346 183.662 279.155 183.681 279.155 183.681Z" fill="#263238"/>
<path d="M284.281 175.493H287.555V167.658H284.281V175.493Z" fill="#E0E0E0"/>
<path d="M287.564 175.503H284.271V167.663H287.564V175.503ZM284.286 175.503H287.545V167.663H284.306L284.286 175.503Z" fill="#263238"/>
<path d="M280.365 175.493H283.639V167.658H280.365V175.493Z" fill="#E0E0E0"/>
<path d="M283.648 175.503H280.355V167.663H283.648V175.503ZM280.37 175.503H283.629V167.663H280.385L280.37 175.503Z" fill="#263238"/>
<path d="M280.297 176.307C280.297 176.331 280.136 176.331 280.062 176.518C280.04 176.567 280.029 176.62 280.029 176.674C280.029 176.728 280.04 176.782 280.062 176.831C280.093 176.885 280.14 176.929 280.195 176.957C280.251 176.985 280.314 176.995 280.376 176.988C280.436 176.971 280.49 176.937 280.532 176.89C280.574 176.843 280.601 176.785 280.611 176.723C280.62 176.671 280.615 176.617 280.596 176.567C280.577 176.517 280.545 176.473 280.503 176.439C280.346 176.312 280.199 176.341 280.194 176.317C280.19 176.292 280.346 176.199 280.577 176.341C280.644 176.383 280.698 176.442 280.733 176.514C280.768 176.585 280.782 176.664 280.773 176.743C280.773 176.85 280.735 176.953 280.666 177.035C280.597 177.116 280.502 177.17 280.396 177.188C280.291 177.206 280.183 177.185 280.091 177.131C280 177.076 279.93 176.991 279.896 176.89C279.865 176.818 279.853 176.741 279.859 176.663C279.865 176.585 279.889 176.51 279.93 176.444C279.955 176.399 279.989 176.36 280.03 176.329C280.072 176.299 280.119 176.278 280.17 176.268C280.263 176.278 280.297 176.292 280.297 176.307Z" fill="#263238"/>
<path d="M270.222 166.644C270.22 166.608 270.22 166.572 270.222 166.536C270.222 166.443 270.222 166.335 270.222 166.208C270.222 165.885 270.222 165.468 270.222 164.958H270.247H275.715L275.75 164.993V166.698H275.715H271.795H270.654H271.805H275.725L275.691 166.732V165.061C275.759 165.135 275.691 165.061 275.725 165.101H270.257V165.076C270.257 165.566 270.257 165.992 270.257 166.311C270.257 166.438 270.257 166.551 270.257 166.644C270.257 166.737 270.222 166.644 270.222 166.644Z" fill="#263238"/>
<path d="M291.498 163.17C291.496 163.132 291.496 163.095 291.498 163.057C291.498 162.964 291.498 162.856 291.498 162.729C291.498 162.411 291.498 161.994 291.498 161.484V161.46H291.522H296.991C296.991 161.46 296.956 161.421 297.025 161.494V163.209H296.991H293.071H291.929H293.075H296.995L296.961 163.248V161.568L296.995 161.602H291.527C291.527 162.092 291.527 162.518 291.527 162.832C291.527 162.964 291.527 163.072 291.527 163.165C291.527 163.258 291.498 163.17 291.498 163.17Z" fill="#263238"/>
<path d="M294.908 149.45C294.908 149.45 294.908 149.416 294.908 149.342V149.014C294.908 148.695 294.908 148.279 294.908 147.764H300.377L300.416 147.799V149.504H300.381H296.461H295.32H296.466H300.386L300.352 149.538C300.352 149.274 300.352 148.994 300.352 148.715V147.867C300.426 147.941 300.352 147.867 300.386 147.907H294.918L294.942 147.882C294.942 148.372 294.942 148.803 294.942 149.117V149.45C294.931 149.45 294.92 149.45 294.908 149.45Z" fill="#263238"/>
<path d="M275.246 134.701V134.588C275.246 134.495 275.246 134.387 275.246 134.26C275.246 133.941 275.246 133.525 275.246 133.015H280.719L280.754 133.05V134.75H280.719H276.799H275.658H276.804H280.724L280.69 134.789C280.69 134.52 280.69 134.245 280.69 133.961V133.108L280.729 133.143H275.256H275.28C275.28 133.633 275.28 134.059 275.28 134.373V134.706C275.251 134.657 275.246 134.701 275.246 134.701Z" fill="#263238"/>
<path d="M290.812 118.952C290.81 118.917 290.81 118.881 290.812 118.845C290.812 118.752 290.812 118.644 290.812 118.516C290.812 118.19 290.812 117.773 290.812 117.267H296.281L296.315 117.301V119.006H296.281H292.361H291.219H292.366H296.286L296.251 119.041V117.37C296.32 117.443 296.251 117.37 296.286 117.409H290.817V117.384C290.817 117.874 290.817 118.306 290.817 118.619C290.817 118.747 290.817 118.859 290.817 118.952C290.817 119.046 290.812 118.952 290.812 118.952Z" fill="#263238"/>
<path d="M271.933 136.328C271.931 136.292 271.931 136.256 271.933 136.22V135.892C271.933 135.573 271.933 135.157 271.933 134.647V134.622H271.958H277.426C277.426 134.622 277.392 134.588 277.465 134.662V135.509C277.465 135.794 277.465 136.068 277.465 136.333V136.367H277.431H273.511H272.374H273.521H277.441L277.407 136.401V134.73L277.441 134.765H271.973H271.997C271.997 135.255 271.997 135.681 271.997 135.995C271.997 136.127 271.997 136.235 271.997 136.328C271.976 136.328 271.955 136.328 271.933 136.328Z" fill="#263238"/>
<path d="M297.256 151.101C297.256 151.101 297.256 151.067 297.256 150.994C297.256 150.92 297.256 150.793 297.256 150.665C297.256 150.342 297.256 149.925 297.256 149.416H302.724L302.763 149.45V150.298C302.763 150.577 302.763 150.851 302.763 151.121V151.155H302.729H298.809H297.672H298.819H302.739L302.705 151.19V149.45L302.739 149.484H297.271L297.295 149.46C297.295 149.963 297.295 150.375 297.295 150.695C297.295 150.822 297.295 150.93 297.295 151.028C297.295 151.126 297.256 151.101 297.256 151.101Z" fill="#263238"/>
<path d="M294.908 120.638C294.908 120.638 294.908 120.604 294.908 120.53V120.202C294.908 119.878 294.908 119.462 294.908 118.952H300.377L300.416 118.987V120.692H300.381H296.461H295.32H296.466H300.386L300.352 120.726C300.352 120.457 300.352 120.182 300.352 119.903V119.055L300.386 119.09H294.918L294.942 119.065C294.942 119.571 294.942 119.983 294.942 120.3V120.54C294.913 120.594 294.908 120.638 294.908 120.638Z" fill="#263238"/>
<path d="M268.449 168.33C268.447 168.294 268.447 168.258 268.449 168.222C268.449 168.129 268.449 168.021 268.449 167.894C268.449 167.575 268.449 167.159 268.449 166.644H268.473H273.942L273.976 166.678V168.384H273.942H270.022H268.88H270.032H273.952L273.917 168.418V167.595C273.917 167.453 273.917 167.31 273.917 167.168V166.747L273.957 166.786H268.488V166.762C268.488 167.252 268.488 167.683 268.488 167.996C268.488 168.124 268.488 168.237 268.488 168.33H268.449Z" fill="#263238"/>
<path d="M317.374 56.0071H270.152V88.8763H287.812L293.839 95.4276L299.837 88.8763H317.374V56.0071Z" fill="white"/>
<path d="M317.373 56.007C317.373 56.007 317.373 56.1981 317.373 56.5852C317.373 56.9723 317.373 57.5652 317.373 58.3002C317.373 59.8192 317.373 62.0389 317.398 64.8858C317.398 70.609 317.427 78.8312 317.452 88.8958V88.9938H317.349H299.812L299.895 88.9546L293.902 95.5108L293.814 95.6088L293.726 95.5108L287.694 88.9595L287.787 88.9987H270V88.8713C270 77.0672 270 65.9099 270 56.0021V55.8845H270.137L304.285 55.9433L313.943 55.9727H316.491H317.177H317.393H317.167H316.501H313.928L304.246 56.007L270.172 56.0609L270.284 55.9482C270.284 65.856 270.284 77.0182 270.284 88.8174L270.157 88.69H287.875L287.909 88.7292L293.932 95.2854H293.755L299.753 88.7341L299.787 88.6998H299.841H317.378L317.28 88.8027C317.28 78.7871 317.319 70.5845 317.334 64.876C317.334 62.0193 317.334 59.7898 317.358 58.2659C317.358 57.5113 317.358 56.9331 317.358 56.5313C317.358 56.1295 317.373 56.007 317.373 56.007Z" fill="#263238"/>
<path d="M293.575 35.5053C291.742 35.5462 289.955 36.0874 288.407 37.0706C286.86 38.0537 285.611 39.4412 284.795 41.0831C283.979 42.725 283.627 44.5587 283.778 46.3859C283.929 48.2131 284.577 49.9643 285.652 51.4499L285.75 51.5822L292.879 61.2499C293.024 61.4471 293.215 61.6065 293.435 61.7146C293.655 61.8227 293.898 61.8764 294.143 61.8711C294.388 61.8658 294.628 61.8018 294.843 61.6843C295.058 61.5668 295.241 61.3993 295.378 61.196L301.817 51.6263C303.032 49.7692 303.87 47.8288 303.87 45.5405C303.868 44.2013 303.598 42.876 303.076 41.6425C302.555 40.4089 301.792 39.292 300.833 38.3572C299.874 37.4224 298.738 36.6886 297.492 36.1989C296.245 35.7091 294.914 35.4733 293.575 35.5053ZM293.815 52.8709C292.32 52.8709 290.858 52.4275 289.614 51.5967C288.371 50.7659 287.402 49.5851 286.83 48.2036C286.258 46.822 286.108 45.3018 286.4 43.8352C286.691 42.3686 287.411 41.0214 288.469 39.964C289.526 38.9066 290.873 38.1865 292.34 37.8948C293.807 37.6031 295.327 37.7528 296.708 38.325C298.09 38.8973 299.271 39.8664 300.101 41.1097C300.932 42.3531 301.376 43.8148 301.376 45.3102C301.376 47.3154 300.579 49.2385 299.161 50.6564C297.743 52.0743 295.82 52.8709 293.815 52.8709Z" fill="#6691FF"/>
<g opacity="0.3">
<path d="M293.575 35.5053C291.742 35.5462 289.955 36.0874 288.407 37.0706C286.86 38.0537 285.611 39.4412 284.795 41.0831C283.979 42.725 283.627 44.5587 283.778 46.3859C283.929 48.2131 284.577 49.9643 285.652 51.4499L285.75 51.5822L292.879 61.2499C293.024 61.4471 293.215 61.6065 293.435 61.7146C293.655 61.8227 293.898 61.8764 294.143 61.8711C294.388 61.8658 294.628 61.8018 294.843 61.6843C295.058 61.5668 295.241 61.3993 295.378 61.196L301.817 51.6263C303.032 49.7692 303.87 47.8288 303.87 45.5405C303.868 44.2013 303.598 42.876 303.076 41.6425C302.555 40.4089 301.792 39.292 300.833 38.3572C299.874 37.4224 298.738 36.6886 297.492 36.1989C296.245 35.7091 294.914 35.4733 293.575 35.5053ZM293.815 52.8709C292.32 52.8709 290.858 52.4275 289.614 51.5967C288.371 50.7659 287.402 49.5851 286.83 48.2036C286.258 46.822 286.108 45.3018 286.4 43.8352C286.691 42.3686 287.411 41.0214 288.469 39.964C289.526 38.9066 290.873 38.1865 292.34 37.8948C293.807 37.6031 295.327 37.7528 296.708 38.325C298.09 38.8973 299.271 39.8664 300.101 41.1097C300.932 42.3531 301.376 43.8148 301.376 45.3102C301.376 47.3154 300.579 49.2385 299.161 50.6564C297.743 52.0743 295.82 52.8709 293.815 52.8709Z" fill="black"/>
</g>
<path d="M292.977 35.5053C291.144 35.5462 289.357 36.0874 287.81 37.0706C286.262 38.0537 285.013 39.4412 284.197 41.0831C283.381 42.725 283.03 44.5587 283.181 46.3859C283.332 48.2131 283.979 49.9643 285.054 51.4499L285.152 51.5822L292.281 61.2499C292.427 61.4471 292.618 61.6065 292.839 61.7146C293.059 61.8226 293.302 61.8763 293.547 61.871C293.793 61.8657 294.033 61.8017 294.248 61.6842C294.464 61.5668 294.648 61.3993 294.785 61.196L301.219 51.6263C302.439 49.7692 303.272 47.8288 303.272 45.5405C303.27 44.2013 303 42.876 302.479 41.6425C301.957 40.4089 301.195 39.292 300.236 38.3572C299.277 37.4224 298.141 36.6886 296.894 36.1989C295.648 35.7091 294.316 35.4733 292.977 35.5053ZM293.217 51.5087C292.084 51.5097 290.976 51.1746 290.034 50.5457C289.091 49.9169 288.356 49.0226 287.922 47.9761C287.487 46.9295 287.373 45.7776 287.594 44.6661C287.814 43.5547 288.359 42.5335 289.16 41.732C289.961 40.9304 290.982 40.3844 292.093 40.1629C293.204 39.9415 294.356 40.0547 295.403 40.4881C296.45 40.9215 297.345 41.6557 297.975 42.5977C298.604 43.5398 298.941 44.6475 298.941 45.7806C298.941 47.2989 298.338 48.7552 297.265 49.8293C296.191 50.9033 294.736 51.5074 293.217 51.5087Z" fill="#6691FF"/>
<path d="M113.677 219.125H59L62.076 216.088H115.473L113.677 219.125Z" fill="#E0E0E0"/>
<path d="M181.961 155.051C182.305 154.884 182.632 154.685 182.938 154.456C183.527 154.063 184.33 153.513 185.183 152.89L185.626 152.576L185.464 152.537C185.935 153.362 186.356 154.086 186.67 154.597C186.827 154.884 187.015 155.153 187.232 155.399C187.131 155.092 186.993 154.798 186.822 154.524C186.547 153.99 186.143 153.249 185.699 152.424L185.632 152.312L185.531 152.385L185.082 152.699C184.206 153.322 183.398 153.895 182.837 154.322C182.519 154.532 182.226 154.777 181.961 155.051Z" fill="#263238"/>
<path d="M246.627 217.079C247.337 206.939 239.692 198.143 229.552 197.433C219.412 196.723 210.616 204.368 209.906 214.508C209.197 224.649 216.841 233.444 226.982 234.154C237.122 234.864 245.917 227.219 246.627 217.079Z" fill="#263238"/>
<path d="M209.112 215.454V215.504C209.09 220.342 210.979 224.993 214.368 228.446C217.756 231.898 222.371 233.874 227.208 233.944C232.045 234.013 236.715 232.171 240.201 228.817C243.687 225.463 245.709 220.868 245.827 216.032C245.827 216.032 245.827 215.998 245.827 215.987L209.112 215.454Z" fill="#263238"/>
<path d="M214.58 215.583C214.539 218.138 215.257 220.648 216.643 222.794C218.03 224.94 220.022 226.627 222.367 227.641C224.713 228.654 227.306 228.949 229.819 228.488C232.333 228.026 234.652 226.83 236.485 225.049C238.318 223.268 239.58 220.984 240.114 218.485C240.647 215.986 240.427 213.385 239.482 211.011C238.536 208.638 236.907 206.598 234.801 205.151C232.696 203.703 230.208 202.913 227.653 202.881C224.236 202.837 220.942 204.15 218.492 206.531C216.041 208.912 214.634 212.167 214.58 215.583Z" fill="#FAFAFA"/>
<path d="M227.653 202.881C224.237 202.837 220.942 204.15 218.492 206.531C216.041 208.912 214.635 212.167 214.58 215.583L240.355 215.954C240.399 212.537 239.086 209.243 236.705 206.792C234.324 204.342 231.069 202.935 227.653 202.881Z" fill="#E0E0E0"/>
<path d="M219.614 215.656C219.591 217.21 220.029 218.737 220.874 220.042C221.718 221.347 222.931 222.373 224.359 222.989C225.786 223.604 227.364 223.783 228.893 223.502C230.422 223.221 231.833 222.492 232.948 221.409C234.063 220.325 234.832 218.935 235.157 217.415C235.481 215.895 235.348 214.312 234.773 212.868C234.198 211.423 233.208 210.182 231.927 209.3C230.647 208.419 229.134 207.937 227.579 207.916C225.497 207.887 223.488 208.686 221.995 210.138C220.501 211.589 219.645 213.574 219.614 215.656Z" fill="#263238"/>
<path d="M218.757 188.848C218.757 188.848 237.555 183.162 245.335 203.582L205.998 215.768L218.757 188.848Z" fill="#455A64"/>
<path d="M95.828 215.505C95.7762 219.136 96.8023 222.701 98.7766 225.748C100.751 228.796 103.585 231.19 106.92 232.628C110.254 234.065 113.941 234.481 117.512 233.823C121.083 233.166 124.379 231.464 126.984 228.933C129.588 226.402 131.383 223.155 132.142 219.604C132.901 216.053 132.589 212.356 131.247 208.982C129.906 205.607 127.593 202.707 124.603 200.647C121.612 198.586 118.078 197.459 114.447 197.408C112.036 197.373 109.642 197.814 107.401 198.704C105.16 199.595 103.117 200.918 101.388 202.599C99.6591 204.279 98.2781 206.284 97.3241 208.499C96.3701 210.713 95.8617 213.094 95.828 215.505Z" fill="#263238"/>
<path d="M95.8303 215.454V215.504C95.8089 220.342 97.6978 224.993 101.086 228.446C104.475 231.898 109.089 233.874 113.927 233.944C118.764 234.013 123.433 232.171 126.92 228.817C130.406 225.463 132.428 220.868 132.546 216.032C132.546 216.032 132.546 215.998 132.546 215.987L95.8303 215.454Z" fill="#263238"/>
<path d="M101.297 215.583C101.256 218.139 101.974 220.649 103.361 222.796C104.748 224.942 106.741 226.629 109.088 227.642C111.434 228.656 114.029 228.949 116.542 228.487C119.056 228.024 121.376 226.825 123.208 225.043C125.04 223.261 126.301 220.975 126.833 218.475C127.364 215.975 127.142 213.373 126.194 211C125.245 208.626 123.614 206.588 121.506 205.142C119.398 203.697 116.908 202.91 114.353 202.88C110.939 202.841 107.649 204.156 105.202 206.536C102.756 208.917 101.351 212.17 101.297 215.583Z" fill="#FAFAFA"/>
<path d="M114.352 202.881C110.936 202.837 107.641 204.15 105.191 206.531C102.741 208.912 101.334 212.167 101.279 215.583L127.055 215.954C127.098 212.537 125.786 209.243 123.405 206.792C121.024 204.342 117.768 202.935 114.352 202.881Z" fill="#E0E0E0"/>
<path d="M106.331 215.656C106.308 217.21 106.746 218.737 107.591 220.042C108.435 221.347 109.648 222.373 111.075 222.989C112.503 223.604 114.081 223.783 115.61 223.502C117.139 223.221 118.55 222.492 119.665 221.409C120.78 220.325 121.548 218.935 121.873 217.415C122.198 215.895 122.065 214.312 121.49 212.868C120.915 211.423 119.925 210.182 118.644 209.3C117.364 208.419 115.85 207.937 114.296 207.916C112.214 207.887 110.205 208.686 108.712 210.138C107.218 211.589 106.362 213.574 106.331 215.656Z" fill="#263238"/>
<path d="M140.301 208.398C140.172 208.449 130.63 206.905 130.63 206.905C130.113 207.581 129.455 208.135 128.702 208.53C127.948 208.924 127.118 209.15 126.268 209.19C122.143 209.386 118.101 209.572 114.604 209.751C113.045 209.823 111.577 210.508 110.52 211.657C109.463 212.806 108.904 214.326 108.963 215.886C109.027 217.373 109.647 218.781 110.7 219.832C111.753 220.884 113.163 221.5 114.649 221.561L134.98 222.358C138.348 222.493 142.771 220.461 144.859 217.868L140.301 208.398Z" fill="#455A64"/>
<path d="M90.3515 200.271C90.3515 200.271 89.4759 182.382 106.293 178.649V176.359H165.197V181.826C165.197 181.826 156.552 192.238 159.376 200.882C162.199 209.527 163.081 210.425 163.081 210.425H196.608C199.251 206.704 200.724 202.279 200.84 197.717C201.019 190.133 197.865 177.156 195.513 168.865C193.374 161.321 192.022 155.018 192.022 155.018L202.075 151.65C202.075 151.65 220.688 175.983 221.446 177.352C222.203 178.722 224.813 181.91 224.185 188.904C223.556 195.898 206.852 217.486 202.445 219.922C198.039 222.358 194.059 222.51 190.13 223.122C186.695 223.649 161.318 223.296 154.678 223.195C152.37 223.182 150.106 222.554 148.122 221.376C146.135 220.175 144.641 218.182 142.997 214.91L139.5 208.067L90.3515 200.271Z" fill="#455A64"/>
<path d="M94.8571 199.047L87.4365 210.649C87.224 210.973 87.1213 211.357 87.1436 211.744C87.166 212.131 87.3122 212.501 87.5608 212.798C87.8093 213.096 88.1469 213.306 88.5238 213.397C88.9006 213.488 89.2968 213.455 89.6537 213.304C90.5768 212.896 91.4191 212.326 92.1403 211.62C95.5363 208.387 101.587 199.883 101.587 199.883L94.8571 199.047Z" fill="#455A64"/>
<path d="M148.063 201.118C148.071 201.061 148.084 201.005 148.102 200.95C148.14 200.834 148.19 200.671 148.254 200.461C148.432 199.834 148.562 199.194 148.641 198.547C148.9 196.15 148.512 193.728 147.519 191.531C146.844 190.018 145.92 188.629 144.785 187.422C143.479 186.046 141.963 184.885 140.294 183.981C138.445 182.982 136.465 182.246 134.412 181.792C132.199 181.314 129.94 181.08 127.676 181.096C125.423 181.114 123.173 181.279 120.94 181.59C118.768 181.888 116.68 182.247 114.716 182.713C111.223 183.452 107.858 184.696 104.724 186.406C102.621 187.575 100.698 189.042 99.0157 190.762C98.4207 191.374 97.9997 191.885 97.7135 192.233L97.3935 192.631C97.3601 192.677 97.3225 192.721 97.2812 192.76C97.7803 192.025 98.3438 191.335 98.9652 190.7C100.632 188.945 102.552 187.451 104.662 186.266C107.799 184.521 111.178 183.252 114.687 182.499C116.658 182.045 118.746 181.68 120.924 181.377C123.174 181.058 125.443 180.889 127.715 180.872C129.991 180.855 132.262 181.093 134.485 181.579C136.558 182.051 138.557 182.806 140.424 183.824C142.115 184.742 143.649 185.922 144.97 187.321C146.116 188.547 147.044 189.959 147.715 191.497C148.711 193.721 149.085 196.173 148.798 198.592C148.709 199.243 148.564 199.885 148.366 200.512L148.192 200.995C148.152 201.038 148.108 201.079 148.063 201.118Z" fill="#263238"/>
<path d="M144.663 197.105C144.635 197.105 144.758 196.819 144.887 196.308C145.053 195.57 145.074 194.808 144.949 194.063C144.777 192.967 144.408 191.911 143.86 190.947C143.548 190.371 143.183 189.824 142.771 189.314C142.333 188.766 141.838 188.265 141.295 187.821C140.242 186.958 139.06 186.267 137.792 185.772C136.753 185.372 135.675 185.078 134.576 184.896C133.833 184.771 133.083 184.685 132.331 184.638C132.053 184.636 131.775 184.615 131.5 184.576C131.573 184.567 131.646 184.567 131.719 184.576C131.859 184.576 132.067 184.576 132.336 184.576C133.088 184.588 133.838 184.65 134.582 184.762C135.697 184.924 136.792 185.204 137.848 185.598C139.144 186.092 140.351 186.791 141.424 187.669C141.975 188.13 142.473 188.65 142.911 189.218C143.336 189.745 143.711 190.308 144.034 190.902C144.587 191.893 144.95 192.978 145.106 194.102C145.215 194.862 145.165 195.636 144.96 196.375C144.908 196.569 144.837 196.757 144.747 196.936C144.724 196.995 144.695 197.051 144.663 197.105Z" fill="#F5F5F5"/>
<g opacity="0.4">
<path d="M133.133 181.427C136.305 182.011 139.323 183.239 142.002 185.036C144.695 186.827 146.771 189.404 147.946 192.418C149.119 195.443 148.945 199.451 147.704 201.96L151.869 202.302C153.273 197.632 151.746 191.896 148.378 188.236C146.45 186.104 144.098 184.397 141.473 183.225C138.848 182.052 136.008 181.44 133.133 181.427Z" fill="black"/>
</g>
<path d="M165.167 178.441C165.167 178.508 151.926 178.559 135.597 178.559C119.269 178.559 106.027 178.508 106.027 178.441C106.027 178.374 119.269 178.323 135.597 178.323C151.926 178.323 165.167 178.379 165.167 178.441Z" fill="#263238"/>
<path d="M165.194 176.359C165.791 175.597 166.161 174.683 166.26 173.72C166.35 172.239 165.699 170.386 164.088 170.386H143.746C142.962 170.386 142.186 170.541 141.461 170.841C140.737 171.141 140.079 171.581 139.525 172.136C138.971 172.69 138.531 173.349 138.232 174.073C137.932 174.798 137.779 175.575 137.779 176.359H165.194Z" fill="#455A64"/>
<path d="M192.02 155.007L188.479 147.631C188.006 146.619 187.927 145.467 188.258 144.4C188.589 143.333 189.306 142.427 190.269 141.861L200.844 135.552C201.397 135.221 202.03 135.046 202.674 135.046H204.959L205.879 149.955L202.349 151.336L204.594 154.962L192.02 155.007Z" fill="#455A64"/>
<path d="M204.992 135.585C204.992 135.585 208.613 136.416 209.067 141.995C209.522 147.575 205.879 149.292 205.879 149.292L204.992 135.585Z" fill="white"/>
<path d="M204.992 135.585C205.017 135.682 205.03 135.782 205.031 135.882L205.099 136.685C205.16 137.415 205.233 138.403 205.329 139.615C205.52 142.085 205.772 145.481 206.019 149.303L205.812 149.18C206.2 148.967 206.558 148.701 206.872 148.388C207.59 147.695 208.135 146.843 208.467 145.902C208.78 145.024 208.949 144.1 208.966 143.168C209.025 141.579 208.719 139.997 208.074 138.543C207.622 137.571 206.918 136.738 206.036 136.129C205.706 135.911 205.356 135.723 204.992 135.568C205.096 135.575 205.198 135.598 205.295 135.635C205.575 135.735 205.844 135.863 206.098 136.017C207.031 136.604 207.78 137.443 208.259 138.436C208.95 139.912 209.284 141.529 209.236 143.157C209.226 144.114 209.057 145.062 208.736 145.964C208.384 146.949 207.808 147.839 207.052 148.562C206.719 148.894 206.341 149.177 205.929 149.404L205.733 149.505V149.281C205.486 145.391 205.295 141.928 205.172 139.464C205.116 138.268 205.065 137.291 205.031 136.567L204.998 135.798C204.99 135.727 204.988 135.656 204.992 135.585Z" fill="#263238"/>
<path d="M191.965 144.92C191.965 144.92 182.327 149.489 181.148 150.213C180.334 150.735 179.633 151.644 180.273 153.25C181.367 155.978 185.886 153.412 185.886 153.412L194.867 148.922C194.867 148.922 198.313 147.288 197.039 145.257C195.591 143 191.965 144.92 191.965 144.92Z" fill="#263238"/>
<path d="M190.748 138.936C192.326 138.936 193.605 136.682 193.605 133.901C193.605 131.12 192.326 128.866 190.748 128.866C189.17 128.866 187.891 131.12 187.891 133.901C187.891 136.682 189.17 138.936 190.748 138.936Z" fill="#263238"/>
<path d="M191.213 137.365L192.785 142.804C193.071 142.66 193.3 142.422 193.433 142.13C193.566 141.838 193.595 141.509 193.514 141.198C193.121 139.335 192.897 138.01 192.465 136.377C192.414 136.214 191.213 137.365 191.213 137.365Z" fill="#263238"/>
<g opacity="0.3">
<path d="M160.15 203.206C159.992 202.757 159.835 202.302 159.684 201.831C159.532 201.359 159.381 200.938 159.263 200.5C159.079 199.829 158.948 199.144 158.87 198.452C156.22 209.234 160.262 216.829 167.211 217.362C177.354 218.142 189.725 218.709 194.715 217.396C203.836 215.005 207.182 207.399 207.979 206.17C208.776 204.94 216.034 191.654 211.588 178.89C207.142 166.126 199.396 152.564 199.391 152.564L192.01 155.029C192.01 155.029 193.362 161.332 195.501 168.876C197.853 177.167 201.007 190.144 200.828 197.727C200.712 202.29 199.239 206.715 196.595 210.436H163.08C163.08 210.436 162.361 209.717 160.15 203.228" fill="black"/>
</g>
<path d="M89.0092 197.464L89.245 194.904L150.428 201.954C151.246 202.051 152.035 202.314 152.748 202.726C153.461 203.139 154.082 203.693 154.574 204.354C155.065 205.015 155.416 205.769 155.606 206.571C155.795 207.373 155.819 208.204 155.676 209.016L155.401 210.565L92.0796 201.359C91.1664 201.227 90.3388 200.749 89.7676 200.024C89.1963 199.299 88.9249 198.383 89.0092 197.464Z" fill="#455A64"/>
<g opacity="0.3">
<path d="M89.0092 197.464L89.245 194.904L150.428 201.954C151.246 202.051 152.035 202.314 152.748 202.726C153.461 203.139 154.082 203.693 154.574 204.354C155.065 205.015 155.416 205.769 155.606 206.571C155.795 207.373 155.819 208.204 155.676 209.016L155.401 210.565L92.0796 201.359C91.1664 201.227 90.3388 200.749 89.7676 200.024C89.1963 199.299 88.9249 198.383 89.0092 197.464Z" fill="black"/>
</g>
<g opacity="0.3">
<path d="M207.99 214.584C207.99 214.584 221.462 199.771 224.24 188.118C225.636 188.111 227.031 188.214 228.411 188.427C228.411 188.427 220.44 210.082 207.99 214.584Z" fill="black"/>
</g>
<path d="M224.043 182.898C224.08 183.021 224.104 183.147 224.116 183.274C224.15 183.521 224.223 183.88 224.273 184.357C224.397 185.697 224.361 187.046 224.167 188.376C223.855 190.352 223.256 192.272 222.387 194.074C221.322 196.264 220.132 198.391 218.823 200.444C216.476 204.199 213.839 207.765 210.937 211.109C209.842 212.406 208.938 213.439 208.304 214.146L207.58 214.96C207.498 215.059 207.408 215.151 207.311 215.235C207.378 215.127 207.455 215.026 207.541 214.932L208.237 214.09L210.813 211.003C213.668 207.64 216.278 204.076 218.621 200.338C219.925 198.289 221.118 196.171 222.196 193.995C223.061 192.219 223.669 190.329 224.004 188.382C224.214 187.063 224.272 185.724 224.178 184.391C224.15 183.92 224.088 183.555 224.071 183.308C224.05 183.172 224.041 183.035 224.043 182.898Z" fill="#263238"/>
<path d="M200.756 214.477C199.266 213.236 197.879 211.877 196.607 210.413C197.377 211.004 198.098 211.655 198.763 212.361C199.484 213.011 200.15 213.719 200.756 214.477Z" fill="#263238"/>
<path d="M160.777 214.023C160.992 213.33 161.326 212.68 161.765 212.103C162.143 211.485 162.621 210.935 163.18 210.475C163.236 210.52 162.618 211.261 161.962 212.232C161.305 213.203 160.839 214.051 160.777 214.023Z" fill="#263238"/>
<path d="M134.896 222.577C135.632 221.905 136.252 221.116 136.732 220.242C137.236 219.287 137.543 218.242 137.636 217.166C137.773 215.855 137.544 214.532 136.975 213.344C136.407 212.155 135.52 211.146 134.414 210.43C133.521 209.824 132.515 209.403 131.456 209.196C130.475 209.017 129.471 209.003 128.486 209.156C128.486 209.156 128.554 209.128 128.688 209.095C128.873 209.043 129.06 209.006 129.25 208.982C129.985 208.881 130.732 208.898 131.461 209.033C132.548 209.225 133.584 209.64 134.504 210.251C135.656 210.98 136.578 212.019 137.165 213.25C137.752 214.48 137.979 215.851 137.821 217.205C137.717 218.305 137.387 219.372 136.85 220.338C136.495 220.988 136.04 221.579 135.503 222.089C135.317 222.274 135.143 222.386 135.042 222.476C134.998 222.515 134.949 222.549 134.896 222.577Z" fill="#263238"/>
<path d="M112.55 217.884C112.399 217.176 112.325 216.453 112.331 215.729C112.257 215.007 112.257 214.279 112.331 213.557C112.483 214.267 112.557 214.991 112.55 215.718C112.628 216.438 112.628 217.164 112.55 217.884Z" fill="#263238"/>
<path d="M114.171 217.89C113.966 217.187 113.834 216.465 113.778 215.735C113.65 215.014 113.595 214.283 113.616 213.551C113.825 214.253 113.957 214.976 114.008 215.706C114.144 216.426 114.199 217.158 114.171 217.89Z" fill="#263238"/>
<path d="M139.407 176.359C139.407 176.42 131.97 176.476 122.792 176.476C113.615 176.476 106.172 176.42 106.172 176.359C106.172 176.297 113.615 176.241 122.792 176.241C131.97 176.241 139.407 176.291 139.407 176.359Z" fill="#263238"/>
<path d="M100.453 228.235C100.38 228.177 100.314 228.111 100.257 228.038C100.139 227.904 99.9479 227.707 99.7346 227.432C99.1053 226.671 98.542 225.858 98.0507 225.002C96.4271 222.164 95.5791 218.949 95.5919 215.68C95.6047 212.411 96.4779 209.202 98.1236 206.377C98.6142 205.524 99.1777 204.715 99.8076 203.958C100.021 203.683 100.217 203.492 100.335 203.358C100.396 203.285 100.463 203.22 100.537 203.161C100.49 203.241 100.436 203.316 100.374 203.386C100.262 203.532 100.083 203.734 99.8805 204.014C99.2833 204.786 98.7466 205.602 98.2752 206.456C96.6876 209.271 95.8469 212.445 95.8332 215.677C95.8194 218.908 96.6331 222.089 98.1966 224.918C98.664 225.776 99.195 226.597 99.7851 227.376C99.9816 227.662 100.161 227.859 100.268 228.01C100.338 228.077 100.401 228.153 100.453 228.235Z" fill="#455A64"/>
<path d="M163.186 220.938C163.186 220.938 163.702 232.944 163.713 233.522L166.262 235.453L172.374 233.932L171.813 220.663L163.186 220.938Z" fill="#FFBE9D"/>
<path d="M180.024 115.299L186.417 118.718L197.11 110.921L200.22 116.287C200.22 116.287 193.709 122.568 191.396 124.707C189.083 126.846 187.568 127.985 185.878 127.654C184.189 127.323 174.781 122.097 174.781 122.097C174.781 122.097 177.52 115.412 180.024 115.299Z" fill="#FFBE9D"/>
<path d="M186.452 121.098C186.452 121.098 186.491 121.137 186.514 121.204V121.261H186.373V121.21V121.042C186.335 120.721 186.314 120.399 186.312 120.076C186.259 119.614 186.299 119.147 186.43 118.701C186.587 119.139 186.646 119.607 186.604 120.071C186.604 120.447 186.604 120.789 186.576 121.042V121.21V121.261C186.284 121.261 186.491 121.261 186.43 121.261V121.199C186.413 121.137 186.435 121.098 186.452 121.098Z" fill="#EB996E"/>
<path d="M198.442 117.747C198.656 117.814 200.648 115.664 200.648 115.664C200.648 115.664 204.381 115.597 205.273 115.103C206.166 114.609 207.519 112.768 207.519 112.768L205.717 107.278C204.05 107.387 202.392 107.593 200.749 107.896C199.559 108.227 196.713 111.207 196.713 111.207L195.49 113.11C195.49 113.11 195.108 116.719 198.442 117.747Z" fill="#FFBE9D"/>
<path d="M204.75 115.412C205.207 115.379 205.662 115.321 206.114 115.238C207.012 115.086 207.938 115.008 207.91 114.115C207.912 113.967 207.883 113.821 207.824 113.685C207.765 113.549 207.677 113.428 207.567 113.329C207.567 113.329 208.23 113.054 208.224 112.555C208.223 112.409 208.187 112.266 208.119 112.138C208.052 112.009 207.955 111.898 207.837 111.814C207.837 111.814 208.752 111.393 208.78 110.652C208.783 110.378 208.711 110.108 208.57 109.874C208.429 109.639 208.226 109.447 207.983 109.321C207.983 109.321 210.789 108.519 211.014 108.429C211.811 108.103 213.332 107.379 212.698 106.784C212.468 106.565 212.378 106.324 210.772 106.521C209.313 106.695 207.017 107.233 207.017 107.233C207.017 107.233 205.053 107.329 204.02 107.435C202.74 107.553 201.472 107.78 200.231 108.115C198.906 108.726 197.75 110.467 197.75 110.467L200.663 115.664L204.75 115.412Z" fill="#FFBE9D"/>
<path d="M207.349 113.307C207.087 113.271 206.822 113.256 206.557 113.262H205.699C205.529 113.249 205.358 113.249 205.188 113.262C204.993 113.287 204.812 113.373 204.671 113.509C204.594 113.578 204.538 113.667 204.508 113.766C204.478 113.865 204.477 113.97 204.503 114.07C204.56 114.246 204.683 114.393 204.845 114.48C204.978 114.562 205.119 114.63 205.266 114.682L205.637 114.822C205.873 114.907 206.058 114.963 206.198 114.996C206.338 115.03 206.406 115.047 206.406 115.036C206.406 115.025 206.125 114.923 205.676 114.744C205.413 114.644 205.157 114.524 204.913 114.385C204.777 114.308 204.675 114.184 204.626 114.037C204.608 113.959 204.611 113.877 204.636 113.801C204.661 113.725 204.706 113.657 204.767 113.604C204.889 113.488 205.044 113.412 205.21 113.385C205.375 113.372 205.54 113.372 205.704 113.385H206.563C206.827 113.38 207.089 113.354 207.349 113.307Z" fill="#EB996E"/>
<path d="M204.284 109.473C204.576 109.349 204.834 109.156 205.036 108.912C205.273 108.701 205.452 108.435 205.558 108.137C205.53 108.137 205.3 108.463 204.947 108.827C204.593 109.192 204.262 109.445 204.284 109.473Z" fill="#EB996E"/>
<path d="M201.917 108.176C202.66 108.355 203.337 108.745 203.864 109.299C204.386 109.851 204.822 110.48 205.155 111.162C205.436 111.724 205.677 112.369 205.369 112.891C205.181 113.147 204.905 113.325 204.595 113.391C204.285 113.457 203.961 113.407 203.685 113.251C203.146 112.926 202.722 112.441 202.472 111.864C202.225 111.289 201.908 110.746 201.529 110.248" fill="#FFBE9D"/>
<path d="M201.566 110.242C201.566 110.242 201.667 110.371 201.83 110.629C202.036 110.994 202.223 111.369 202.392 111.752C202.518 112.023 202.669 112.282 202.841 112.526C203.037 112.814 203.294 113.055 203.593 113.234C203.933 113.427 204.334 113.486 204.715 113.396C204.926 113.349 205.119 113.246 205.277 113.099C205.428 112.946 205.528 112.75 205.563 112.538C205.602 112.12 205.519 111.701 205.322 111.331C205.153 110.991 204.965 110.662 204.76 110.343C204.424 109.797 203.999 109.312 203.503 108.906C203.167 108.634 202.788 108.421 202.38 108.277C202.269 108.237 202.155 108.207 202.038 108.188C201.959 108.188 201.92 108.188 201.92 108.188C201.92 108.188 202.083 108.232 202.363 108.339C202.758 108.499 203.125 108.718 203.452 108.99C203.934 109.397 204.345 109.881 204.67 110.422C204.865 110.738 205.043 111.064 205.204 111.398C205.389 111.742 205.469 112.132 205.434 112.521C205.405 112.711 205.319 112.887 205.187 113.026C205.05 113.155 204.882 113.246 204.699 113.29C204.345 113.379 203.972 113.328 203.654 113.149C203.369 112.98 203.122 112.752 202.93 112.482C202.759 112.243 202.607 111.992 202.476 111.729C202.291 111.343 202.083 110.968 201.853 110.607C201.768 110.483 201.69 110.393 201.639 110.332C201.589 110.27 201.566 110.236 201.566 110.242Z" fill="#EB996E"/>
<path d="M207.265 113.307C206.114 113.308 204.964 113.368 203.819 113.486C203.492 113.547 203.154 113.517 202.842 113.402C202.601 113.284 202.511 112.678 202.449 112.42L206.67 111.763" fill="#FFBE9D"/>
<path d="M206.671 111.763C206.562 111.762 206.453 111.772 206.345 111.791L205.447 111.915L202.439 112.358H202.377V112.425C202.422 112.616 202.461 112.829 202.529 113.037C202.555 113.124 202.593 113.207 202.641 113.284C202.664 113.323 202.692 113.359 202.725 113.391C202.762 113.424 202.803 113.45 202.848 113.469C203.008 113.532 203.177 113.562 203.348 113.559C203.679 113.559 203.982 113.514 204.274 113.492C204.835 113.441 205.397 113.396 205.823 113.368C206.25 113.34 206.62 113.329 206.873 113.318C207 113.327 207.128 113.327 207.255 113.318C207.129 113.297 207.001 113.287 206.873 113.29C206.62 113.29 206.261 113.29 205.818 113.29C205.374 113.29 204.847 113.34 204.263 113.385C203.971 113.385 203.662 113.447 203.354 113.441C203.198 113.445 203.043 113.416 202.899 113.357C202.764 113.312 202.703 113.155 202.646 113.003C202.59 112.852 202.545 112.599 202.5 112.403L202.45 112.476C203.64 112.291 204.695 112.117 205.447 111.988L206.34 111.83C206.452 111.817 206.563 111.794 206.671 111.763Z" fill="#EB996E"/>
<path d="M207.899 111.527L203.504 112.369C203.196 112.447 202.877 112.472 202.561 112.442C202.404 112.427 202.253 112.372 202.121 112.284C201.99 112.196 201.883 112.077 201.809 111.937C201.744 111.731 201.749 111.509 201.823 111.306C201.897 111.103 202.036 110.931 202.218 110.815C202.594 110.591 203.013 110.45 203.448 110.399C204.784 110.136 206.097 109.771 207.377 109.305" fill="#FFBE9D"/>
<path d="M207.366 109.288C207.322 109.294 207.278 109.305 207.237 109.322L206.872 109.439C206.558 109.535 206.103 109.681 205.536 109.832C204.969 109.984 204.284 110.158 203.521 110.309C203.109 110.363 202.707 110.481 202.331 110.657C202.129 110.763 201.96 110.922 201.843 111.118C201.713 111.321 201.661 111.564 201.697 111.803C201.724 111.921 201.776 112.032 201.85 112.129C201.923 112.226 202.017 112.306 202.123 112.364C202.323 112.473 202.547 112.529 202.774 112.527C203.185 112.497 203.592 112.435 203.992 112.341L206.03 111.937L207.4 111.657L207.77 111.572L207.899 111.533C207.855 111.527 207.809 111.527 207.764 111.533L207.388 111.595L206.013 111.836L203.97 112.218C203.577 112.308 203.177 112.366 202.774 112.392C202.569 112.395 202.366 112.345 202.185 112.246C202.094 112.197 202.014 112.129 201.951 112.047C201.888 111.964 201.844 111.87 201.82 111.769C201.79 111.561 201.836 111.35 201.949 111.174C202.056 110.999 202.207 110.856 202.387 110.758C202.753 110.586 203.143 110.47 203.543 110.416C204.307 110.259 204.992 110.079 205.559 109.917C206.125 109.754 206.58 109.591 206.889 109.479L207.242 109.338L207.366 109.288Z" fill="#EB996E"/>
<path d="M199.111 112.605C199.111 112.605 199.173 112.734 199.341 112.886C199.567 113.074 199.832 113.21 200.116 113.284C200.4 113.361 200.697 113.373 200.986 113.318C201.205 113.273 201.329 113.211 201.323 113.194C200.933 113.256 200.536 113.247 200.15 113.166C199.77 113.049 199.418 112.858 199.111 112.605Z" fill="#EB996E"/>
<path d="M175.328 143.702C175.328 143.702 185.993 145.672 186.734 145.874C187.475 146.076 190.523 147.513 190.663 148.434C190.745 149.645 190.745 150.86 190.663 152.071C190.663 152.071 190.102 152.514 189.776 151.627C189.551 150.765 189.454 149.874 189.49 148.984L187.806 148.332L188.727 149.972L188.878 153.811C188.878 153.811 187.699 153.704 187.469 152.784C187.324 152.146 187.249 151.495 187.245 150.842L186.01 149.797L186.936 151.049L187.245 153.811C187.245 153.811 186.347 154.103 186.06 153.491C185.855 152.693 185.753 151.873 185.757 151.049L182.277 149.831L179.976 151.117L177.478 149.747C177.129 149.554 176.826 149.286 176.591 148.963C176.356 148.64 176.195 148.27 176.12 147.878L175.328 143.702Z" fill="#FFBE9D"/>
<path d="M154.03 90.714L154.384 109.321C154.411 110.785 154.992 112.184 156.01 113.237C157.027 114.29 158.406 114.919 159.868 114.996C160.659 115.037 161.45 114.915 162.192 114.638C162.934 114.361 163.611 113.935 164.182 113.385C164.753 112.836 165.205 112.176 165.511 111.445C165.816 110.714 165.968 109.928 165.958 109.136C165.958 107.362 165.902 105.914 165.902 105.914C165.902 105.914 170.426 105.448 170.718 100.964C170.881 98.3703 170.718 92.4653 170.589 87.9411C170.54 86.4606 169.935 85.0529 168.895 83.9982C167.855 82.9435 166.455 82.3192 164.976 82.2495L162.265 82.1091C161.155 82.1205 160.059 82.3535 159.041 82.7946C158.022 83.2358 157.103 83.876 156.335 84.6777C155.568 85.4794 154.969 86.4264 154.573 87.4631C154.177 88.4997 153.993 89.605 154.03 90.714Z" fill="#FFBE9D"/>
<path d="M165.902 105.869C163.83 105.754 161.833 105.049 160.148 103.837C160.148 103.837 161.423 107.205 165.924 107.003L165.902 105.869Z" fill="#EB996E"/>
<path d="M169.523 92.1563C169.445 92.2405 168.962 91.8532 168.283 91.8196C167.604 91.7859 167.071 92.1058 167.003 92.016C166.936 91.9262 167.054 91.8308 167.284 91.6792C167.594 91.4908 167.954 91.4007 168.317 91.421C168.676 91.4383 169.02 91.5701 169.299 91.7971C169.501 91.9655 169.568 92.1227 169.523 92.1563Z" fill="#263238"/>
<path d="M162.881 93.6328C162.875 93.8006 162.804 93.9593 162.682 94.0748C162.56 94.1903 162.398 94.2533 162.23 94.2503C162.148 94.2517 162.067 94.2371 161.991 94.2071C161.915 94.1772 161.845 94.1326 161.786 94.0757C161.727 94.0189 161.68 93.9511 161.647 93.876C161.615 93.801 161.597 93.7203 161.596 93.6384C161.602 93.4707 161.673 93.3119 161.795 93.1965C161.917 93.081 162.079 93.0179 162.247 93.021C162.329 93.0187 162.41 93.0329 162.487 93.0625C162.563 93.0922 162.633 93.1368 162.692 93.1938C162.751 93.2508 162.799 93.3189 162.831 93.3943C162.863 93.4697 162.88 93.5508 162.881 93.6328Z" fill="#263238"/>
<path d="M169.164 93.6328C169.158 93.8006 169.087 93.9593 168.965 94.0748C168.843 94.1903 168.681 94.2533 168.513 94.2503C168.431 94.2525 168.35 94.2384 168.273 94.2087C168.197 94.179 168.127 94.1344 168.068 94.0774C168.009 94.0205 167.961 93.9523 167.929 93.8769C167.897 93.8015 167.88 93.7205 167.879 93.6384C167.885 93.4707 167.956 93.3119 168.078 93.1965C168.2 93.081 168.362 93.0179 168.53 93.021C168.612 93.0187 168.694 93.0329 168.77 93.0625C168.847 93.0922 168.916 93.1368 168.976 93.1938C169.035 93.2508 169.082 93.3189 169.114 93.3943C169.147 93.4697 169.164 93.5508 169.164 93.6328Z" fill="#263238"/>
<path d="M162.861 91.9097C162.777 91.9883 162.299 91.601 161.62 91.5673C160.941 91.5336 160.408 91.8536 160.335 91.7638C160.262 91.674 160.391 91.5785 160.621 91.4326C160.929 91.2388 161.291 91.1465 161.654 91.1688C162.013 91.186 162.357 91.3178 162.636 91.5449C162.838 91.7189 162.9 91.8704 162.861 91.9097Z" fill="#263238"/>
<path d="M165.038 97.3992C165.404 97.3045 165.781 97.2554 166.16 97.2532C166.334 97.2532 166.508 97.2196 166.542 97.1017C166.564 96.9208 166.533 96.7375 166.452 96.5741L165.992 95.2045C165.568 94.0428 165.237 92.849 165.004 91.6345C165.521 92.7588 165.947 93.9225 166.278 95.1146C166.43 95.5974 166.57 96.052 166.71 96.4899C166.81 96.7084 166.828 96.9553 166.761 97.1859C166.733 97.2475 166.69 97.3018 166.638 97.3446C166.585 97.3874 166.524 97.4176 166.458 97.4329C166.359 97.4461 166.259 97.4461 166.16 97.4329C165.786 97.4676 165.409 97.4563 165.038 97.3992Z" fill="#263238"/>
<path d="M162.978 97.7697C163.096 97.7697 163.056 98.5218 163.668 99.0831C164.28 99.6444 165.083 99.6051 165.083 99.7118C165.083 99.8184 164.897 99.8465 164.561 99.8409C164.122 99.8228 163.703 99.6521 163.376 99.3582C163.064 99.0647 162.875 98.6633 162.849 98.2355C162.837 97.9437 162.927 97.764 162.978 97.7697Z" fill="#263238"/>
<path d="M162.943 89.4061C162.864 89.5857 162.185 89.4622 161.366 89.5184C160.546 89.5745 159.889 89.7597 159.788 89.5857C159.743 89.5071 159.867 89.3331 160.142 89.1647C160.504 88.9577 160.91 88.8385 161.326 88.8167C161.743 88.7881 162.161 88.8593 162.544 89.0244C162.836 89.1591 162.977 89.3163 162.943 89.4061Z" fill="#263238"/>
<path d="M169.316 89.6643C169.187 89.8158 168.721 89.625 168.148 89.5913C167.576 89.5576 167.087 89.6418 166.986 89.4678C166.941 89.3892 167.026 89.2377 167.244 89.0973C167.537 88.934 167.872 88.8617 168.206 88.8897C168.54 88.9177 168.858 89.0447 169.119 89.2545C169.316 89.4229 169.361 89.5913 169.316 89.6643Z" fill="#263238"/>
<path d="M155.373 94.1378C155.3 94.0985 152.336 93.0657 152.274 96.1361C152.213 99.2064 155.328 98.6395 155.328 98.5721C155.328 98.5048 155.373 94.1378 155.373 94.1378Z" fill="#FFBE9D"/>
<path d="M154.401 97.3655C154.401 97.3655 154.351 97.4048 154.255 97.4441C154.127 97.4928 153.985 97.4928 153.857 97.4441C153.667 97.3104 153.514 97.1292 153.416 96.9184C153.318 96.7076 153.276 96.4747 153.296 96.2429C153.295 95.9797 153.35 95.7193 153.458 95.4795C153.49 95.3835 153.544 95.2966 153.616 95.2262C153.689 95.1558 153.777 95.104 153.874 95.0754C153.935 95.0607 153.999 95.0678 154.055 95.0955C154.112 95.1231 154.157 95.1696 154.183 95.2269C154.222 95.3167 154.183 95.3785 154.222 95.3841C154.261 95.3897 154.289 95.3336 154.267 95.2045C154.249 95.1282 154.208 95.0594 154.149 95.008C154.064 94.9437 153.958 94.9137 153.851 94.9238C153.727 94.9489 153.61 95.0046 153.512 95.086C153.414 95.1673 153.338 95.2716 153.29 95.3897C153.152 95.6524 153.082 95.946 153.088 96.2429C153.067 96.5165 153.128 96.7901 153.261 97.0296C153.395 97.2692 153.596 97.4641 153.84 97.59C153.923 97.6136 154.01 97.6193 154.095 97.6068C154.18 97.5942 154.262 97.5636 154.334 97.5171C154.396 97.4497 154.413 97.3711 154.401 97.3655Z" fill="#EB996E"/>
<path d="M153.672 93.9415C153.965 93.9389 154.253 94.0152 154.505 94.1623C154.758 94.3095 154.967 94.5221 155.109 94.7778C155.283 95.2269 155.305 95.7264 155.479 96.1755C155.547 96.4069 155.689 96.6092 155.884 96.7505C156.08 96.8918 156.316 96.964 156.557 96.9557C156.719 96.9141 156.867 96.8305 156.987 96.7132C157.106 96.5958 157.192 96.4491 157.236 96.2877C157.319 95.9652 157.34 95.6301 157.298 95.2998C157.186 93.8573 156.961 92.4203 156.978 90.9721C156.936 89.5161 157.327 88.0803 158.101 86.8465C158.495 86.2373 159.046 85.7457 159.696 85.4237C160.346 85.1016 161.071 84.961 161.794 85.0166C162.743 85.1401 163.59 85.6846 164.533 85.8698C165.09 85.969 165.662 85.9412 166.206 85.7886C166.75 85.6361 167.253 85.3626 167.677 84.9886C167.789 84.8931 168.283 84.6013 168.283 84.6013C168.287 84.2595 168.192 83.9239 168.008 83.6358C166.217 81.8003 162.855 81.138 160.34 81.6375C159.062 81.8812 157.853 82.4007 156.796 83.1598C155.74 83.9188 154.861 84.8992 154.222 86.0326C153.032 88.3059 153.184 91.5615 153.661 93.9415" fill="#263238"/>
<path d="M166.898 84.1073C165.214 84.1691 161.952 84.7978 160.611 85.8418C160.454 85.9653 160.28 86.1674 160.386 86.3414C160.493 86.5154 160.65 86.4761 160.802 86.4705C162.359 86.55 163.905 86.785 165.416 87.1721C166.377 87.5117 167.394 87.666 168.413 87.6268C168.922 87.5989 169.415 87.4394 169.844 87.1639C170.273 86.8884 170.623 86.5064 170.86 86.0551L171.293 86.2179C170.801 85.5203 170.139 84.9602 169.37 84.5908C168.6 84.2214 167.749 84.0549 166.898 84.1073Z" fill="#263238"/>
<path d="M170.414 86.1729C169.499 85.3115 168.325 84.775 167.075 84.6462C163.19 84.2925 156.814 85.4601 153.435 92.134C153.067 90.979 152.837 89.7845 152.75 88.5753C152.75 87.6604 153.311 82.2213 158.924 80.5374C158.936 80.5374 167.389 77.3547 170.414 86.1729Z" fill="#455A64"/>
<g opacity="0.3">
<path d="M170.414 86.1729C169.441 85.1329 168.099 84.5146 166.676 84.4497C163.196 84.2813 156.617 85.8418 153.435 92.134C153.067 90.979 152.837 89.7845 152.75 88.5753C152.75 87.6604 153.311 82.2213 158.924 80.5374C158.936 80.5374 167.389 77.3547 170.414 86.1729Z" fill="black"/>
</g>
<path d="M153.963 91.1856C155.647 88.3791 158.173 86.4426 160.895 84.7586C163.617 83.0747 168.102 81.4301 171.195 80.6218C172.111 80.3264 173.079 80.2307 174.035 80.3411C174.511 80.4033 174.961 80.5984 175.331 80.9042C175.701 81.21 175.978 81.6141 176.129 82.0699C176.421 83.2375 174.344 85.0224 173.367 85.7241C172.463 86.3262 171.526 86.8772 170.561 87.3743C170.561 87.3743 170.448 85.2863 166.991 84.8316C162.281 84.2142 153.817 91.3035 153.963 91.1856Z" fill="#455A64"/>
<path d="M160.379 82.5693C161.404 82.0867 162.476 81.7105 163.578 81.4467C164.692 81.2747 165.82 81.2126 166.946 81.2614C166.629 81.1462 166.295 81.0855 165.958 81.0818C165.144 81.0167 164.324 81.062 163.522 81.2165C162.723 81.3729 161.949 81.6373 161.221 82.0024C160.912 82.1453 160.628 82.3367 160.379 82.5693Z" fill="white"/>
<path d="M173.936 191.868L170.804 181.427L166.633 168.135L166.863 161.293L159.88 156.483C155.317 156.561 142.02 155.775 142.02 155.775C142.02 155.775 142.362 162.713 143.047 167.709C143.186 168.7 143.553 169.645 144.119 170.47L150.243 179.401L160.773 199.047C160.773 199.047 161.475 206.063 161.766 212.125C162.092 218.917 163.187 231.21 163.187 231.21L174.02 231.468L174.699 204.256C174.974 200.169 175.277 195.741 173.936 191.868Z" fill="#263238"/>
<path d="M180.643 191.536C181.889 192.547 183.006 206.282 180.951 205.283L183.393 207.59L189.927 206.467L190.83 192.036L180.643 191.536Z" fill="#FFBE9D"/>
<path d="M162.175 150.488C162.175 150.488 189.241 157.852 192.048 163.679C193.179 165.586 193.707 167.791 193.563 170.005C193.4 173.934 191.166 202.184 191.166 202.184L180.945 201.511L179.963 191.087L179.794 175.309L180.507 173.513C179.725 173.693 178.911 173.684 178.133 173.485C176.971 173.142 159.335 167.804 159.335 167.804L152.447 156.948L162.175 150.488Z" fill="#263238"/>
<path d="M190.085 205.676V206.237C190.085 206.237 199.672 210.52 199.672 212.367L180.357 211.558L180.885 205.143C182.29 205.887 183.839 206.32 185.427 206.412C187.014 206.504 188.603 206.253 190.085 205.676Z" fill="#455A64"/>
<g opacity="0.6">
<path d="M180.373 211.558L180.497 210.015L198.969 211.356C198.969 211.356 199.811 211.766 199.688 212.367L180.373 211.558Z" fill="white"/>
</g>
<path d="M190.128 206.31C190.128 206.406 189.645 206.428 189.168 206.709C188.691 206.989 188.427 207.382 188.343 207.337C188.259 207.292 188.422 206.776 189.005 206.428C189.589 206.08 190.156 206.22 190.128 206.31Z" fill="#263238"/>
<path d="M192.121 207.231C192.121 207.326 191.728 207.467 191.386 207.854C191.043 208.241 190.942 208.657 190.824 208.651C190.706 208.645 190.695 208.09 191.122 207.635C191.548 207.18 192.127 207.141 192.121 207.231Z" fill="#263238"/>
<path d="M193.172 209.712C193.087 209.712 192.975 209.251 193.239 208.746C193.503 208.241 193.952 208.05 193.991 208.129C194.03 208.207 193.744 208.477 193.531 208.892C193.318 209.308 193.267 209.712 193.172 209.712Z" fill="#263238"/>
<path d="M184.829 168.27C184.505 168.42 184.206 168.619 183.942 168.859C183.273 169.403 182.672 170.025 182.152 170.712C181.631 171.404 181.197 172.158 180.861 172.957C180.699 173.276 180.589 173.619 180.535 173.973C181.05 172.891 181.654 171.855 182.343 170.874C183.096 169.937 183.928 169.066 184.829 168.27Z" fill="#455A64"/>
<path d="M182.637 166.126C182.385 166.434 182.177 166.776 182.02 167.142C181.164 168.863 180.676 170.744 180.588 172.665C180.553 173.06 180.57 173.458 180.639 173.849C180.706 173.462 180.745 173.07 180.757 172.676C180.844 171.73 181.006 170.791 181.239 169.87C181.475 168.954 181.783 168.059 182.16 167.192C182.34 166.847 182.499 166.49 182.637 166.126Z" fill="#455A64"/>
<path d="M164.504 162.118C164.577 162.118 165.801 165.486 167.232 169.64C168.663 173.793 169.763 177.229 169.685 177.257C169.606 177.285 168.388 173.917 166.957 169.735C165.526 165.553 164.425 162.146 164.504 162.118Z" fill="#455A64"/>
<path d="M168.631 112.448L173.048 110.674L184.572 116.933L179.868 127.699L169.725 122.664L168.631 112.448Z" fill="#455A64"/>
<path d="M173.047 110.674L166.042 108.025C166.042 108.025 164.51 111.263 161.159 110.27C157.808 109.276 154.114 106.29 154.114 106.29C154.114 106.29 147.743 108.816 145.801 109.967C143.859 111.118 142.809 140.974 142.809 140.974L142.282 152.525L141.967 154.703C141.833 155.746 141.764 156.796 141.76 157.847C153.631 160.513 165.368 157.689 171.661 154.198C171.661 154.198 172.492 153.547 172.132 152.06C171.773 150.572 171.01 150.314 171.01 150.314L171.167 137.258L172.334 123.904L173.047 110.674Z" fill="#455A64"/>
<path d="M179.317 144.442L163.555 137.92L153.789 116.293L145.1 119.941C145.1 119.941 154.429 143.393 158.049 145.341C161.669 147.288 176.6 148.186 176.6 148.186L179.317 144.442Z" fill="#FFBE9D"/>
<path d="M145.786 109.967C145.786 109.967 142.502 111.611 142.508 117.898C142.508 123.36 144.119 132.066 144.119 132.066L159.588 126.683L154.806 115.569C153.684 112.919 151.191 108.047 145.786 109.967Z" fill="#455A64"/>
<path d="M145.904 131.448C145.988 131.404 146.074 131.367 146.162 131.336L146.92 131.044L149.766 130.011L159.561 126.548L159.477 126.727C158.988 125.257 158.455 123.685 157.871 122.085C156.951 119.565 155.991 117.202 155.009 115.097C154.575 114.095 154.047 113.137 153.431 112.234C152.912 111.445 152.188 110.811 151.338 110.399C150.081 109.829 148.698 109.595 147.324 109.72C146.954 109.762 146.593 109.861 146.252 110.012C146.141 110.084 146.025 110.148 145.904 110.203C145.904 110.203 145.904 110.174 145.983 110.135C146.057 110.068 146.138 110.01 146.224 109.961C146.562 109.78 146.928 109.66 147.308 109.608C148.708 109.435 150.129 109.642 151.422 110.208C152.314 110.627 153.076 111.278 153.628 112.094C154.262 113.002 154.805 113.97 155.25 114.985C156.255 117.09 157.22 119.475 158.146 121.984C158.708 123.59 159.269 125.161 159.741 126.638L159.786 126.772L159.656 126.817L149.828 130.185L146.954 131.139L146.179 131.386C146.091 131.419 145.998 131.44 145.904 131.448Z" fill="#263238"/>
<path d="M170.303 150.774C170.063 150.999 169.806 151.206 169.534 151.392C169.282 151.582 168.973 151.813 168.586 152.048C168.198 152.284 167.777 152.582 167.278 152.845C166.778 153.109 166.234 153.407 165.622 153.699C165.01 153.99 164.359 154.26 163.657 154.535C162.124 155.093 160.547 155.523 158.942 155.82C157.334 156.088 155.706 156.219 154.076 156.213C153.324 156.213 152.605 156.18 151.943 156.095C151.325 156.049 150.711 155.97 150.102 155.86C149.54 155.781 149.041 155.652 148.597 155.557C148.154 155.461 147.783 155.354 147.475 155.259C147.155 155.18 146.844 155.073 146.543 154.939C146.867 154.985 147.188 155.055 147.503 155.147C147.812 155.225 148.182 155.321 148.625 155.394C149.069 155.467 149.563 155.59 150.124 155.652C150.685 155.714 151.297 155.82 151.96 155.854C152.622 155.888 153.324 155.927 154.07 155.944C155.684 155.936 157.295 155.797 158.886 155.528C160.476 155.239 162.039 154.823 163.562 154.282C164.252 154.007 164.92 153.766 165.515 153.48C166.11 153.193 166.672 152.918 167.199 152.666C167.727 152.413 168.131 152.138 168.518 151.908C168.852 151.721 169.176 151.516 169.489 151.296C169.746 151.101 170.019 150.926 170.303 150.774Z" fill="#263238"/>
<path d="M170.371 123.287H166.043V125.335H170.371V123.287Z" fill="white"/>
<path d="M172.822 116.927C172.906 116.927 172.744 120.093 172.469 123.977C172.193 127.861 171.907 131.016 171.823 131.01C171.739 131.005 171.902 127.845 172.177 123.96C172.452 120.076 172.727 116.921 172.822 116.927Z" fill="#263238"/>
<path d="M135.597 131.448H94.7109V140.379H135.597V131.448Z" fill="#6691FF"/>
<path d="M138.352 140.474H91.9824V176.235H138.352V140.474Z" fill="#6691FF"/>
<path d="M126.734 175.988C126.684 175.988 126.639 168.018 126.639 158.184C126.639 148.35 126.684 140.379 126.734 140.379C126.785 140.379 126.824 148.35 126.824 158.184C126.824 168.018 126.785 175.988 126.734 175.988Z" fill="#263238"/>
<path d="M136.738 168.102H130.867V173.973H136.738V168.102Z" fill="#F5F5F5"/>
<path opacity="0.3" d="M111.367 140.474H106.102V148.108H111.367V140.474Z" fill="white"/>
<path opacity="0.3" d="M111.392 168.607H106.127V176.241H111.392V168.607Z" fill="white"/>
<path opacity="0.3" d="M138.354 140.379H126.734V176.336H138.354V140.379Z" fill="black"/>
<path d="M138.197 140.474C138.197 140.558 127.868 140.62 115.132 140.62C102.396 140.62 92.0625 140.558 92.0625 140.474C92.0625 140.39 102.391 140.328 115.132 140.328C127.874 140.328 138.197 140.395 138.197 140.474Z" fill="#263238"/>
<path opacity="0.3" d="M135.597 131.448H124.152V140.317H135.597V131.448Z" fill="black"/>
<path d="M124.062 140.261C123.918 138.827 123.869 137.385 123.916 135.944C123.869 134.504 123.917 133.062 124.062 131.628C124.21 133.062 124.259 134.504 124.208 135.944C124.258 137.385 124.21 138.827 124.062 140.261Z" fill="#263238"/>
<path d="M112.472 131.448H106.719V134.154H112.472V131.448Z" fill="white"/>
<path d="M114.773 131.622C114.765 131.58 114.765 131.536 114.773 131.493L114.818 131.106C114.857 130.775 114.93 130.281 115.065 129.646C115.427 127.853 116.113 126.141 117.091 124.595C117.426 124.085 117.802 123.602 118.214 123.152C118.632 122.636 119.133 122.192 119.695 121.839C120.014 121.647 120.386 121.561 120.756 121.592C120.952 121.625 121.136 121.707 121.292 121.829C121.448 121.952 121.57 122.111 121.649 122.293C121.894 123.019 121.911 123.802 121.699 124.538C121.285 126.108 120.43 127.526 119.235 128.625C117.96 129.772 116.559 130.77 115.059 131.6L114.851 131.723L114.767 131.774L114.689 131.718C113.302 130.733 111.989 129.649 110.759 128.473C109.607 127.371 108.657 126.076 107.953 124.645C107.774 124.307 107.64 123.946 107.554 123.573C107.463 123.198 107.496 122.804 107.65 122.45C107.726 122.269 107.845 122.109 107.996 121.984C108.148 121.859 108.327 121.772 108.52 121.732C108.892 121.694 109.266 121.793 109.569 122.013C109.845 122.207 110.098 122.433 110.322 122.686C110.546 122.922 110.754 123.163 110.956 123.399C111.34 123.857 111.7 124.334 112.034 124.83C113.053 126.321 113.835 127.961 114.352 129.691C114.488 130.16 114.598 130.636 114.683 131.117L114.739 131.493C114.742 131.536 114.742 131.579 114.739 131.622C114.739 131.622 114.739 131.583 114.7 131.499L114.616 131.128C114.543 130.803 114.425 130.326 114.234 129.725C113.686 128.029 112.894 126.422 111.882 124.954C111.548 124.467 111.188 123.999 110.804 123.551C110.602 123.315 110.395 123.079 110.17 122.855C109.956 122.616 109.715 122.403 109.452 122.22C109.2 122.038 108.891 121.954 108.582 121.985C108.431 122.015 108.29 122.083 108.172 122.18C108.053 122.278 107.961 122.404 107.902 122.546C107.616 123.152 107.902 123.887 108.211 124.533C108.908 125.948 109.846 127.23 110.984 128.322C112.201 129.485 113.501 130.558 114.874 131.532H114.711L114.919 131.409C116.4 130.589 117.784 129.604 119.044 128.473C120.204 127.42 121.038 126.057 121.447 124.544C121.658 123.862 121.658 123.132 121.447 122.45C121.385 122.304 121.287 122.177 121.162 122.078C121.038 121.98 120.89 121.915 120.734 121.889C120.418 121.863 120.101 121.937 119.83 122.102C119.288 122.441 118.803 122.863 118.393 123.354C117.984 123.794 117.608 124.265 117.271 124.763C116.289 126.278 115.58 127.954 115.177 129.714C115.031 130.337 114.941 130.836 114.879 131.156L114.812 131.532L114.773 131.622Z" fill="#263238"/>
<path d="M138.489 156.286C138.489 156.365 128.093 156.432 115.279 156.432C102.464 156.432 92.0684 156.365 92.0684 156.286C92.0684 156.207 102.458 156.14 115.279 156.14C128.099 156.14 138.489 156.202 138.489 156.286Z" fill="#263238"/>
<path d="M114.863 176.813C114.784 176.813 114.717 166.586 114.717 153.974C114.717 141.361 114.784 131.128 114.863 131.128C114.941 131.128 115.009 141.355 115.009 153.974C115.009 166.592 114.947 176.813 114.863 176.813Z" fill="#263238"/>
</g>
<defs>
<clipPath id="clip0_235_2949">
<rect width="375" height="233" fill="white"/>
</clipPath>
</defs>
</svg>
