<svg width="17" height="17" viewBox="0 0 17 17" fill="none" xmlns="http://www.w3.org/2000/svg">
	<path d="M12.5488 16.2865C12.4645 16.2895 12.3804 16.2755 12.3017 16.2453C12.2229 16.2152 12.151 16.1694 12.0903 16.1109C12.0297 16.0523 11.9814 15.9821 11.9484 15.9045C11.9154 15.8269 11.8984 15.7434 11.8984 15.659C11.8984 15.5747 11.9154 15.4912 11.9484 15.4136C11.9814 15.336 12.0297 15.2658 12.0903 15.2072C12.151 15.1487 12.2229 15.1029 12.3017 15.0727C12.3804 15.0426 12.4645 15.0286 12.5488 15.0316C12.5488 14.8653 12.6148 14.7058 12.7324 14.5882C12.85 14.4706 13.0095 14.4045 13.1758 14.4045C13.3421 14.4045 13.5016 14.4706 13.6192 14.5882C13.7368 14.7058 13.8029 14.8653 13.8029 15.0316C13.8024 15.3641 13.6702 15.683 13.4351 15.9182C13.2 16.1534 12.8813 16.2859 12.5488 16.2865Z" fill="#1467C9" />
	<path d="M13.1751 15.6573C13.0088 15.6573 12.8492 15.5913 12.7315 15.4737C12.6137 15.3561 12.5475 15.1966 12.5473 15.0303V8.87712C12.5443 8.79284 12.5583 8.7088 12.5884 8.63004C12.6186 8.55128 12.6643 8.47941 12.7229 8.41871C12.7815 8.35802 12.8517 8.30974 12.9293 8.27677C13.0069 8.2438 13.0904 8.22681 13.1747 8.22681C13.2591 8.22681 13.3425 8.2438 13.4202 8.27677C13.4978 8.30974 13.568 8.35802 13.6266 8.41871C13.6851 8.47941 13.7309 8.55128 13.761 8.63004C13.7912 8.7088 13.8052 8.79284 13.8022 8.87712V15.0303C13.802 15.1965 13.7358 15.3559 13.6183 15.4734C13.5007 15.591 13.3414 15.6571 13.1751 15.6573Z" fill="#1467C9" />
	<path d="M12.548 16.2857H1.25383C1.09131 16.2798 0.93738 16.2112 0.82446 16.0942C0.711541 15.9771 0.648438 15.8208 0.648438 15.6582C0.648438 15.4956 0.711541 15.3393 0.82446 15.2223C0.93738 15.1052 1.09131 15.0366 1.25383 15.0308H12.548C12.7105 15.0366 12.8644 15.1052 12.9773 15.2223C13.0903 15.3393 13.1534 15.4956 13.1534 15.6582C13.1534 15.8208 13.0903 15.9771 12.9773 16.0942C12.8644 16.2112 12.7105 16.2798 12.548 16.2857Z" fill="#1467C9" />
	<path d="M1.25491 16.2861C0.922214 16.2857 0.603271 16.1533 0.368023 15.9181C0.132775 15.6828 0.000425437 15.3639 0 15.0312C0.00581836 14.8686 0.0744719 14.7147 0.191506 14.6018C0.308541 14.4889 0.464825 14.4258 0.627453 14.4258C0.790081 14.4258 0.946364 14.4889 1.0634 14.6018C1.18043 14.7147 1.24909 14.8686 1.25491 15.0312C1.42121 15.0312 1.5807 15.0972 1.6983 15.2148C1.81589 15.3324 1.88196 15.4919 1.88196 15.6582C1.88196 15.8245 1.81589 15.984 1.6983 16.1016C1.5807 16.2192 1.42121 16.2861 1.25491 16.2861Z" fill="#1467C9" />
	<path d="M0.627855 15.6582C0.461477 15.6582 0.301901 15.5921 0.184179 15.4746C0.066456 15.357 0.000213032 15.1975 0 15.0311V3.73698C0.00581836 3.57446 0.0744719 3.42053 0.191506 3.30761C0.308541 3.19469 0.464825 3.13159 0.627453 3.13159C0.790081 3.13159 0.946364 3.19469 1.0634 3.30761C1.18043 3.42053 1.24909 3.57446 1.25491 3.73698V15.0311C1.25469 15.1974 1.18856 15.3567 1.07101 15.4743C0.953463 15.5918 0.794094 15.658 0.627855 15.6582Z" fill="#1467C9" />
	<path d="M0.627051 4.36518C0.544638 4.36518 0.463033 4.34894 0.386903 4.31737C0.310774 4.28581 0.241612 4.23955 0.183375 4.18124C0.125137 4.12293 0.078966 4.05371 0.0475011 3.97754C0.0160361 3.90137 -0.000105143 3.81974 5.15372e-07 3.73733C0.000425952 3.40464 0.132775 3.08569 0.368024 2.85044C0.603272 2.6152 0.922215 2.48285 1.25491 2.48242C1.41743 2.48824 1.57136 2.55689 1.68428 2.67393C1.79719 2.79096 1.8603 2.94725 1.8603 3.10987C1.8603 3.2725 1.79719 3.42879 1.68428 3.54582C1.57136 3.66286 1.41743 3.73151 1.25491 3.73733C1.25501 3.81981 1.23884 3.9015 1.20733 3.97772C1.17581 4.05394 1.12957 4.1232 1.07125 4.18152C1.01292 4.23985 0.943668 4.28609 0.867446 4.3176C0.791223 4.34912 0.709532 4.36529 0.627051 4.36518Z" fill="#1467C9" />
	<path d="M7.40892 3.73724H1.25579C1.1715 3.74026 1.08747 3.72626 1.00871 3.69609C0.929946 3.66592 0.858073 3.62018 0.797377 3.56162C0.736681 3.50306 0.688406 3.43287 0.655434 3.35524C0.622462 3.27761 0.605469 3.19413 0.605469 3.10979C0.605469 3.02545 0.622462 2.94197 0.655434 2.86434C0.688406 2.78671 0.736681 2.71652 0.797377 2.65796C0.858073 2.59939 0.929946 2.55366 1.00871 2.52349C1.08747 2.49331 1.1715 2.47932 1.25579 2.48234H7.40973C7.49401 2.47932 7.57805 2.49331 7.65681 2.52349C7.73557 2.55366 7.80744 2.59939 7.86813 2.65796C7.92883 2.71652 7.97711 2.78671 8.01008 2.86434C8.04305 2.94197 8.06004 3.02545 8.06004 3.10979C8.06004 3.19413 8.04305 3.27761 8.01008 3.35524C7.97711 3.43287 7.92883 3.50306 7.86813 3.56162C7.80744 3.62018 7.73557 3.66592 7.65681 3.69609C7.57805 3.72626 7.49401 3.74026 7.40973 3.73724H7.40892Z" fill="#1467C9" />
	<path d="M6.88056 7.81465C6.7566 7.81441 6.63549 7.77748 6.53249 7.70853C6.42948 7.63957 6.3492 7.54167 6.30174 7.42716C6.25429 7.31265 6.24179 7.18665 6.26582 7.06505C6.28986 6.94345 6.34935 6.83168 6.4368 6.74384L12.565 0.615621C12.6849 0.512439 12.8394 0.458389 12.9975 0.464306C13.1556 0.470223 13.3056 0.53567 13.4174 0.647527C13.5293 0.759384 13.5947 0.909385 13.6006 1.06746C13.6065 1.22554 13.5525 1.38002 13.4493 1.49992L7.32351 7.63055C7.26536 7.68901 7.1962 7.73537 7.12004 7.76697C7.04388 7.79856 6.96301 7.81477 6.88056 7.81465Z" fill="#1467C9" />
	<path d="M6.27259 10.639C6.22825 10.6389 6.18405 10.6341 6.14075 10.6245C6.06019 10.6073 5.9838 10.5744 5.91596 10.5277C5.84811 10.481 5.79014 10.4213 5.74534 10.3522C5.70055 10.2831 5.66982 10.2058 5.6549 10.1248C5.63998 10.0438 5.64117 9.96062 5.6584 9.88007L6.26455 7.05593C6.29941 6.89325 6.39747 6.75108 6.53715 6.6607C6.67683 6.57032 6.8467 6.53913 7.00938 6.57399C7.17206 6.60885 7.31423 6.7069 7.40461 6.84658C7.49499 6.98627 7.52618 7.15613 7.49132 7.31881L6.88517 10.1429C6.85506 10.2832 6.77786 10.4088 6.66642 10.4991C6.55497 10.5893 6.41599 10.6387 6.27259 10.639Z" fill="#1467C9" />
	<path d="M9.09931 10.0328C8.97535 10.0326 8.85424 9.99563 8.75124 9.92668C8.64823 9.85772 8.56795 9.75982 8.52049 9.64531C8.47304 9.5308 8.46054 9.4048 8.48457 9.2832C8.50861 9.1616 8.5681 9.04983 8.65555 8.96198L14.7838 2.83377C14.8401 2.76836 14.9092 2.71527 14.987 2.67783C15.0647 2.64038 15.1494 2.61939 15.2356 2.61616C15.3218 2.61293 15.4078 2.62754 15.4881 2.65907C15.5685 2.69059 15.6414 2.73836 15.7025 2.79938C15.7635 2.8604 15.8112 2.93336 15.8428 3.01369C15.8743 3.09402 15.8889 3.17999 15.8857 3.26623C15.8824 3.35246 15.8615 3.4371 15.824 3.51485C15.7866 3.5926 15.7335 3.66178 15.6681 3.71807L9.54226 9.8487C9.4842 9.90706 9.41518 9.95337 9.33916 9.98496C9.26314 10.0166 9.18163 10.0328 9.09931 10.0328Z" fill="#1467C9" />
	<path d="M6.27242 10.6393C6.11738 10.6395 5.96776 10.5823 5.85244 10.4786C5.73712 10.375 5.66429 10.2323 5.648 10.0781C5.63171 9.92396 5.67313 9.7692 5.76424 9.64376C5.85536 9.51831 5.98972 9.43107 6.14138 9.39888L8.96552 8.79273C9.04607 8.77547 9.12924 8.77425 9.21026 8.78912C9.29129 8.804 9.36859 8.83469 9.43775 8.87945C9.50691 8.9242 9.56658 8.98214 9.61336 9.04995C9.66013 9.11777 9.69309 9.19413 9.71035 9.27468C9.72761 9.35523 9.72883 9.43839 9.71396 9.51941C9.69908 9.60044 9.66839 9.67774 9.62363 9.7469C9.57888 9.81607 9.52094 9.87574 9.45313 9.92251C9.38532 9.96928 9.30895 10.0022 9.2284 10.0195L6.40426 10.6257C6.36091 10.6348 6.31672 10.6394 6.27242 10.6393Z" fill="#1467C9" />
	<path d="M14.1181 5.01396C14.0356 5.01408 13.954 4.99787 13.8778 4.96628C13.8016 4.93468 13.7325 4.88832 13.6743 4.82986L11.4563 2.61187C11.3909 2.55558 11.3378 2.4864 11.3004 2.40865C11.2629 2.3309 11.2419 2.24626 11.2387 2.16003C11.2355 2.07379 11.2501 1.98782 11.2816 1.90749C11.3132 1.82716 11.3609 1.7542 11.4219 1.69318C11.483 1.63216 11.5559 1.58439 11.6363 1.55287C11.7166 1.52134 11.8026 1.50673 11.8888 1.50996C11.975 1.51319 12.0597 1.53418 12.1374 1.57162C12.2152 1.60907 12.2843 1.66216 12.3406 1.72757L14.5586 3.94556C14.6461 4.0334 14.7056 4.14517 14.7296 4.26677C14.7536 4.38838 14.7411 4.51437 14.6937 4.62888C14.6462 4.74339 14.5659 4.8413 14.4629 4.91025C14.3599 4.97921 14.2388 5.01613 14.1149 5.01637L14.1181 5.01396Z" fill="#1467C9" />
	<path d="M15.2249 3.90184C15.1008 3.90176 14.9795 3.8649 14.8763 3.7959C14.7731 3.72691 14.6927 3.62888 14.6452 3.5142C14.5978 3.39953 14.5853 3.27335 14.6095 3.15161C14.6337 3.02987 14.6934 2.91804 14.7812 2.83023C14.954 2.65191 15.0506 2.41332 15.0506 2.16499C15.0506 1.91666 14.954 1.67808 14.7812 1.49976C14.6002 1.33177 14.3624 1.23841 14.1155 1.23841C13.8686 1.23841 13.6308 1.33177 13.4499 1.49976C13.394 1.56675 13.3248 1.62136 13.2467 1.66011C13.1685 1.69887 13.0832 1.72092 12.996 1.72486C12.9089 1.7288 12.8219 1.71453 12.7406 1.68298C12.6593 1.65143 12.5854 1.60328 12.5237 1.5416C12.4621 1.47993 12.4139 1.40608 12.3824 1.32476C12.3508 1.24344 12.3365 1.15644 12.3405 1.0693C12.3444 0.982168 12.3665 0.896809 12.4052 0.818667C12.444 0.740526 12.4986 0.671318 12.5656 0.615454C12.9799 0.215859 13.5345 -0.00511357 14.1101 8.98554e-05C14.6857 0.00529328 15.2363 0.236256 15.6433 0.643277C16.0503 1.0503 16.2813 1.60084 16.2865 2.17643C16.2917 2.75202 16.0707 3.30665 15.6711 3.72096C15.6124 3.7792 15.5428 3.82519 15.4662 3.85624C15.3896 3.88729 15.3076 3.9028 15.2249 3.90184Z" fill="#1467C9" />
</svg>
