<svg width="24" height="24" viewBox="0 0 24 24" fill="none" xmlns="http://www.w3.org/2000/svg">
<g clip-path="url(#clip0_210_5157)">
<path d="M3.71484 21.7406C3.32766 21.7406 3.01359 21.4276 3.01172 21.0409C3.01172 21.0398 3.01172 21.0386 3.01172 21.0375V2.9625C3.01172 1.32895 4.34072 0 5.97422 0H18.0242C19.6428 0 20.9867 1.30823 20.9867 2.9625V16.5188C20.9867 18.1251 19.6893 19.4812 18.0242 19.4812H5.97347C5.11575 19.4812 4.41797 20.179 4.41797 21.0368V21.0375C4.41797 21.4258 4.10316 21.7406 3.71484 21.7406Z" fill="#00AAFA"/>
<path d="M20.9875 16.5187V2.9625C20.9875 1.30823 19.6436 0 18.025 0H12V19.4813H18.025C19.6901 19.4813 20.9875 18.1252 20.9875 16.5187Z" fill="#1978FF"/>
<path d="M18.0242 18.075H5.97422C4.31995 18.075 3.01172 19.4187 3.01172 21.0375C3.01172 22.644 4.30931 24 5.97422 24H18.0242C19.6893 24 20.9867 22.6439 20.9867 21.0375V15.1125C20.9867 16.7189 19.6893 18.075 18.0242 18.075Z" fill="#1978FF"/>
<path d="M20.9875 21.0375V15.1125C20.9875 16.7189 19.69 18.075 18.025 18.075H12V24H18.025C19.6901 24 20.9875 22.6439 20.9875 21.0375Z" fill="#323CFF"/>
<path d="M12.0004 15.7157C15.3003 15.7157 17.9754 13.0406 17.9754 9.74064C17.9754 6.44073 15.3003 3.76562 12.0004 3.76562C8.7005 3.76562 6.02539 6.44073 6.02539 9.74064C6.02539 13.0406 8.7005 15.7157 12.0004 15.7157Z" fill="#1978FF"/>
<path d="M17.975 9.74064C17.975 6.44598 15.2947 3.76562 12 3.76562V15.7157C15.2947 15.7157 17.975 13.0352 17.975 9.74064Z" fill="#323CFF"/>
<path d="M12 8.18433C12.3883 8.18433 12.7031 7.86953 12.7031 7.4812C12.7031 7.09288 12.3883 6.77808 12 6.77808C11.6117 6.77808 11.2969 7.09288 11.2969 7.4812C11.2969 7.86953 11.6117 8.18433 12 8.18433Z" fill="#EBF5FF"/>
<path d="M12 12.7032C11.6117 12.7032 11.2969 12.3884 11.2969 12.0001V9.74072C11.2969 9.35241 11.6117 9.0376 12 9.0376C12.3883 9.0376 12.7031 9.35241 12.7031 9.74072V12.0001C12.7031 12.3884 12.3883 12.7032 12 12.7032Z" fill="#EBF5FF"/>
<path fill-rule="evenodd" clip-rule="evenodd" d="M12.7032 7.48125C12.7032 7.0935 12.3877 6.77808 12 6.77808V8.18447C12.3878 8.18442 12.7032 7.869 12.7032 7.48125Z" fill="#D4E6F3"/>
<path d="M12.7031 12.0001V9.74072C12.7031 9.35241 12.3883 9.0376 12 9.0376V12.7032C12.3883 12.7032 12.7031 12.3884 12.7031 12.0001Z" fill="#D4E6F3"/>
<path d="M5.97422 19.4813C5.11481 19.4813 4.41797 20.177 4.41797 21.0376C4.41797 21.8788 5.09714 22.5938 5.97422 22.5938H18.0242C18.9014 22.5938 19.5804 21.8787 19.5804 21.0376V19.041C19.1174 19.3278 18.5826 19.4813 18.0242 19.4813H5.97422Z" fill="#D4E6F3"/>
<path d="M19.5812 21.0376V19.041C19.1182 19.3278 18.5834 19.4813 18.025 19.4813H12V22.5938H18.025C18.9022 22.5938 19.5812 21.8787 19.5812 21.0376Z" fill="#BED7E6"/>
</g>
<defs>
<clipPath id="clip0_210_5157">
<rect width="24" height="24" fill="white"/>
</clipPath>
</defs>
</svg>
