<svg width="24" height="24" viewBox="0 0 24 24" fill="none" xmlns="http://www.w3.org/2000/svg">
<g clip-path="url(#clip0_210_4978)">
<path d="M12.0221 19.7493C7.75409 19.7493 4.29419 16.2894 4.29419 12.0214C4.29419 7.75336 7.75409 4.29346 12.0221 4.29346C16.2901 4.29346 19.75 7.75336 19.75 12.0214C19.75 16.2894 16.2901 19.7493 12.0221 19.7493Z" fill="#E6ECFF"/>
<path d="M4.29272 12.0213C4.29251 13.8691 4.95447 15.6558 6.15857 17.0574C7.36267 18.459 9.02918 19.3828 10.8559 19.6611C12.6826 19.9394 14.5486 19.5539 16.1155 18.5745C17.6824 17.595 18.8464 16.0865 19.3965 14.3225C14.3349 13.2508 9.52563 11.2192 5.22866 8.33765C4.61161 9.46718 4.28969 10.7342 4.29272 12.0213Z" fill="#255FD4" fill-opacity="0.5"/>
<path d="M9.59188 13.2355L11.1616 11.6657V9.44533C11.1616 9.2176 11.2521 8.99919 11.4131 8.83816C11.5741 8.67714 11.7925 8.58667 12.0203 8.58667C12.248 8.58667 12.4664 8.67714 12.6274 8.83816C12.7884 8.99919 12.8789 9.2176 12.8789 9.44533V12.0213C12.8776 12.2491 12.7871 12.4674 12.6266 12.6291L10.8063 14.4495C10.6443 14.6059 10.4274 14.6924 10.2023 14.6905C9.97717 14.6885 9.7618 14.5982 9.6026 14.439C9.4434 14.2798 9.3531 14.0645 9.35114 13.8393C9.34918 13.6142 9.43573 13.3973 9.59214 13.2353L9.59188 13.2355Z" fill="#4294FF"/>
<path d="M12.0212 1.87376e-05C12.2489 1.87376e-05 12.4673 0.090484 12.6284 0.251513C12.7894 0.412543 12.8799 0.630945 12.8799 0.858675C12.8799 1.0864 12.7894 1.30481 12.6284 1.46584C12.4673 1.62687 12.2489 1.71733 12.0212 1.71733C9.61745 1.7074 7.28523 2.5347 5.42508 4.05718C3.56492 5.57965 2.29289 7.70229 1.82744 10.0606C1.36199 12.4188 1.73217 14.8656 2.87439 16.9807C4.01662 19.0957 5.85962 20.7471 8.08689 21.6511C10.3142 22.5552 12.7867 22.6556 15.08 21.9351C17.3732 21.2145 19.344 19.718 20.6539 17.7025C21.9639 15.687 22.5312 13.2783 22.2584 10.8901C21.9857 8.50181 20.8899 6.28304 19.1593 4.61478L19.2175 5.05888C19.2471 5.28472 19.1858 5.51307 19.047 5.69369C18.9083 5.87432 18.7034 5.99243 18.4776 6.02203C18.2518 6.05164 18.0234 5.99032 17.8428 5.85156C17.6622 5.7128 17.5441 5.50797 17.5144 5.28213L17.1803 2.72797C17.1564 2.50312 17.2199 2.2777 17.3578 2.09846C17.4957 1.91923 17.6972 1.79994 17.9207 1.76533L20.4748 1.4314C20.5882 1.41337 20.704 1.41825 20.8154 1.44575C20.9269 1.47326 21.0317 1.52282 21.1236 1.59151C21.2156 1.66021 21.2928 1.74664 21.3508 1.8457C21.4087 1.94476 21.4463 2.05443 21.4611 2.16824C21.476 2.28206 21.4679 2.39769 21.4373 2.50831C21.4067 2.61893 21.3542 2.7223 21.283 2.8123C21.2117 2.90229 21.1232 2.9771 21.0226 3.03228C20.9219 3.08747 20.8112 3.12192 20.6971 3.1336L20.1624 3.20366C22.2122 5.10579 23.5334 7.66408 23.8977 10.4367C24.262 13.2093 23.6466 16.022 22.1577 18.3891C20.6688 20.7562 18.3999 22.529 15.743 23.4013C13.0861 24.2735 10.208 24.1905 7.60585 23.1665C5.00366 22.1425 2.8408 20.2419 1.49086 17.7929C0.140914 15.3439 -0.311342 12.5003 0.212208 9.75332C0.735759 7.00635 2.20224 4.52848 4.35834 2.7477C6.51445 0.966929 9.22478 -0.00492091 12.0212 1.87376e-05V1.87376e-05Z" fill="#4294FF"/>
<path d="M9.59177 14.4511C9.75457 14.6107 9.97344 14.7001 10.2014 14.7001C10.4294 14.7001 10.6483 14.6107 10.8111 14.4511L12.6314 12.6308C12.709 12.5487 12.7702 12.4525 12.8117 12.3474C12.8117 12.3388 12.8203 12.3388 12.8203 12.3302C12.2794 12.1242 11.7298 11.8923 11.1631 11.6433V11.6691L9.59177 13.2318C9.43089 13.3939 9.34062 13.6131 9.34062 13.8415C9.34062 14.0699 9.43089 14.289 9.59177 14.4511Z" fill="#2965ED"/>
</g>
<defs>
<clipPath id="clip0_210_4978">
<rect width="24" height="24" fill="white" transform="matrix(-1 0 0 1 24 0)"/>
</clipPath>
</defs>
</svg>
