<svg width="47" height="47" viewBox="0 0 47 47" fill="none" xmlns="http://www.w3.org/2000/svg">
	<defs>
		<linearGradient id="paint0_linear_209_4077" x1="2.86055e-07" y1="9.5" x2="43.5" y2="41" gradientUnits="userSpaceOnUse">
			<stop stop-color="#F17350" />
			<stop offset="1" stop-color="#D12C57" />
		</linearGradient>
	</defs>
	<circle cx="23.5" cy="23.5" r="23.5" fill="url(#paint0_linear_209_4077)" />
	<path d="M23.5 10C16.0561 10 10 16.0561 10 23.5C10 30.9439 16.0561 37 23.5 37C30.9439 37 37 30.9439 37 23.5C37 16.0561 30.9439 10 23.5 10ZM23.5 34.3C17.5452 34.3 12.7 29.4548 12.7 23.5C12.7 17.5452 17.5452 12.7 23.5 12.7C29.4548 12.7 34.3 17.5452 34.3 23.5C34.3 29.4548 29.4548 34.3 23.5 34.3Z" fill="white" />
	<path d="M25.3333 18H23V25H30V22.6667H25.3333V18Z" fill="white" />
</svg>
