<svg width="24" height="24" viewBox="0 0 24 24" fill="none" xmlns="http://www.w3.org/2000/svg">
<g clip-path="url(#clip0_210_5007)">
<path d="M14 13.0003C12.346 13.0003 11 11.6543 11 10.0003C11 8.34635 12.346 7.00035 14 7.00035H15.9999V3.00046C15.9999 1.34648 14.6539 0.000488281 12.9999 0.000488281H2.25006C1.92103 0.000488281 1.61305 0.162352 1.4261 0.433345C1.24006 0.704338 1.19813 1.04949 1.31605 1.35637L8.56604 20.3563C8.71307 20.7443 9.08495 21.0003 9.50005 21.0003H12.9999C14.6539 21.0003 15.9999 19.6543 15.9999 18.0003V13.0003H14Z" fill="#2196F3"/>
<path d="M18.6171 14.9241C18.2441 14.7691 18 14.4041 18 14V11.0001H14.0001C13.4481 11.0001 13 10.5522 13 10.0001C13 9.44807 13.4481 9.0002 14.0001 9.0002H18V6.00023C18 5.59612 18.2441 5.2312 18.6171 5.07611C18.991 4.9212 19.4211 5.00726 19.7069 5.29327L23.707 9.29317C24.0979 9.68409 24.0979 10.3162 23.707 10.7071L19.7069 14.7072C19.4211 14.993 18.991 15.0791 18.6171 14.9241Z" fill="#607D8B"/>
<path d="M8.64597 2.10217L2.63706 0.0992029C1.28099 -0.317724 0 0.683303 0 2.00018V20C0 20.8551 0.544001 21.6181 1.35405 21.898L7.36186 23.901C7.58287 23.9689 7.78593 24.0001 7.99998 24.0001C9.10299 24.0001 9.99984 23.1031 9.99984 22V4.00022C9.99984 3.14531 9.45583 2.38232 8.64597 2.10217Z" fill="#64B5F6"/>
</g>
<defs>
<clipPath id="clip0_210_5007">
<rect width="24" height="24" fill="white"/>
</clipPath>
</defs>
</svg>
