<svg width="24" height="24" viewBox="0 0 24 24" fill="none" xmlns="http://www.w3.org/2000/svg">
	<defs>
		<linearGradient id="paint0_linear_668_2345" x1="13.7087" y1="12" x2="10.2887" y2="12" gradientUnits="userSpaceOnUse">
			<stop stop-color="#5BB4F6" />
			<stop offset="0.61" stop-color="#2191E5" />
			<stop offset="1" stop-color="#007EDB" />
		</linearGradient>
		<linearGradient id="paint1_linear_668_2345" x1="22.7246" y1="24.0001" x2="1.27461" y2="24.0001" gradientUnits="userSpaceOnUse">
			<stop stop-color="#5BB4F6" />
			<stop offset="0.61" stop-color="#2191E5" />
			<stop offset="1" stop-color="#007EDB" />
		</linearGradient>
	</defs>
	<path d="M12.2237 15.2625V14.3025H12.4112C12.7535 14.302 13.0819 14.1674 13.3262 13.9275C13.445 13.8105 13.5394 13.671 13.6038 13.5171C13.6682 13.3633 13.7013 13.1981 13.7012 13.0313C13.6943 12.6944 13.5551 12.3738 13.3137 12.1387C13.0723 11.9036 12.7481 11.773 12.4112 11.775H11.5862C11.4768 11.7775 11.3681 11.7585 11.2661 11.7189C11.1642 11.6794 11.071 11.6201 10.992 11.5445C10.9129 11.469 10.8495 11.3786 10.8054 11.2785C10.7613 11.1784 10.7374 11.0706 10.7349 10.9613C10.7355 10.8539 10.7577 10.7478 10.8002 10.6492C10.8428 10.5506 10.9047 10.4616 10.9824 10.3875C11.1451 10.2326 11.3615 10.1466 11.5862 10.1475H13.1537C13.2133 10.1475 13.2706 10.1238 13.3128 10.0816C13.355 10.0395 13.3787 9.98222 13.3787 9.92255C13.3787 9.86287 13.355 9.80565 13.3128 9.76345C13.2706 9.72125 13.2133 9.69755 13.1537 9.69755H12.2237V8.73755C12.2237 8.67788 12.2 8.62065 12.1578 8.57845C12.1156 8.53625 12.0583 8.51255 11.9987 8.51255C11.939 8.51255 11.8818 8.53625 11.8396 8.57845C11.7974 8.62065 11.7737 8.67788 11.7737 8.73755V9.69755H11.5862C11.2439 9.69808 10.9154 9.8327 10.6712 10.0725C10.5523 10.1896 10.4579 10.3291 10.3935 10.483C10.3291 10.6368 10.296 10.802 10.2962 10.9688C10.3031 11.3057 10.4422 11.6263 10.6836 11.8614C10.925 12.0965 11.2492 12.2271 11.5862 12.225H12.4112C12.5205 12.2226 12.6293 12.2416 12.7312 12.2812C12.8332 12.3207 12.9263 12.38 13.0054 12.4556C13.0844 12.5311 13.1478 12.6215 13.1919 12.7216C13.236 12.8217 13.26 12.9295 13.2624 13.0388C13.2618 13.1462 13.2396 13.2523 13.1971 13.3509C13.1546 13.4495 13.0926 13.5385 13.0149 13.6125C12.8522 13.7675 12.6359 13.8535 12.4112 13.8525H10.8437C10.784 13.8525 10.7268 13.8763 10.6846 13.9185C10.6424 13.9606 10.6187 14.0179 10.6187 14.0775C10.6187 14.1372 10.6424 14.1945 10.6846 14.2366C10.7268 14.2788 10.784 14.3025 10.8437 14.3025H11.7737V15.2625C11.7737 15.3222 11.7974 15.3795 11.8396 15.4216C11.8818 15.4638 11.939 15.4875 11.9987 15.4875C12.0583 15.4875 12.1156 15.4638 12.1578 15.4216C12.2 15.3795 12.2237 15.3222 12.2237 15.2625Z" fill="url(#paint0_linear_668_2345)" />
	<path d="M5.24961 22.7251H18.7496C19.8032 22.7231 20.8131 22.3037 21.5582 21.5587C22.3032 20.8136 22.7226 19.8037 22.7246 18.7501V5.2501C22.7226 4.19647 22.3032 3.18657 21.5582 2.44154C20.8131 1.69651 19.8032 1.27708 18.7496 1.2751H5.24961C4.19598 1.27708 3.18608 1.69651 2.44105 2.44154C1.69602 3.18657 1.27659 4.19647 1.27461 5.2501V18.7501C1.27659 19.8037 1.69602 20.8136 2.44105 21.5587C3.18608 22.3037 4.19598 22.7231 5.24961 22.7251ZM19.3609 10.0013C19.3529 9.97303 19.3507 9.94342 19.3544 9.91424C19.3581 9.88506 19.3675 9.85691 19.3822 9.83142C19.3968 9.80593 19.4164 9.78362 19.4398 9.7658C19.4632 9.74797 19.4899 9.73498 19.5184 9.7276C19.5382 9.72417 19.5585 9.72417 19.5784 9.7276C19.6278 9.72681 19.6762 9.74264 19.7156 9.77255C19.755 9.80246 19.7833 9.84473 19.7959 9.8926C20.2459 11.5551 20.153 13.318 19.5307 14.924C18.9084 16.53 17.7893 17.8952 16.3365 18.8204C14.8838 19.7457 13.1734 20.1826 11.4549 20.0674C9.73639 19.9522 8.09964 19.2909 6.78336 18.1801L7.07586 19.8151C7.08402 19.8459 7.08553 19.8781 7.08029 19.9096C7.07505 19.9411 7.06318 19.9711 7.04548 19.9976C7.02777 20.0241 7.00462 20.0466 6.97757 20.0635C6.95052 20.0804 6.92018 20.0913 6.88858 20.0956C6.85697 20.0999 6.82482 20.0974 6.79424 20.0883C6.76367 20.0792 6.73538 20.0638 6.71124 20.0429C6.68711 20.0221 6.66768 19.9963 6.65426 19.9674C6.64083 19.9384 6.63371 19.907 6.63336 19.8751L6.22461 17.5838C6.21918 17.5548 6.21954 17.525 6.22565 17.496C6.23176 17.4671 6.24351 17.4397 6.26022 17.4153C6.27694 17.3909 6.29829 17.3701 6.32307 17.354C6.34784 17.3378 6.37555 17.3268 6.40461 17.3213L8.69961 16.9238C8.72893 16.9185 8.75903 16.919 8.78816 16.9253C8.81729 16.9316 8.84487 16.9437 8.86929 16.9608C8.89372 16.9779 8.9145 16.9997 8.93043 17.0249C8.94637 17.0501 8.95714 17.0782 8.96211 17.1076C8.96211 17.1076 8.96211 17.1338 8.96211 17.1451C8.96197 17.1982 8.94307 17.2495 8.90876 17.29C8.87445 17.3304 8.82694 17.3575 8.77461 17.3663L6.92211 17.6963C8.14916 18.7917 9.69742 19.4611 11.336 19.6046C12.9745 19.7481 14.6156 19.3581 16.0144 18.4928C17.4132 17.6274 18.4948 16.3331 19.0978 14.8028C19.7009 13.2726 19.7932 11.5883 19.3609 10.0013ZM6.83961 12.0001C6.83961 10.9795 7.14224 9.98191 7.70923 9.13336C8.27621 8.2848 9.0821 7.62343 10.025 7.23288C10.9678 6.84233 12.0053 6.74015 13.0063 6.93925C14.0072 7.13835 14.9266 7.62979 15.6483 8.35143C16.3699 9.07307 16.8614 9.99249 17.0605 10.9934C17.2596 11.9944 17.1574 13.0319 16.7668 13.9747C16.3763 14.9176 15.7149 15.7235 14.8664 16.2905C14.0178 16.8575 13.0202 17.1601 11.9996 17.1601C10.6314 17.1591 9.31951 16.6151 8.35204 15.6477C7.38456 14.6802 6.8406 13.3683 6.83961 12.0001ZM6.28836 6.28885C7.72345 4.85649 9.64415 4.01534 11.67 3.932C13.6959 3.84866 15.6792 4.5292 17.2271 5.83885L16.9571 4.18135V4.1476C16.9571 4.09409 16.9759 4.04226 17.0101 4.00115C17.0444 3.96004 17.092 3.93225 17.1446 3.9226H17.1821C17.2352 3.92274 17.2865 3.94164 17.327 3.97594C17.3675 4.01026 17.3945 4.05777 17.4034 4.1101C17.4034 4.1101 17.6319 5.51113 17.7784 6.40885C17.7832 6.43816 17.7821 6.46814 17.7753 6.49705C17.7684 6.52596 17.756 6.55323 17.7385 6.57729C17.7211 6.60134 17.6991 6.62171 17.6737 6.63721C17.6484 6.65271 17.6202 6.66304 17.5909 6.6676L15.2921 7.0426C15.2618 7.0503 15.2303 7.05161 15.1995 7.04645C15.1687 7.04129 15.1393 7.02977 15.1131 7.01262C15.087 6.99548 15.0648 6.97308 15.0478 6.94685C15.0308 6.92063 15.0195 6.89116 15.0145 6.86031C15.0095 6.82947 15.011 6.79793 15.0189 6.7677C15.0268 6.73747 15.0409 6.70921 15.0603 6.68473C15.0798 6.66026 15.1041 6.64009 15.1317 6.62552C15.1593 6.61095 15.1897 6.60229 15.2209 6.6001L17.0696 6.3001C15.8419 5.20747 14.2941 4.54061 12.6567 4.39883C11.0194 4.25704 9.37999 4.64792 7.98274 5.51324C6.58549 6.37857 5.50511 7.67206 4.90248 9.20109C4.29985 10.7301 4.20721 12.4129 4.63836 13.9988C4.64628 14.0272 4.64848 14.0568 4.64482 14.086C4.64116 14.1151 4.63172 14.1433 4.61706 14.1688C4.6024 14.1943 4.5828 14.2166 4.55941 14.2344C4.53603 14.2522 4.50932 14.2652 4.48086 14.2726C4.4523 14.2806 4.42244 14.2828 4.39301 14.2792C4.36358 14.2756 4.33515 14.2662 4.30936 14.2515C4.28357 14.2369 4.26093 14.2173 4.24274 14.1939C4.22455 14.1705 4.21116 14.1437 4.20336 14.1151C3.83195 12.7425 3.82914 11.2961 4.19521 9.92207C4.56128 8.54799 5.28328 7.29478 6.28836 6.28885Z" fill="url(#paint1_linear_668_2345)" />
</svg>
