<svg width="24" height="22" viewBox="0 0 24 22" fill="none" xmlns="http://www.w3.org/2000/svg">
<path fill-rule="evenodd" clip-rule="evenodd" d="M21.3669 12.4907C20.6444 17.0203 16.7159 20.4866 11.9841 20.4866C7.56018 20.4866 3.83816 17.4568 2.78234 13.3606C2.6984 13.035 2.36583 12.8387 2.04008 12.9226C1.71444 13.0066 1.51817 13.3392 1.60212 13.6648C2.79346 18.2865 6.99264 21.7054 11.9841 21.7054C17.4536 21.7054 21.9718 17.6005 22.6238 12.3058L22.9448 12.6033C23.1914 12.8319 23.5773 12.8172 23.8059 12.5706C24.0346 12.3239 24.0199 11.938 23.7732 11.7095L22.5094 10.538C22.2757 10.3215 21.9146 10.3215 21.681 10.538L20.4171 11.7095C20.1704 11.938 20.1557 12.3239 20.3843 12.5706C20.613 12.8172 20.9989 12.8319 21.2455 12.6033L21.3669 12.4907ZM11.9841 3.67711C16.02 3.67711 19.2965 6.95366 19.2965 10.9895C19.2965 15.0254 16.02 18.302 11.9841 18.302C7.94832 18.302 4.67168 15.0254 4.67168 10.9895C4.67168 6.95366 7.94832 3.67711 11.9841 3.67711V3.67711ZM11.3747 6.71937C10.7281 6.71937 10.1082 6.97618 9.65114 7.43326C9.19407 7.89033 8.93726 8.51023 8.93726 9.15655V9.15714C8.93726 9.80356 9.19407 10.4235 9.65114 10.8805C10.1082 11.3376 10.7281 11.5943 11.3744 11.5943H11.3747V14.0318H10.0341C9.69785 14.0318 9.42475 14.3049 9.42475 14.6412C9.42475 14.9775 9.69785 15.2505 10.0341 15.2505H11.3747V15.8599C11.3747 16.1963 11.6478 16.4693 11.9841 16.4693C12.3205 16.4693 12.5935 16.1963 12.5935 15.8599L12.5938 15.2505C13.2402 15.2505 13.8601 14.9938 14.3172 14.5367C14.7742 14.0797 15.0309 13.4598 15.0309 12.8133C15.0309 12.8132 15.0309 12.813 15.0309 12.8128C15.0309 12.1664 14.7742 11.5465 14.3172 11.0895C13.8601 10.6324 13.2402 10.3756 12.5938 10.3756H12.5935V7.93811H13.9341C14.2704 7.93811 14.5434 7.66511 14.5434 7.32874C14.5434 6.99247 14.2704 6.71937 13.9341 6.71937H12.5935V6.11C12.5935 5.77373 12.3205 5.50064 11.9841 5.50064C11.6478 5.50064 11.3747 5.77373 11.3747 6.11V6.71937ZM12.5935 11.5943V14.0318H12.5938C12.917 14.0318 13.2268 13.9035 13.4554 13.6749C13.6839 13.4464 13.8122 13.1366 13.8122 12.8133C13.8122 12.8132 13.8122 12.813 13.8122 12.8128C13.8122 12.4897 13.6839 12.1797 13.4554 11.9513C13.2268 11.7227 12.917 11.5943 12.5938 11.5943H12.5935ZM1.34452 9.66423L1.02346 9.36666C0.776789 9.13803 0.390888 9.15275 0.16235 9.39942C-0.066285 9.6461 -0.0516601 10.0319 0.195012 10.2605L1.45889 11.4319C1.6926 11.6485 2.05363 11.6485 2.28734 11.4319L3.55122 10.2605C3.79789 10.0319 3.81252 9.6461 3.58398 9.39942C3.35534 9.15275 2.96944 9.13803 2.72277 9.36666L2.60138 9.47918C3.32385 4.94957 7.25238 1.48339 11.9841 1.48339C16.4081 1.48339 20.13 4.51317 21.186 8.60939C21.2699 8.93504 21.6025 9.1313 21.9281 9.04735C22.2539 8.96341 22.45 8.63084 22.3661 8.30509C21.1747 3.68345 16.9757 0.264648 11.9841 0.264648C6.5147 0.264648 1.9964 4.36935 1.34452 9.66423V9.66423ZM11.3747 7.93811H11.3744C11.0513 7.93811 10.7414 8.06652 10.5129 8.29505C10.2844 8.52349 10.156 8.83344 10.156 9.15655V9.15714C10.156 9.48035 10.2844 9.7902 10.5129 10.0187C10.7414 10.2473 11.0513 10.3756 11.3744 10.3756H11.3747V7.93811Z" fill="url(#paint0_linear_210_5142)"/>
<defs>
<linearGradient id="paint0_linear_210_5142" x1="11.9841" y1="0.264648" x2="11.9841" y2="21.7054" gradientUnits="userSpaceOnUse">
<stop stop-color="#2A51FF"/>
<stop offset="1" stop-color="#5AECFF"/>
</linearGradient>
</defs>
</svg>
