<svg width="24" height="68" viewBox="0 0 24 68" fill="none" xmlns="http://www.w3.org/2000/svg">
	<defs>
		<clipPath id="clip0_313_2399">
			<rect width="24" height="24" fill="white" />
		</clipPath>
		<clipPath id="clip1_313_2399">
			<rect width="24" height="24" fill="white" transform="translate(0 44)" />
		</clipPath>
	</defs>
	<g clip-path="url(#clip0_313_2399)">
		<path d="M21.9529 16.8268C21.6125 16.6398 21.185 16.7642 20.9981 17.1045C20.8111 17.4448 20.9355 17.8723 21.2758 18.0593C22.1134 18.5194 22.5938 19.0295 22.5938 19.4588C22.5938 19.9838 21.8498 20.7976 19.7619 21.5069C17.6992 22.2078 14.9426 22.5937 12 22.5937C9.05742 22.5937 6.30084 22.2078 4.23811 21.5069C2.15016 20.7976 1.40625 19.9838 1.40625 19.4588C1.40625 19.0295 1.88663 18.5194 2.72419 18.0592C3.06455 17.8723 3.18886 17.4448 3.00187 17.1044C2.81489 16.7641 2.38753 16.6398 2.04708 16.8267C1.11323 17.3398 0 18.2129 0 19.4588C0 20.4138 0.656813 21.7754 3.78572 22.8385C5.99034 23.5875 8.90756 24 12 24C15.0924 24 18.0097 23.5875 20.2143 22.8385C23.3432 21.7754 24 20.4138 24 19.4588C24 18.2129 22.8868 17.3398 21.9529 16.8268Z" fill="#255FD4" />
		<path d="M6.69221 20.4905C8.11955 20.8937 10.0048 21.1158 12.0007 21.1158C13.9966 21.1158 15.8819 20.8937 17.3092 20.4905C19.0555 19.9972 19.9409 19.2831 19.9409 18.3682C19.9409 17.4532 19.0555 16.7392 17.3092 16.246C16.9216 16.1365 16.5 16.0404 16.0517 15.9585C15.8083 16.3791 15.5533 16.8119 15.2866 17.2573C15.7827 17.3317 16.2485 17.423 16.6715 17.5308C17.9567 17.8581 18.4262 18.2266 18.5227 18.3682C18.4261 18.5099 17.9567 18.8784 16.6716 19.2057C15.4552 19.5155 13.8902 19.6922 12.242 19.708C12.1621 19.7139 12.0817 19.7173 12.0007 19.7173C11.9197 19.7173 11.8393 19.7139 11.7594 19.708C10.1111 19.6922 8.54616 19.5156 7.3298 19.2057C6.04467 18.8784 5.57522 18.5099 5.4787 18.3682C5.57522 18.2266 6.04472 17.8581 7.32985 17.5308C7.75285 17.4231 8.21864 17.3317 8.71482 17.2573C8.44814 16.812 8.1931 16.379 7.94968 15.9585C7.50146 16.0405 7.07982 16.1365 6.69221 16.246C4.94597 16.7392 4.06055 17.4533 4.06055 18.3682C4.06055 19.2831 4.94597 19.9972 6.69221 20.4905Z" fill="#255FD4" />
		<path d="M11.9991 18.311C12.6251 18.311 13.1936 17.992 13.5201 17.4578C15.8081 13.7145 18.5354 8.78109 18.5354 6.5362C18.5354 2.93212 15.6033 0 11.9991 0C8.39502 0 5.46289 2.93212 5.46289 6.5362C5.46289 8.78109 8.19022 13.7145 10.4781 17.4578C10.8047 17.992 11.3733 18.311 11.9991 18.311ZM9.37194 6.08742C9.37194 4.63884 10.5505 3.46031 11.9991 3.46031C13.4478 3.46031 14.6263 4.63884 14.6263 6.08742C14.6263 7.53605 13.4478 8.71458 11.9991 8.71458C10.5505 8.71458 9.37194 7.53609 9.37194 6.08742Z" fill="#255FD4" />
	</g>
	<g clip-path="url(#clip1_313_2399)">
		<path d="M21.9529 60.8268C21.6125 60.6398 21.185 60.7642 20.9981 61.1045C20.8111 61.4448 20.9355 61.8723 21.2758 62.0593C22.1134 62.5194 22.5938 63.0295 22.5938 63.4588C22.5938 63.9838 21.8498 64.7976 19.7619 65.5069C17.6992 66.2078 14.9426 66.5937 12 66.5937C9.05742 66.5937 6.30084 66.2078 4.23811 65.5069C2.15016 64.7976 1.40625 63.9838 1.40625 63.4588C1.40625 63.0295 1.88663 62.5194 2.72419 62.0592C3.06455 61.8723 3.18886 61.4448 3.00187 61.1044C2.81489 60.7641 2.38753 60.6398 2.04708 60.8267C1.11323 61.3398 0 62.2129 0 63.4588C0 64.4138 0.656813 65.7754 3.78572 66.8385C5.99034 67.5875 8.90756 68 12 68C15.0924 68 18.0097 67.5875 20.2143 66.8385C23.3432 65.7754 24 64.4138 24 63.4588C24 62.2129 22.8868 61.3398 21.9529 60.8268Z" fill="#FF9100" />
		<path d="M6.69221 64.4905C8.11955 64.8937 10.0048 65.1158 12.0007 65.1158C13.9966 65.1158 15.8819 64.8937 17.3092 64.4905C19.0555 63.9972 19.9409 63.2831 19.9409 62.3682C19.9409 61.4532 19.0555 60.7392 17.3092 60.246C16.9216 60.1365 16.5 60.0404 16.0517 59.9585C15.8083 60.3791 15.5533 60.8119 15.2866 61.2573C15.7827 61.3317 16.2485 61.423 16.6715 61.5308C17.9567 61.8581 18.4262 62.2266 18.5227 62.3682C18.4261 62.5099 17.9567 62.8784 16.6716 63.2057C15.4552 63.5155 13.8902 63.6922 12.242 63.708C12.1621 63.7139 12.0817 63.7173 12.0007 63.7173C11.9197 63.7173 11.8393 63.7139 11.7594 63.708C10.1111 63.6922 8.54616 63.5156 7.3298 63.2057C6.04467 62.8784 5.57522 62.5099 5.4787 62.3682C5.57522 62.2266 6.04472 61.8581 7.32985 61.5308C7.75285 61.4231 8.21864 61.3317 8.71482 61.2573C8.44814 60.812 8.1931 60.379 7.94968 59.9585C7.50146 60.0405 7.07982 60.1365 6.69221 60.246C4.94597 60.7392 4.06055 61.4533 4.06055 62.3682C4.06055 63.2831 4.94597 63.9972 6.69221 64.4905Z" fill="#FF9100" />
		<path d="M11.9991 62.311C12.6251 62.311 13.1936 61.992 13.5201 61.4578C15.8081 57.7145 18.5354 52.7811 18.5354 50.5362C18.5354 46.9321 15.6033 44 11.9991 44C8.39502 44 5.46289 46.9321 5.46289 50.5362C5.46289 52.7811 8.19022 57.7145 10.4781 61.4578C10.8047 61.992 11.3733 62.311 11.9991 62.311ZM9.37194 50.0874C9.37194 48.6388 10.5505 47.4603 11.9991 47.4603C13.4478 47.4603 14.6263 48.6388 14.6263 50.0874C14.6263 51.536 13.4478 52.7146 11.9991 52.7146C10.5505 52.7146 9.37194 51.5361 9.37194 50.0874Z" fill="#FF9100" />
	</g>
	<line x1="12" y1="26" x2="12" y2="41" stroke="#FF9100" stroke-width="2" stroke-linecap="round" stroke-dasharray="4 4" />
</svg>
