<svg width="150" height="150" viewBox="0 0 150 150" fill="none" xmlns="http://www.w3.org/2000/svg">
<path d="M112.414 82.25C112.414 111.314 88.8497 134.886 59.7783 134.886C30.714 134.886 7.14258 111.321 7.14258 82.25C7.14258 78.1 7.62115 74.0643 8.52829 70.1928C12.164 54.6571 22.6854 41.7714 36.6926 34.9285C43.664 31.5214 51.4926 29.6143 59.7712 29.6143C75.9069 29.6143 90.3426 36.8714 99.9997 48.3071C107.535 57.2357 112.164 68.7071 112.4 81.25C112.407 81.5785 112.414 81.9143 112.414 82.25Z" fill="#95ACB4"/>
<path d="M48.3644 50.8785C48.2144 52.3785 47.0573 53.5499 45.6073 53.9356C43.2644 54.5713 40.993 53.3142 39.4287 51.6213C39.8358 52.6856 40.243 53.757 40.6501 54.8285C39.3858 56.3356 36.7715 55.6499 35.2001 54.8928C34.5715 54.5928 33.893 54.3856 33.193 54.3356C29.743 54.0856 29.2287 57.1356 28.6215 59.5713C28.1573 61.4642 26.8215 63.6499 24.9073 63.3428C23.5858 63.1285 22.6715 61.7713 21.3501 61.557C20.543 61.4285 19.7073 61.7713 19.1144 62.3356C17.593 63.757 17.6501 66.3142 18.7144 68.1142C19.7787 69.907 21.6001 71.107 23.4001 72.1642C24.4715 72.7928 25.6001 73.407 26.8287 73.5928C29.1858 73.9499 31.6001 72.6856 33.9358 73.1785C35.9358 73.5999 37.4358 75.1999 38.8001 76.7142C42.2287 80.5285 45.8644 84.8285 45.9358 89.957C46.0073 95.3713 42.1001 99.9213 38.4287 103.893C37.9573 104.4 37.443 104.943 36.7715 105.121C36.3858 105.221 35.9287 105.221 35.6501 105.507C35.343 105.828 35.4001 106.343 35.4858 106.778C36.0573 109.786 36.6287 112.793 37.2001 115.8C37.3287 116.45 37.443 117.171 36.7073 117.664C36.2073 118 35.5787 118.057 35.0001 117.893C31.3358 116.843 26.7573 115.336 25.7287 111.543C25.0715 109.093 26.1644 106.564 26.543 104.057C27.1715 99.8213 25.6787 95.5213 23.5358 91.7999C22.3073 89.657 20.8001 87.2285 21.6144 84.8927C21.8001 84.3642 22.1073 83.8428 22.043 83.2928C21.9644 82.6142 21.3573 82.1285 20.8073 81.7213C16.293 78.3713 12.1644 74.4927 8.54297 70.1927C13.3644 53.5427 22.5715 41.5999 36.7001 34.9285C39.4287 35.5856 42.1001 36.4713 44.543 37.5356C46.9073 38.5713 46.1501 42.0856 43.5644 42.0499C41.9715 42.0285 40.443 41.8642 39.4073 41.6928C38.7501 41.5856 38.1001 41.4428 37.4501 41.2999C34.3715 40.5999 33.1144 45.1642 36.1287 46.0928C36.1573 46.0999 36.1787 46.107 36.2073 46.1142C38.4858 46.7856 40.943 46.2427 43.3144 46.4427C45.8073 46.657 48.6215 48.2856 48.3644 50.8785Z" fill="#8FCB09"/>
<g opacity="0.25">
<path d="M98.7497 46.8714C89.4069 38.4071 77.014 33.25 63.414 33.25C55.1354 33.25 47.3069 35.1571 40.3354 38.5643C26.3283 45.4071 15.8069 58.2928 12.1712 73.8285C11.264 77.7 10.7854 81.7357 10.7854 85.8857C10.7854 99.4928 15.9497 111.893 24.4283 121.243C13.8069 111.607 7.14258 97.7071 7.14258 82.25C7.14258 78.1 7.62115 74.0643 8.52829 70.1928C12.164 54.6571 22.6854 41.7714 36.6926 34.9285C43.664 31.5214 51.4926 29.6143 59.7712 29.6143C75.2283 29.6143 89.1212 36.2714 98.7497 46.8714Z" fill="white"/>
</g>
<path d="M112.406 81.2429C108.556 84.7858 104.763 87.6643 102.763 87.45C97.7198 86.9215 100.634 80.55 100.634 80.55C100.634 80.55 96.3912 76.3 95.0627 76.1429C93.7341 75.9858 94.7984 80.55 89.4913 79.2215C84.1841 77.8929 82.327 70.4643 81.2698 71.7929C80.2055 73.1215 84.4555 84.7929 84.4555 84.7929L88.6984 84.5286C87.3698 89.3072 82.5984 91.4286 80.477 92.4858C78.3484 93.55 75.6984 107.079 68.7984 110C61.8984 112.929 64.2841 84.8 64.2841 84.8C64.2841 84.8 61.0984 86.3929 54.4627 79.4929C47.8341 72.5929 61.0984 63.0429 61.0984 63.0429C58.4413 60.3858 64.0127 58.7929 64.0127 58.7929V55.6072C73.8341 55.3429 71.177 46.2215 71.177 46.2215L78.877 42.0786L85.2484 47.65C79.8055 52.4643 93.8198 49.6858 100.006 48.3C107.541 57.2286 112.17 68.7 112.406 81.2429Z" fill="#8FCB09"/>
<g opacity="0.25">
<path d="M80.477 43.4786L75.3698 46.2215C75.3698 46.2215 78.027 55.35 68.2055 55.6072V58.7929C68.2055 58.7929 62.6341 60.3858 65.2913 63.0429C65.2913 63.0429 52.027 72.5929 58.6555 79.4929C65.2913 86.3929 68.477 84.8 68.477 84.8C68.477 84.8 66.8127 104.407 70.277 109.179C69.8055 109.507 69.3127 109.786 68.7984 110.007C61.8984 112.929 64.2841 84.8 64.2841 84.8C64.2841 84.8 61.0984 86.3929 54.4627 79.4929C47.8341 72.5929 61.0984 63.0429 61.0984 63.0429C58.4413 60.3858 64.0127 58.7929 64.0127 58.7929V55.6072C73.8341 55.3429 71.177 46.2215 71.177 46.2215L78.877 42.0786L80.477 43.4786Z" fill="white"/>
</g>
<g opacity="0.25">
<path d="M88.5488 84.5428L88.6988 84.5356C88.6774 84.6142 88.656 84.6856 88.6345 84.7642C88.6131 84.7214 88.5845 84.6499 88.5488 84.5428Z" fill="white"/>
</g>
<path d="M93.1699 107.7C93.3914 108.207 93.3414 108.786 93.2842 109.336C93.2414 109.743 93.1985 110.179 92.9414 110.5C92.7628 110.729 92.5128 110.871 92.2628 111.014C91.0628 111.664 90.2914 112.043 88.9842 112.421C88.6414 112.521 88.2842 112.593 87.9271 112.607C86.2128 112.7 84.9628 112.607 83.1771 112.193C82.4342 112.014 81.6414 111.764 81.2056 111.136C80.8771 110.679 80.8056 110.093 80.7342 109.529C80.6485 108.836 80.5699 108.114 80.7985 107.45C81.0628 106.679 81.8914 106.029 82.7056 106.414C82.9628 106.536 83.2699 106.55 83.4985 106.386C83.7842 106.171 83.6842 105.893 83.6271 105.636C83.4342 104.657 84.0414 103.7 84.7271 102.971C85.4342 102.221 86.2985 101.564 87.3056 101.35C88.1699 101.157 89.2271 101.393 89.6556 102.171C90.0128 102.807 89.8556 103.6 89.5985 104.279C89.2985 105.071 88.8628 105.843 88.9699 106.721C89.0199 107.143 89.2271 107.543 89.5771 107.779C90.1771 108.186 90.8056 107.907 91.2556 107.5C91.4414 107.321 91.6128 107.129 91.8414 107.029C92.3414 106.814 92.9414 107.2 93.1699 107.7Z" fill="#8FCB09"/>
<g opacity="0.15">
<path d="M112.413 82.25C112.413 111.314 88.8483 134.886 59.7768 134.886C42.6554 134.886 27.4483 126.707 17.834 114.057C26.6626 120.764 37.684 124.75 49.634 124.75C78.7054 124.75 102.27 101.186 102.27 72.1143C102.27 71.7786 102.263 71.4428 102.263 71.1143C102.048 59.55 98.0983 48.9 91.5697 40.3071C94.6697 42.6571 97.4983 45.3428 100.005 48.3143C107.541 57.2428 112.17 68.7143 112.405 81.2571C112.405 81.5786 112.413 81.9143 112.413 82.25Z" fill="black"/>
</g>
<path d="M59.657 105.714C59.7784 106.7 59.8927 107.721 59.5641 108.664C59.1855 109.757 58.0141 110.693 56.8498 110.143C56.4855 109.971 56.057 109.95 55.7284 110.186C55.3284 110.479 55.4641 110.886 55.5355 111.243C55.807 112.636 54.9498 114 53.9784 115.029C52.9713 116.093 51.7427 117.029 50.3141 117.343C49.0784 117.614 47.5855 117.286 46.9641 116.179C46.4641 115.279 46.6784 114.15 47.0427 113.179C47.4713 112.05 48.0927 110.957 47.9355 109.714C47.8641 109.114 47.5713 108.543 47.0784 108.207C46.2284 107.629 45.3284 108.021 44.6998 108.6C44.4355 108.85 44.1927 109.136 43.8641 109.271C43.1427 109.579 42.2855 109.043 41.9713 108.321C41.6498 107.6 41.7213 106.779 41.807 106C41.8641 105.421 41.9355 104.8 42.2927 104.343C42.5427 104.021 42.907 103.807 43.2641 103.607C44.9641 102.679 46.0641 102.143 47.9213 101.6C48.4141 101.45 48.9141 101.364 49.4213 101.336C51.8641 101.2 53.6355 101.343 56.1784 101.929C57.2355 102.179 58.357 102.536 58.9855 103.429C59.4498 104.086 59.557 104.921 59.657 105.714Z" fill="#8FCB09"/>
<path d="M51.8482 45.5856C51.5268 44.8642 51.5982 44.0428 51.6839 43.2642C51.7411 42.6856 51.8125 42.0642 52.1696 41.6071C52.4196 41.2856 52.7839 41.0714 53.1411 40.8714C54.8411 39.9428 55.9411 39.4071 57.7982 38.8642C58.2911 38.7142 58.7911 38.6285 59.2982 38.5999C61.7411 38.4642 63.5125 38.6071 66.0554 39.1928C67.1125 39.4428 68.2339 39.7999 68.8625 40.6928C69.3268 41.3428 69.4339 42.1785 69.5339 42.9714C69.6554 43.9571 69.7696 44.9785 69.4411 45.9214C69.0625 47.0142 67.8911 47.9499 66.7268 47.3999C66.3625 47.2285 65.9339 47.2071 65.6054 47.4428C65.2054 47.7356 65.3411 48.1428 65.4125 48.4999C65.6839 49.8928 64.8268 51.2571 63.8554 52.2856C62.8482 53.3499 61.6196 54.2856 60.1911 54.5999C58.9554 54.8714 57.4625 54.5428 56.8411 53.4356C56.3411 52.5356 56.5554 51.4071 56.9196 50.4356C57.3482 49.3071 57.9696 48.2142 57.8125 46.9714C57.7411 46.3714 57.4482 45.7999 56.9554 45.4642C56.1054 44.8856 55.2054 45.2785 54.5768 45.8571C54.3125 46.1071 54.0696 46.3928 53.7411 46.5285C53.0196 46.8428 52.1625 46.2999 51.8482 45.5856Z" fill="#8FCB09"/>
<path d="M67.8418 110.936C67.1846 110.936 66.6703 110.693 66.3132 110.428C62.1846 107.436 63.1561 90.2999 63.4989 85.6784C61.9489 85.7427 58.7918 85.0213 53.9489 79.9856C52.4203 78.3927 51.7346 76.5356 51.9203 74.4784C52.3846 69.3427 58.1561 64.4213 60.0775 62.9213C59.6132 62.1999 59.6203 61.557 59.7346 61.1142C60.1346 59.5713 62.2775 58.6427 63.3061 58.2784V55.6142C63.3061 55.2284 63.6132 54.907 63.9989 54.8999C66.7132 54.8284 68.6418 54.0356 69.7275 52.557C71.5275 50.0999 70.5061 46.4642 70.4989 46.4284C70.4061 46.107 70.5489 45.757 70.8489 45.5999L78.5489 41.457C78.8132 41.3142 79.1346 41.3499 79.3561 41.5499L85.7275 47.1213C85.8846 47.257 85.9703 47.4499 85.9703 47.657C85.9703 47.8642 85.8846 48.057 85.7275 48.1927C84.7561 49.0499 84.7418 49.3927 84.7418 49.3999C85.1346 49.8213 88.8346 50.0856 99.8561 47.607C100.113 47.5499 100.385 47.6427 100.556 47.8427C108.435 57.1713 112.892 69.0284 113.12 81.2356C113.12 81.4427 113.042 81.6356 112.892 81.7713C107.992 86.2784 104.649 88.3642 102.692 88.1642C101.235 88.0142 100.199 87.407 99.606 86.3784C98.5418 84.5142 99.3846 81.8142 99.7989 80.7284C98.0061 78.9713 95.8632 77.1642 95.1132 76.8927C95.0489 77.0213 94.9632 77.2356 94.8989 77.407C94.4132 78.6499 93.5061 80.9713 89.3346 79.9284C85.8561 79.057 83.8275 75.8999 82.4846 73.807C82.2632 73.4642 82.0132 73.0713 81.7989 72.7713C81.8846 74.5284 83.3632 79.5784 84.9632 84.057L88.6703 83.8213C88.8918 83.807 89.1275 83.907 89.2703 84.0856C89.4132 84.2642 89.4632 84.507 89.4061 84.7284C88.0703 89.5499 83.4203 91.8499 81.1846 92.9499L80.8132 93.1356C80.2989 93.3927 79.3275 95.6856 78.5489 97.5284C76.5561 102.228 73.8346 108.664 69.0989 110.664C68.6203 110.857 68.2132 110.936 67.8418 110.936ZM64.2775 84.0927C64.4275 84.0927 64.5775 84.1356 64.6989 84.2284C64.8989 84.3784 65.0203 84.6142 64.9989 84.8642C64.4918 90.8499 63.8918 106.907 67.1561 109.271C67.4203 109.464 67.8132 109.643 68.5203 109.35C72.7275 107.571 75.3203 101.443 77.2132 96.9713C78.4989 93.9356 79.2132 92.3284 80.1561 91.857L80.5346 91.6713C82.5632 90.6713 86.1989 88.8713 87.6775 85.3142L84.5061 85.5142C84.1846 85.5356 83.8989 85.3427 83.7918 85.0427C82.1561 80.5427 79.5775 72.7713 80.7203 71.3499C81.0346 70.957 81.4061 70.9142 81.6061 70.9284C82.3489 70.9642 82.8489 71.7427 83.6775 73.0284C84.8989 74.9284 86.7418 77.7999 89.6775 78.5356C92.6346 79.2713 93.1061 78.057 93.5703 76.8856C93.8275 76.2284 94.1775 75.3213 95.1632 75.4427C96.6275 75.6142 100.12 79.0142 101.156 80.0499C101.363 80.257 101.427 80.5784 101.299 80.8499C100.906 81.7142 100.056 84.2642 100.856 85.6713C101.206 86.2856 101.863 86.6427 102.849 86.7427C103.685 86.8356 105.949 86.1856 111.692 80.9356C111.399 69.3142 107.17 58.0356 99.7489 49.0927C84.7132 52.4356 83.8061 50.6642 83.4632 49.9927C83.0489 49.1856 83.5703 48.3499 84.2061 47.6713L78.7989 42.9356L72.0203 46.5856C72.2775 47.857 72.6561 50.9784 70.9061 53.3856C69.6489 55.107 67.5775 56.0856 64.7561 56.2856V58.7927C64.7561 59.1142 64.5418 59.3927 64.2418 59.4784C63.0846 59.8142 61.3561 60.6499 61.1489 61.4713C61.1203 61.5856 61.0275 61.9284 61.6346 62.5356C61.7846 62.6856 61.8561 62.8927 61.8418 63.0999C61.8275 63.307 61.7203 63.4999 61.5489 63.6213C61.4703 63.6784 53.8632 69.2213 53.3775 74.607C53.2275 76.2642 53.7632 77.6999 55.0132 78.9999C61.0775 85.307 63.9846 84.1713 64.0132 84.157C64.0775 84.1142 64.1775 84.0927 64.2775 84.0927Z" fill="#5A050A"/>
<path d="M59.3631 55.4C58.156 55.4 56.8631 54.9357 56.2131 53.7786C55.6917 52.8429 55.706 51.6286 56.2488 50.1858C56.3346 49.9572 56.4274 49.7357 56.5203 49.5143C56.8703 48.6715 57.1988 47.8715 57.106 47.0572C57.056 46.6286 56.8488 46.2572 56.556 46.0572C56.0131 45.6858 55.4417 46.0286 55.056 46.3857L54.9131 46.5215C54.6774 46.7572 54.406 47.0215 54.0131 47.1857C52.8846 47.6715 51.6417 46.9 51.1846 45.8715C50.7774 44.9572 50.8774 43.9786 50.956 43.1857C51.0131 42.6072 51.0917 41.8072 51.5846 41.1643C51.9131 40.7429 52.3346 40.4929 52.7703 40.2429C54.5846 39.25 55.706 38.7215 57.5774 38.1786C58.1203 38.0143 58.6846 37.9143 59.2417 37.8857C61.8131 37.7429 63.6346 37.9 66.1988 38.4929C67.3703 38.7643 68.6703 39.1929 69.4274 40.2715C69.9988 41.0715 70.1203 42.0286 70.2274 42.8715C70.3417 43.8357 70.4917 45.0286 70.0988 46.1429C69.7988 47 69.1346 47.7429 68.356 48.0715C67.706 48.3429 67.0346 48.3357 66.406 48.0357C66.2417 47.9643 66.0846 47.95 66.006 48.0072C66.0274 47.9929 66.056 48.1357 66.0703 48.2215L66.0988 48.3429C66.3703 49.7286 65.7703 51.2572 64.3631 52.7572C63.0703 54.1286 61.7131 54.9715 60.3274 55.2786C60.0346 55.3643 59.6988 55.4 59.3631 55.4ZM56.0703 44.4715C56.5203 44.4715 56.956 44.6072 57.3631 44.8786C58.006 45.3072 58.4274 46.0429 58.5274 46.8857C58.6703 48.0715 58.2346 49.1286 57.8488 50.0572C57.7631 50.2643 57.6703 50.4786 57.5917 50.6857C57.206 51.7215 57.1631 52.5286 57.4703 53.0786C57.9203 53.8857 59.106 54.1 60.0417 53.8929C61.1417 53.65 62.2488 52.9429 63.3417 51.7857C64.0917 50.9857 64.9488 49.7857 64.7131 48.6286L64.6917 48.5286C64.6131 48.1572 64.4488 47.3929 65.1846 46.8572C65.6988 46.4857 66.3917 46.45 67.0346 46.7429C67.2988 46.8643 67.5488 46.8715 67.8274 46.75C68.2346 46.5786 68.606 46.1572 68.7774 45.6715C69.056 44.8715 68.9417 43.9 68.8346 43.0429C68.7488 42.3357 68.656 41.6 68.2917 41.0929C67.806 40.4 66.856 40.1 65.906 39.8786C63.4917 39.3215 61.7774 39.1643 59.356 39.3C58.9131 39.3215 58.4631 39.4072 58.0203 39.5357C56.256 40.05 55.2417 40.5286 53.4988 41.4857C53.1846 41.6572 52.9131 41.8215 52.7488 42.0286C52.5203 42.3215 52.4631 42.7857 52.4131 43.3215C52.3346 44.1143 52.2917 44.7572 52.5203 45.2857C52.706 45.7 53.1917 45.9929 53.4774 45.8643C53.6203 45.8072 53.7703 45.6572 53.9346 45.4929L54.106 45.3286C54.7131 44.7643 55.406 44.4715 56.0703 44.4715Z" fill="#5A050A"/>
<path d="M49.4914 118.143C48.2842 118.143 46.9914 117.678 46.3414 116.521C45.82 115.586 45.8342 114.378 46.3771 112.928C46.4628 112.7 46.5557 112.478 46.6485 112.257C46.9985 111.414 47.3342 110.614 47.2342 109.8C47.1842 109.371 46.9771 109 46.6842 108.8C46.1414 108.428 45.57 108.771 45.1842 109.128L45.0414 109.264C44.7985 109.5 44.5271 109.771 44.1414 109.928C43.02 110.414 41.7771 109.643 41.32 108.614C40.9128 107.7 41.0128 106.714 41.0985 105.928C41.1557 105.35 41.2342 104.543 41.7271 103.9C42.0557 103.478 42.4771 103.228 42.9128 102.978C44.7271 101.986 45.8485 101.457 47.72 100.914C48.2628 100.75 48.8271 100.65 49.3842 100.621C51.9557 100.478 53.7771 100.636 56.3414 101.228C57.5128 101.5 58.8057 101.928 59.57 103.007C60.1414 103.807 60.2628 104.764 60.37 105.607C60.4842 106.571 60.6342 107.764 60.2414 108.878C59.9414 109.736 59.2771 110.478 58.4985 110.807C57.8485 111.078 57.1771 111.071 56.5485 110.771C56.3842 110.693 56.2271 110.686 56.1485 110.743C56.1628 110.728 56.1985 110.871 56.2128 110.957L56.2414 111.078C56.5128 112.464 55.9128 113.993 54.5057 115.493C53.2128 116.864 51.8557 117.707 50.47 118.014C50.1557 118.107 49.8271 118.143 49.4914 118.143ZM46.1914 107.207C46.6414 107.207 47.0771 107.343 47.4842 107.614C48.1271 108.043 48.5485 108.778 48.6485 109.621C48.7914 110.807 48.3557 111.864 47.9628 112.8C47.8771 113.007 47.7914 113.221 47.7057 113.428C47.32 114.464 47.2771 115.271 47.5842 115.821C48.0342 116.628 49.22 116.843 50.1557 116.636C51.2557 116.393 52.3628 115.686 53.4557 114.528C54.2057 113.728 55.0557 112.528 54.8271 111.371L54.8057 111.271C54.7271 110.9 54.5628 110.136 55.2985 109.6C55.8128 109.228 56.5057 109.193 57.1485 109.486C57.4128 109.607 57.6628 109.607 57.9414 109.493C58.3485 109.321 58.72 108.9 58.8914 108.414C59.17 107.614 59.0557 106.643 58.9485 105.786C58.8628 105.078 58.77 104.343 58.4057 103.836C57.92 103.143 56.97 102.843 56.02 102.621C53.6057 102.064 51.8914 101.914 49.47 102.043C49.0271 102.064 48.5771 102.15 48.1342 102.278C46.37 102.793 45.3557 103.271 43.6128 104.228C43.2985 104.4 43.02 104.564 42.8628 104.771C42.6342 105.064 42.5771 105.528 42.5271 106.064C42.4485 106.857 42.4057 107.5 42.6342 108.028C42.82 108.443 43.3057 108.736 43.5914 108.607C43.7342 108.55 43.8914 108.393 44.0485 108.236L44.22 108.071C44.8414 107.507 45.5271 107.207 46.1914 107.207Z" fill="#5A050A"/>
<path d="M86.7996 113.364C85.521 113.364 84.4281 113.221 83.0139 112.893C82.1496 112.693 81.1924 112.371 80.6139 111.557C80.1781 110.95 80.0924 110.214 80.0138 109.628C79.9281 108.928 79.821 108.064 80.1139 107.228C80.3424 106.557 80.8496 106.007 81.4567 105.75C81.9353 105.55 82.4424 105.543 82.9139 105.736C82.7353 104.7 83.1781 103.586 84.1996 102.493C85.1424 101.5 86.1281 100.878 87.1496 100.657C88.2139 100.421 89.6496 100.693 90.2781 101.828C90.6781 102.543 90.671 103.457 90.2639 104.536C90.1996 104.7 90.1353 104.857 90.071 105.021C89.8281 105.614 89.6139 106.121 89.6781 106.643C89.7067 106.886 89.8139 107.093 89.971 107.193C90.1853 107.343 90.4567 107.264 90.7639 106.986L90.8567 106.893C91.0281 106.721 91.2424 106.507 91.5567 106.378C92.4567 105.993 93.4567 106.6 93.821 107.414C94.1281 108.114 94.0496 108.864 93.9996 109.407C93.9639 109.814 93.8996 110.436 93.5139 110.943C93.2353 111.3 92.8639 111.507 92.6139 111.643C91.321 112.35 90.5281 112.728 89.1853 113.114C88.7924 113.236 88.3781 113.307 87.971 113.328C87.5567 113.357 87.1638 113.364 86.7996 113.364ZM82.2067 107.028C82.1424 107.028 82.0853 107.043 82.0139 107.071C81.7853 107.171 81.5639 107.421 81.4639 107.7C81.2853 108.221 81.3639 108.878 81.4353 109.457C81.4924 109.928 81.5567 110.414 81.7781 110.736C82.0853 111.164 82.7353 111.371 83.3353 111.507C85.0067 111.893 86.1996 112 87.8853 111.907C88.1781 111.893 88.4781 111.836 88.7781 111.75C89.9996 111.393 90.7067 111.057 91.921 110.393C92.121 110.286 92.2924 110.178 92.3853 110.064C92.5067 109.907 92.5496 109.607 92.5781 109.264C92.6353 108.736 92.6639 108.314 92.521 107.986C92.4281 107.771 92.1996 107.657 92.121 107.686C92.0567 107.714 91.9567 107.814 91.8639 107.9L91.7424 108.021C90.9353 108.764 89.9567 108.893 89.1781 108.371C88.6781 108.036 88.3424 107.464 88.2639 106.807C88.1567 105.914 88.4781 105.15 88.7567 104.471C88.821 104.321 88.8781 104.178 88.9353 104.028C89.1853 103.364 89.221 102.85 89.0353 102.521C88.771 102.05 88.021 101.928 87.4567 102.05C86.7281 102.207 85.9853 102.686 85.2424 103.471C84.7496 104 84.1853 104.778 84.3281 105.507C84.3996 105.828 84.5424 106.507 83.9139 106.964C83.4853 107.271 82.921 107.307 82.3996 107.064C82.3353 107.043 82.271 107.028 82.2067 107.028Z" fill="#5A050A"/>
<path d="M35.621 118.693C35.3495 118.693 35.071 118.657 34.7995 118.578C30.6495 117.393 26.1353 115.793 25.0281 111.728C24.5138 109.821 24.9567 107.928 25.3853 106.093C25.5495 105.386 25.721 104.65 25.8281 103.95C26.3567 100.407 25.371 96.4356 22.9138 92.157L22.7424 91.857C21.4781 89.6713 20.0495 87.1928 20.9424 84.657C20.9924 84.5213 21.0495 84.3856 21.0995 84.2499C21.2353 83.9285 21.3567 83.6213 21.3281 83.3856C21.2853 82.9999 20.8353 82.6428 20.371 82.2999C15.7995 78.907 11.6353 74.9928 7.98525 70.657C7.72811 70.357 7.77097 69.907 8.07097 69.6499C8.37097 69.3928 8.82097 69.4356 9.07811 69.7356C12.6567 73.9856 16.7424 77.8285 21.221 81.1499C21.7424 81.5356 22.621 82.1856 22.7424 83.2142C22.8138 83.8142 22.6067 84.3356 22.4138 84.7928C22.3638 84.907 22.321 85.0213 22.2781 85.1356C21.6067 87.0499 22.8067 89.1285 23.971 91.1428L24.1424 91.4428C26.771 96.007 27.8067 100.286 27.2353 104.157C27.121 104.921 26.9424 105.678 26.771 106.414C26.3638 108.15 25.9853 109.793 26.4067 111.35C27.3138 114.693 31.4138 116.121 35.1853 117.2C35.5995 117.314 35.9995 117.264 36.2995 117.064C36.5995 116.864 36.6281 116.65 36.4924 115.928L36.271 114.757C35.771 112.136 35.271 109.521 34.7781 106.9C34.6995 106.521 34.521 105.621 35.1353 104.993C35.4995 104.621 35.971 104.536 36.3138 104.471C36.4067 104.457 36.4924 104.436 36.5853 104.414C37.071 104.286 37.5138 103.807 37.8995 103.393C41.6424 99.3428 45.2853 94.9713 45.221 89.9499C45.1567 85.2142 41.8995 81.1999 38.271 77.1713C36.8281 75.5713 35.4995 74.2142 33.7924 73.857C32.7138 73.6285 31.5781 73.8285 30.3781 74.0428C29.1995 74.2499 27.9781 74.4642 26.7281 74.2785C25.371 74.0713 24.1638 73.4142 23.0495 72.757C21.2781 71.7142 19.2853 70.4428 18.1138 68.457C16.9781 66.5356 16.771 63.5499 18.6424 61.7999C19.4495 61.0428 20.5067 60.6856 21.4781 60.8428C22.3067 60.9713 22.971 61.4428 23.5567 61.857C24.0638 62.2142 24.5353 62.5499 25.0353 62.6285C26.5353 62.8713 27.5924 60.8213 27.9495 59.3928L28.0567 58.9499C28.6353 56.5785 29.4353 53.3428 33.2638 53.6142C34.0067 53.6642 34.771 53.8785 35.5281 54.2428C36.6638 54.7856 38.7353 55.4142 39.8281 54.6285L38.7781 51.8713C38.6567 51.5499 38.7781 51.1928 39.071 51.007C39.3638 50.8285 39.7424 50.8785 39.971 51.1285C40.771 51.9928 42.8924 53.9285 45.4353 53.2428C46.6567 52.9142 47.5567 51.9285 47.671 50.7999C47.7424 50.1142 47.5353 49.4713 47.0638 48.907C46.2853 47.9642 44.7924 47.2785 43.271 47.1499C42.4138 47.0785 41.5495 47.107 40.6353 47.1428C39.121 47.1928 37.5495 47.2499 36.0281 46.7999C36.0281 46.7999 35.9495 46.7713 35.9424 46.7713C34.0424 46.1856 33.4424 44.3856 33.8353 42.9142C34.2353 41.4213 35.6638 40.1499 37.6353 40.5928C38.2424 40.7285 38.8995 40.8713 39.5495 40.9785C40.7424 41.1785 42.2567 41.307 43.5995 41.3285H43.6281C44.6067 41.3285 45.0995 40.6356 45.2353 40.0356C45.3638 39.4285 45.1924 38.5785 44.2781 38.1785C41.8781 37.1285 39.2781 36.2642 36.5495 35.6142C36.1638 35.5213 35.9281 35.1356 36.021 34.7499C36.1138 34.3642 36.4995 34.1356 36.8853 34.2213C39.6853 34.8999 42.371 35.7856 44.8495 36.8713C46.4495 37.5713 46.8924 39.1142 46.6281 40.3356C46.3638 41.5428 45.3353 42.757 43.6281 42.757C43.6138 42.757 43.5924 42.757 43.5781 42.757C41.5495 42.7285 39.921 42.4928 39.3138 42.3856C38.6281 42.2713 37.9424 42.1285 37.3138 41.9856C36.1638 41.7213 35.4353 42.4499 35.2138 43.2785C35.0138 44.0285 35.1924 45.0356 36.3638 45.3999L36.4567 45.4285C37.7353 45.807 39.121 45.757 40.5853 45.707C41.4995 45.6785 42.4495 45.6428 43.3924 45.7213C45.3067 45.8856 47.1353 46.7499 48.1638 47.9928C48.8781 48.857 49.1995 49.8713 49.0924 50.9428C48.921 52.657 47.6067 54.1356 45.8067 54.6213C44.2495 55.0428 42.5995 54.7642 41.0638 53.857L41.3353 54.5642C41.4281 54.807 41.3781 55.0785 41.2138 55.2785C39.771 56.9999 37.0138 56.5428 34.9067 55.5285C34.3138 55.2428 33.7281 55.0785 33.1567 55.0428C30.6995 54.8642 30.1138 56.5285 29.4424 59.2856L29.3353 59.7356C28.7638 62.0642 27.0995 64.407 24.8138 64.0356C23.9924 63.907 23.3281 63.4356 22.7353 63.0213C22.2281 62.6642 21.7567 62.3285 21.2567 62.2499C20.7281 62.1713 20.0995 62.3928 19.621 62.8428C18.3424 64.0428 18.4781 66.2713 19.3424 67.7356C20.3424 69.4285 22.1567 70.5856 23.771 71.5285C24.8138 72.1356 25.8424 72.6999 26.9424 72.8642C27.9567 73.0213 29.0138 72.8285 30.1281 72.6356C31.4067 72.407 32.7353 72.1713 34.0853 72.457C36.3853 72.9356 38.0853 74.8285 39.3281 76.2142C43.1424 80.457 46.5781 84.6928 46.6424 89.9285C46.7138 95.4785 42.8781 100.1 38.9424 104.364C38.4495 104.9 37.8281 105.557 36.9495 105.793C36.8281 105.828 36.6995 105.85 36.571 105.871C36.4353 105.9 36.2067 105.936 36.1567 105.986C36.1495 105.993 36.071 106.078 36.1853 106.621C36.6853 109.25 37.1781 111.864 37.6781 114.478L37.8995 115.65C38.021 116.286 38.2567 117.471 37.0995 118.243C36.6638 118.55 36.1567 118.693 35.621 118.693Z" fill="#5A050A"/>
<path d="M59.7777 135.593C30.3563 135.593 6.42773 111.664 6.42773 82.25C6.42773 78.1285 6.89916 74.0143 7.83488 70.0285C11.4992 54.3857 21.9063 41.3571 36.3849 34.2857C43.6992 30.7071 51.5706 28.8928 59.7777 28.8928C75.5206 28.8928 90.3849 35.8 100.556 47.8357C108.435 57.1643 112.892 69.0214 113.121 81.2285C113.128 81.5714 113.128 81.9071 113.128 82.2428C113.128 111.664 89.192 135.593 59.7777 135.593ZM59.7777 30.3285C51.792 30.3285 44.1349 32.0928 37.0134 35.5714C22.9206 42.4571 12.792 55.1357 9.22773 70.3571C8.32059 74.2357 7.85631 78.2357 7.85631 82.25C7.85631 110.879 31.1492 134.171 59.7777 134.171C88.4063 134.171 111.699 110.879 111.699 82.25C111.699 81.9214 111.699 81.5857 111.692 81.2571C111.471 69.3857 107.128 57.8428 99.4634 48.7642C89.5635 37.0428 75.0992 30.3285 59.7777 30.3285Z" fill="#5A050A"/>
<g opacity="0.25">
<path d="M38.1679 100.996C39.5105 100.709 39.4974 95.3221 38.1387 88.9639C36.7799 82.6058 34.5901 77.684 33.2474 77.971C31.9048 78.2579 31.9179 83.6448 33.2766 90.0029C34.6354 96.3611 36.8253 101.283 38.1679 100.996Z" fill="white"/>
</g>
<path d="M130.785 124.981L98.253 92.4493L109.06 81.6423L141.592 114.174L130.785 124.981Z" fill="#26AAE0"/>
<g opacity="0.15">
<path d="M98.2246 92.4302L100.745 89.9102L133.277 122.442L130.757 124.962L98.2246 92.4302Z" fill="white"/>
</g>
<g opacity="0.15">
<path d="M106.514 84.134L109.034 81.6141L141.566 114.146L139.046 116.666L106.514 84.134Z" fill="black"/>
</g>
<path d="M130.783 125.671C130.59 125.671 130.412 125.593 130.276 125.464L97.7402 92.9286C97.4616 92.65 97.4616 92.2 97.7402 91.9214L108.547 81.1071C108.819 80.8357 109.29 80.8357 109.554 81.1071L142.09 113.643C142.369 113.921 142.369 114.371 142.09 114.65L131.283 125.464C131.154 125.6 130.976 125.671 130.783 125.671ZM99.2545 92.4214L130.783 123.95L140.583 114.15L109.054 82.6214L99.2545 92.4214Z" fill="#5A050A"/>
<path d="M122.068 118.236L134.868 105.436L142.304 112.871C143.047 113.614 143.047 114.821 142.304 115.564L132.204 125.664C131.461 126.407 130.247 126.407 129.504 125.671L122.068 118.236Z" fill="#483355"/>
<g opacity="0.3">
<path d="M122.068 118.236L124.233 116.071L131.668 123.507C132.411 124.25 133.618 124.25 134.368 123.5L132.204 125.664C131.461 126.407 130.247 126.407 129.504 125.671L122.068 118.236Z" fill="white"/>
</g>
<g opacity="0.15">
<path d="M132.705 107.593L134.869 105.428L142.305 112.864C143.048 113.607 143.048 114.814 142.305 115.557L140.141 117.721C140.884 116.978 140.884 115.771 140.141 115.028L132.705 107.593Z" fill="black"/>
</g>
<path d="M130.84 126.936C130.169 126.936 129.497 126.678 128.99 126.171L121.555 118.736C121.276 118.457 121.276 118.007 121.555 117.728L134.355 104.928C134.626 104.657 135.097 104.657 135.362 104.928L142.797 112.364C143.29 112.857 143.562 113.514 143.562 114.214C143.562 114.914 143.29 115.571 142.797 116.071L132.697 126.171C132.19 126.678 131.519 126.936 130.84 126.936ZM123.076 118.236L130.005 125.164C130.469 125.628 131.226 125.628 131.69 125.157L141.79 115.057C142.012 114.836 142.14 114.536 142.14 114.214C142.14 113.893 142.019 113.6 141.79 113.371L134.862 106.443L123.076 118.236Z" fill="#5A050A"/>
<path d="M106.033 102.2L118.833 89.3998L111.398 81.9641C110.655 81.2213 109.448 81.2213 108.705 81.9641L98.6049 92.0641C97.8621 92.807 97.8621 94.0213 98.5978 94.7641L106.033 102.2Z" fill="#483355"/>
<g opacity="0.3">
<path d="M106.033 102.2L108.198 100.036L100.762 92.5999C100.019 91.857 100.019 90.6499 100.769 89.8999L98.6049 92.0642C97.8621 92.807 97.8621 94.0213 98.5978 94.7642L106.033 102.2Z" fill="white"/>
</g>
<g opacity="0.15">
<path d="M116.67 91.5641L118.834 89.3998L111.398 81.9641C110.655 81.2213 109.448 81.2213 108.705 81.9641L106.541 84.1284C107.284 83.3856 108.491 83.3856 109.234 84.1284L116.67 91.5641Z" fill="black"/>
</g>
<path d="M106.033 102.914C105.848 102.914 105.669 102.843 105.526 102.707L98.0905 95.2714C97.5976 94.7785 97.3262 94.1214 97.3262 93.4214C97.3262 92.7214 97.5976 92.0642 98.0976 91.5642L108.198 81.4642C108.69 80.9714 109.348 80.7 110.048 80.7C110.748 80.7 111.405 80.9714 111.898 81.4642L119.333 88.8999C119.612 89.1785 119.612 89.6285 119.333 89.9071L106.533 102.707C106.398 102.843 106.212 102.914 106.033 102.914ZM110.048 82.1214C109.726 82.1214 109.433 82.2428 109.205 82.4714L99.1047 92.5714C98.8762 92.8 98.7547 93.0999 98.7547 93.4142C98.7547 93.7357 98.8762 94.0285 99.0976 94.2571L106.026 101.186L117.812 89.4L110.883 82.4714C110.669 82.2499 110.369 82.1214 110.048 82.1214Z" fill="#5A050A"/>
<path d="M54.4844 37.8502C39.7201 52.6144 39.7201 76.5573 54.4916 91.3216C64.4773 101.307 78.6487 104.536 91.3487 101.022C97.4344 99.3359 103.184 96.1002 107.963 91.3216C122.72 76.5644 122.727 52.6287 107.97 37.8644C107.963 37.8573 107.963 37.8573 107.956 37.8573C93.1844 23.0859 69.2487 23.0859 54.4844 37.8502ZM62.1487 83.6644C51.613 73.1287 51.6059 56.043 62.1416 45.5144C72.6773 34.9859 89.7559 34.9859 100.292 45.5216C110.82 56.0502 110.827 73.1359 100.292 83.6716C89.7559 94.2073 72.6773 94.193 62.1487 83.6644Z" fill="#63546E"/>
<g opacity="0.15">
<path d="M54.4844 37.85C39.7201 52.6143 39.7201 76.5571 54.4916 91.3214C62.4987 99.3285 73.213 102.993 83.6987 102.321C74.863 101.743 66.1916 98.0785 59.4344 91.3214C44.663 76.55 44.663 52.6143 59.4273 37.85C66.1773 31.1 74.8487 27.4357 83.6844 26.8571C73.2059 26.1785 62.4916 29.8428 54.4844 37.85Z" fill="black"/>
</g>
<g opacity="0.15">
<path d="M107.963 37.8643C122.72 52.6285 122.713 76.5643 107.956 91.3214C103.178 96.1 97.4275 99.3357 91.3418 101.021C92.0418 100.464 92.7347 99.9071 93.4061 99.3357C103.692 90.7286 111.449 79.15 115.499 66.3785C116.335 63.7357 117.02 60.9785 116.763 58.2214C116.413 54.55 114.442 51.2714 112.699 48.0285C110.92 44.7357 109.349 41.3357 107.963 37.8643Z" fill="black"/>
</g>
<path d="M81.2199 103.093C71.3556 103.093 61.4913 99.3358 53.977 91.8286C38.9556 76.8072 38.9556 52.3715 53.977 37.3501C68.9984 22.3286 93.4342 22.3286 108.456 37.3501C123.477 52.3715 123.477 76.8072 108.456 91.8286C100.948 99.3358 91.0842 103.093 81.2199 103.093ZM81.2199 27.5072C71.7199 27.5072 62.2199 31.1215 54.9913 38.3572C40.527 52.8215 40.527 76.3572 54.9913 90.8215C69.4556 105.286 92.9913 105.286 107.456 90.8215C121.92 76.3572 121.92 52.8215 107.456 38.3572C100.22 31.1215 90.7199 27.5072 81.2199 27.5072Z" fill="#5A050A"/>
<g opacity="0.4">
<path d="M100.298 83.6644C89.7618 94.2001 72.6833 94.193 62.1475 83.6644C51.6118 73.1287 51.6047 56.043 62.1404 45.5144C72.6761 34.9859 89.7547 34.9859 100.29 45.5216C110.826 56.043 110.826 73.1287 100.298 83.6644Z" fill="white"/>
</g>
<g opacity="0.4">
<path d="M100.299 45.5143C110.828 56.0428 110.835 73.1286 100.299 83.6643C94.1992 89.7643 85.8992 92.3357 77.9492 91.3643C83.7278 90.6643 89.3278 88.0928 93.7564 83.6643C104.292 73.1286 104.285 56.05 93.7564 45.5143C89.3278 41.0857 83.7278 38.5143 77.9492 37.8071C85.8992 36.8428 94.1992 39.4143 100.299 45.5143Z" fill="white"/>
</g>
<path d="M81.2205 92.2643C74.1276 92.2643 67.0419 89.5643 61.6419 84.1643C50.8419 73.3643 50.8419 55.8 61.6348 45C66.8633 39.7714 73.8133 36.8928 81.2133 36.8928H81.2205C88.6205 36.8928 95.5705 39.7785 100.799 45.0071C111.592 55.8 111.592 73.3714 100.799 84.1643C95.4062 89.5643 88.3133 92.2643 81.2205 92.2643ZM81.2133 38.3285C74.199 38.3285 67.6062 41.0571 62.649 46.0214C52.4133 56.2571 52.4133 72.9214 62.6562 83.1643C72.8919 93.4 89.5562 93.4 99.7919 83.1643C110.028 72.9285 110.028 56.2643 99.7919 46.0285C94.8276 41.0571 88.2348 38.3285 81.2133 38.3285C81.2205 38.3285 81.2205 38.3285 81.2133 38.3285Z" fill="#5A050A"/>
<g opacity="0.3">
<path d="M64.7478 73.6215C67.0161 73.6215 68.8549 69.1156 68.8549 63.5572C68.8549 57.9989 67.0161 53.4929 64.7478 53.4929C62.4795 53.4929 60.6406 57.9989 60.6406 63.5572C60.6406 69.1156 62.4795 73.6215 64.7478 73.6215Z" fill="white"/>
</g>
<path d="M99.0004 36.1716C99.0004 53.5287 85.6575 64.0859 80.2218 67.6716C78.829 68.5859 77.9575 69.0502 77.9575 69.0502C77.9575 69.0502 56.9004 57.9787 56.9004 36.1716C56.9004 24.543 66.329 15.1216 77.9504 15.1216C81.3004 15.1216 84.4647 15.9002 87.2718 17.293C94.2218 20.7359 99.0004 27.893 99.0004 36.1716Z" fill="#EE1C2F"/>
<g opacity="0.25">
<path d="M79.8861 67.8787C78.6861 68.6573 77.9504 69.043 77.9504 69.043C77.9504 69.043 56.9004 57.9787 56.9004 36.1716C56.9004 24.543 66.329 15.1216 77.9504 15.1216C78.6004 15.1216 79.2504 15.1502 79.8861 15.2073C69.1718 16.1859 60.779 25.193 60.779 36.1716C60.779 53.8859 74.679 64.5144 79.8861 67.8787Z" fill="white"/>
</g>
<g opacity="0.15">
<path d="M98.9993 36.1715C98.9993 53.5286 85.6564 64.0858 80.2207 67.6715C80.3278 67.3358 80.535 67.0072 80.735 66.7143C82.7921 63.6786 85.1921 60.8858 87.8778 58.3929C89.4707 56.9072 91.1921 55.5072 92.385 53.6858C93.1493 52.5072 93.6778 51.1858 94.1064 49.8572C96.7136 41.6786 95.6707 32.4072 91.3136 25.0143C90.4636 23.5786 89.4993 22.2072 88.7207 20.7358C88.1421 19.6286 87.6707 18.4786 87.285 17.3C94.2207 20.7358 98.9993 27.8929 98.9993 36.1715Z" fill="black"/>
</g>
<path d="M77.9498 69.7572C77.8355 69.7572 77.7213 69.7287 77.6141 69.6787C77.3998 69.5644 56.1855 58.1572 56.1855 36.1715C56.1855 24.1715 65.9498 14.4072 77.9498 14.4072C89.9498 14.4072 99.7141 24.1715 99.7141 36.1715C99.7141 58.1572 78.4998 69.5644 78.2855 69.6787C78.1784 69.7287 78.0641 69.7572 77.9498 69.7572ZM77.9498 15.8358C66.7355 15.8358 57.6141 24.9572 57.6141 36.1715C57.6141 55.8072 75.2855 66.7001 77.9498 68.2287C80.6141 66.7001 98.2855 55.7929 98.2855 36.1715C98.2855 24.9572 89.1641 15.8358 77.9498 15.8358Z" fill="#5A050A"/>
<path d="M77.9495 47.3143C84.1035 47.3143 89.0924 42.3255 89.0924 36.1714C89.0924 30.0174 84.1035 25.0286 77.9495 25.0286C71.7955 25.0286 66.8066 30.0174 66.8066 36.1714C66.8066 42.3255 71.7955 47.3143 77.9495 47.3143Z" fill="white"/>
<g opacity="0.15">
<path d="M89.0999 36.1714C89.0999 42.3286 84.1071 47.3143 77.9571 47.3143C73.9499 47.3143 70.4428 45.2 68.4785 42.0357C70.1857 43.1 72.1928 43.7072 74.3571 43.7072C80.5142 43.7072 85.4999 38.7214 85.4999 32.5643C85.4999 30.4143 84.8928 28.4 83.8285 26.6929C86.9928 28.6643 89.0999 32.1714 89.0999 36.1714Z" fill="black"/>
</g>
<path d="M77.9489 48.0287C71.4061 48.0287 66.0918 42.7073 66.0918 36.1716C66.0918 29.6287 71.4132 24.3145 77.9489 24.3145C84.4847 24.3145 89.8061 29.6359 89.8061 36.1716C89.8061 42.7073 84.4918 48.0287 77.9489 48.0287ZM77.9489 25.7359C72.1989 25.7359 67.5204 30.4145 67.5204 36.1645C67.5204 41.9145 72.1989 46.593 77.9489 46.593C83.6989 46.593 88.3775 41.9145 88.3775 36.1645C88.3775 30.4145 83.6989 25.7359 77.9489 25.7359Z" fill="#5A050A"/>
<path d="M121.263 59.7287C121.077 59.7287 120.899 59.6573 120.756 59.5216C120.477 59.243 120.477 58.793 120.756 58.5144L122.377 56.893C122.656 56.6144 123.106 56.6144 123.384 56.893C123.663 57.1716 123.663 57.6216 123.384 57.9002L121.763 59.5216C121.627 59.6573 121.442 59.7287 121.263 59.7287Z" fill="#5A050A"/>
<path d="M125.792 55.1931C125.607 55.1931 125.428 55.1217 125.285 54.9859C125.007 54.7074 125.007 54.2574 125.285 53.9788L126.907 52.3574C127.185 52.0788 127.635 52.0788 127.914 52.3574C128.192 52.6359 128.192 53.0859 127.914 53.3645L126.292 54.9859C126.157 55.1288 125.978 55.1931 125.792 55.1931Z" fill="#5A050A"/>
<path d="M122.884 55.1931C122.699 55.1931 122.52 55.1217 122.377 54.9859L120.756 53.3645C120.477 53.0859 120.477 52.6359 120.756 52.3574C121.034 52.0788 121.484 52.0788 121.763 52.3574L123.384 53.9788C123.663 54.2574 123.663 54.7074 123.384 54.9859C123.249 55.1288 123.07 55.1931 122.884 55.1931Z" fill="#5A050A"/>
<path d="M127.414 59.7287C127.228 59.7287 127.049 59.6573 126.907 59.5216L125.285 57.9002C125.007 57.6216 125.007 57.1716 125.285 56.893C125.564 56.6144 126.014 56.6144 126.292 56.893L127.914 58.5144C128.192 58.793 128.192 59.243 127.914 59.5216C127.785 59.6573 127.599 59.7287 127.414 59.7287Z" fill="#5A050A"/>
<path d="M108.435 32.9859C107.013 32.9859 105.863 31.8287 105.863 30.4144C105.863 28.993 107.02 27.843 108.435 27.843C109.849 27.843 111.006 29.0002 111.006 30.4144C111.013 31.8287 109.856 32.9859 108.435 32.9859ZM108.435 29.2716C107.806 29.2716 107.292 29.7859 107.292 30.4144C107.292 31.043 107.806 31.5573 108.435 31.5573C109.063 31.5573 109.578 31.043 109.578 30.4144C109.585 29.7859 109.07 29.2716 108.435 29.2716Z" fill="#5A050A"/>
<path d="M121.263 42.293C119.849 42.293 118.691 41.1359 118.691 39.7216C118.691 38.3073 119.849 37.1501 121.263 37.1501C122.684 37.1501 123.834 38.3073 123.834 39.7216C123.834 41.1359 122.677 42.293 121.263 42.293ZM121.263 38.5787C120.634 38.5787 120.12 39.093 120.12 39.7216C120.12 40.3501 120.634 40.8644 121.263 40.8644C121.891 40.8644 122.406 40.3501 122.406 39.7216C122.406 39.093 121.891 38.5787 121.263 38.5787Z" fill="#5A050A"/>
<path d="M140.157 135.407H14.2709C13.8781 135.407 13.5566 135.086 13.5566 134.693C13.5566 134.3 13.8781 133.979 14.2709 133.979H140.157C140.55 133.979 140.871 134.3 140.871 134.693C140.871 135.086 140.557 135.407 140.157 135.407Z" fill="#5A050A"/>
</svg>
