<svg width="47" height="47" viewBox="0 0 47 47" fill="none" xmlns="http://www.w3.org/2000/svg">
	<defs>
		<linearGradient id="paint0_linear_669_2349" x1="2.86055e-07" y1="9.5" x2="43.5" y2="41" gradientUnits="userSpaceOnUse">
			<stop stop-color="#F17350" />
			<stop offset="1" stop-color="#D12C57" />
		</linearGradient>
		<clipPath id="clip0_669_2349">
			<rect width="29" height="29" fill="white" transform="translate(9 9)" />
		</clipPath>
	</defs>
    <circle cx="23.5" cy="23.5" r="23.5" fill="url(#paint0_linear_669_2349)" />
	<g clip-path="url(#clip0_669_2349)">
		<path d="M23.8371 11.0174C23.6207 10.9306 23.3793 10.9306 23.1629 11.0174L12.3459 15.3438L16.7031 17.0856L27.8573 12.6251L23.8371 11.0174ZM30.2969 13.602L19.1428 18.0626L23.5 19.8044L34.6541 15.3438L30.2969 13.602ZM36.1875 16.6832L24.4062 21.3957V35.7544L36.1875 31.0419V16.6851V16.6832ZM22.5938 35.7562V21.3939L10.8125 16.6832V31.0437L22.5938 35.7562ZM22.4904 9.33355C23.1385 9.07436 23.8615 9.07436 24.5096 9.33355L37.4309 14.5028C37.5989 14.5701 37.7429 14.6862 37.8443 14.8361C37.9457 14.986 38 15.1628 38 15.3438V31.0437C37.9998 31.4059 37.891 31.7597 37.6878 32.0595C37.4846 32.3593 37.1963 32.5913 36.8599 32.7257L23.8371 37.9348C23.6207 38.0215 23.3793 38.0215 23.1629 37.9348L10.1419 32.7257C9.80521 32.5916 9.51646 32.3597 9.31291 32.0598C9.10937 31.76 9.00037 31.4061 9 31.0437V15.3438C9.00004 15.1628 9.05427 14.986 9.15571 14.8361C9.25714 14.6862 9.40113 14.5701 9.56912 14.5028L22.4904 9.33355Z" fill="white" />
	</g>
	
</svg>
