<svg width="47" height="47" viewBox="0 0 47 47" fill="none" xmlns="http://www.w3.org/2000/svg">
	<defs>
		<linearGradient id="paint0_linear_221_2739" x1="2.86055e-07" y1="9.5" x2="43.5" y2="41" gradientUnits="userSpaceOnUse">
			<stop stop-color="#F17350" />
			<stop offset="1" stop-color="#D12C57" />
		</linearGradient>
	</defs>
	<circle cx="23.5" cy="23.5" r="23.5" fill="url(#paint0_linear_221_2739)" />
	<path d="M32.5625 17.1562H14.4375C12.936 17.1562 11.7188 18.3735 11.7188 19.875V30.75C11.7188 32.2515 12.936 33.4688 14.4375 33.4688H32.5625C34.064 33.4688 35.2812 32.2515 35.2812 30.75V19.875C35.2812 18.3735 34.064 17.1562 32.5625 17.1562Z" stroke="white" stroke-width="1.8125" stroke-linejoin="round" />
	<path d="M32.2997 17.1568V15.4576C32.2996 15.0408 32.2074 14.6292 32.0299 14.2522C31.8524 13.8751 31.5938 13.5419 31.2727 13.2763C30.9516 13.0106 30.5758 12.8191 30.1721 12.7155C29.7685 12.6118 29.3469 12.5985 28.9375 12.6765L14.0206 15.2225C13.3728 15.346 12.7884 15.6916 12.3682 16.1998C11.948 16.708 11.7183 17.347 11.7188 18.0064V20.7818" stroke="white" stroke-width="1.8125" stroke-linejoin="round" />
	<path d="M29.8438 27.125C29.4853 27.125 29.1348 27.0187 28.8368 26.8195C28.5387 26.6204 28.3064 26.3373 28.1692 26.0061C28.032 25.6749 27.9961 25.3105 28.0661 24.9589C28.136 24.6073 28.3086 24.2844 28.5621 24.0309C28.8156 23.7774 29.1386 23.6048 29.4901 23.5348C29.8417 23.4649 30.2062 23.5008 30.5374 23.638C30.8686 23.7752 31.1516 24.0075 31.3508 24.3055C31.5499 24.6036 31.6563 24.954 31.6563 25.3125C31.6563 25.7932 31.4653 26.2542 31.1254 26.5941C30.7855 26.934 30.3245 27.125 29.8438 27.125Z" fill="white" />
</svg>
